<svg width="20" height="20" viewBox="0 0 20 20" fill="none" xmlns="http://www.w3.org/2000/svg">
<g clip-path="url(#clip0_418_34362)">
<path d="M7.74417 4.69679L3.03 9.41096C2.87377 9.56723 2.78601 9.77915 2.78601 10.0001C2.78601 10.2211 2.87377 10.433 3.03 10.5893L7.74417 15.3035C7.90134 15.4553 8.11184 15.5393 8.33033 15.5374C8.54883 15.5355 8.75784 15.4478 8.91235 15.2933C9.06686 15.1388 9.1545 14.9298 9.15639 14.7113C9.15829 14.4928 9.0743 14.2823 8.9225 14.1251L5.63083 10.8335H16.6667C16.8877 10.8335 17.0996 10.7457 17.2559 10.5894C17.4122 10.4331 17.5 10.2211 17.5 10.0001C17.5 9.77911 17.4122 9.56715 17.2559 9.41087C17.0996 9.25459 16.8877 9.16679 16.6667 9.16679H5.63083L8.9225 5.87512C9.00209 5.79825 9.06558 5.7063 9.10925 5.60463C9.15293 5.50296 9.17591 5.39361 9.17688 5.28296C9.17784 5.17231 9.15675 5.06257 9.11485 4.96016C9.07295 4.85775 9.01107 4.7647 8.93283 4.68646C8.85459 4.60822 8.76154 4.54634 8.65913 4.50444C8.55672 4.46254 8.44698 4.44145 8.33633 4.44241C8.22568 4.44338 8.11633 4.46636 8.01466 4.51004C7.91299 4.55371 7.82104 4.6172 7.74417 4.69679Z" fill="#9EA1A5"/>
</g>
<defs>
<clipPath id="clip0_418_34362">
<rect width="20" height="20" fill="white" transform="matrix(-1 0 0 1 20 0)"/>
</clipPath>
</defs>
</svg>
