<svg width="293" height="241" viewBox="0 0 293 241" fill="none" xmlns="http://www.w3.org/2000/svg">
<path d="M263.373 165.992C263.373 190.302 256.833 213.077 245.427 232.639H18.5734C7.16599 213.077 0.625732 190.302 0.625732 165.992C0.625732 93.0784 59.4442 33.9697 132 33.9697C178.403 33.9697 219.187 58.1465 242.558 94.6492C251.923 109.275 258.494 125.882 261.509 143.704C262.735 150.949 263.373 158.396 263.373 165.992V165.992Z" fill="white" fill-opacity="0.05"/>
<path d="M66.7888 200.017C61.5031 200.017 56.3333 200.55 51.3124 198.724C48.2248 197.601 44.8587 197.093 42.1943 195.056C30.9998 184.5 31.3127 180.007 29.1983 170.531C25.8496 155.524 33.2705 141.987 45.8275 133.36C57.6972 125.204 69.9635 122.67 83.8023 122.67C94.8535 122.67 105.905 122.67 116.956 122.67C133.538 122.67 150.123 122.79 166.704 122.6C178.673 122.463 190.747 122.474 202.373 119.281C205.426 118.442 208.484 117.471 211.526 116.591C216.706 115.091 221.897 110.966 226.164 107.787C236.143 100.353 243.345 88.3315 247.335 76.6947C249.29 70.9913 251.667 64.0497 251.667 57.8994" stroke="#A7CCB9" stroke-width="2" stroke-linecap="round" stroke-dasharray="6 6"/>
<path d="M231.648 106.733L288.083 38.8753L227.134 78.9269L231.648 106.733Z" fill="#048845"/>
<path d="M208.613 66.9045L227.134 78.9271L292.404 33.9999L238.318 88.4304L264.383 107.163L292.404 33.9999L208.613 66.9045Z" fill="#B1DAC5"/>
<path d="M227.134 78.927L231.648 106.733L238.318 88.4303L292.404 33.9998L227.134 78.927Z" fill="#57AF82"/>
<path d="M198.232 147.599C198.135 147.691 198.036 147.78 197.934 147.866C196.797 148.823 195.334 149.399 193.737 149.399H74.5646C72.9744 149.399 71.5163 148.828 70.3818 147.878C70.2752 147.788 70.1709 147.695 70.0703 147.599L117.211 106.301L124.444 99.964L131.067 94.1619C132.836 92.6127 135.466 92.6127 137.234 94.162L143.871 99.9759L151.091 106.301L198.232 147.599Z" fill="#B1DAC5"/>
<path d="M200.271 152.338V225.331C200.271 226.691 199.863 227.954 199.164 229.004C198.891 229.415 198.572 229.794 198.216 230.133C198.12 230.224 198.021 230.313 197.919 230.399C196.782 231.356 195.319 231.932 193.722 231.932H74.5492C72.9588 231.932 71.5009 231.361 70.3664 230.411C70.2598 230.322 70.1555 230.228 70.0549 230.133C69.6992 229.794 69.3808 229.416 69.107 229.004C68.5211 228.124 68.1402 227.094 68.0322 225.983C68.0111 225.769 68.0005 225.551 68.0005 225.331V152.338C68.0005 152.118 68.0111 151.901 68.0322 151.686C68.1907 150.056 68.937 148.601 70.0549 147.537C70.1555 147.441 70.2598 147.348 70.3664 147.258C71.5009 146.308 72.9588 145.737 74.5492 145.737H193.722C195.319 145.737 196.782 146.313 197.919 147.27C198.021 147.356 198.12 147.445 198.216 147.537C199.481 148.741 200.271 150.447 200.271 152.338Z" fill="#048845"/>
<path d="M178.076 200.008H90.1957C87.6593 200.008 85.6033 197.954 85.6033 195.421V141.023C85.6033 138.489 87.6593 136.436 90.1957 136.436H178.076C180.612 136.436 182.668 138.489 182.668 141.023V195.421C182.668 197.954 180.612 200.008 178.076 200.008Z" fill="white"/>
<path d="M146.343 144.565H94.2762C93.2951 144.565 92.4998 143.771 92.4998 142.791V142.774C92.4998 141.794 93.2951 141 94.2762 141H146.343C147.324 141 148.119 141.794 148.119 142.774V142.791C148.119 143.771 147.324 144.565 146.343 144.565Z" fill="#EBEBEB"/>
<path d="M169.63 151.477H93.7463C93.0579 151.477 92.4998 150.92 92.4998 150.232V150.221C92.4998 149.533 93.0579 148.976 93.7463 148.976H169.63C170.318 148.976 170.876 149.533 170.876 150.221V150.232C170.876 150.92 170.318 151.477 169.63 151.477Z" fill="#EBEBEB"/>
<path d="M169.63 156.909H93.7463C93.0579 156.909 92.4998 156.351 92.4998 155.664V155.652C92.4998 154.965 93.0579 154.407 93.7463 154.407H169.63C170.318 154.407 170.876 154.965 170.876 155.652V155.664C170.876 156.351 170.318 156.909 169.63 156.909Z" fill="#EBEBEB"/>
<mask id="mask0_3501_46112" style="mask-type:alpha" maskUnits="userSpaceOnUse" x="108" y="139" width="53" height="52">
<rect x="108.001" y="139" width="52" height="52" fill="#D9D9D9"/>
</mask>
<g mask="url(#mask0_3501_46112)">
<path d="M130.967 174.967L146.242 159.692L143.209 156.658L130.967 168.9L124.792 162.725L121.759 165.758L130.967 174.967ZM134.001 186.667C131.003 186.667 128.187 186.098 125.551 184.959C122.915 183.823 120.621 182.279 118.671 180.329C116.721 178.379 115.178 176.086 114.041 173.45C112.903 170.814 112.334 167.997 112.334 165C112.334 162.003 112.903 159.186 114.041 156.55C115.178 153.914 116.721 151.621 118.671 149.671C120.621 147.721 122.915 146.177 125.551 145.039C128.187 143.902 131.003 143.333 134.001 143.333C136.998 143.333 139.815 143.902 142.451 145.039C145.087 146.177 147.38 147.721 149.33 149.671C151.28 151.621 152.823 153.914 153.96 156.55C155.098 159.186 155.667 162.003 155.667 165C155.667 167.997 155.098 170.814 153.96 173.45C152.823 176.086 151.28 178.379 149.33 180.329C147.38 182.279 145.087 183.823 142.451 184.959C139.815 186.098 136.998 186.667 134.001 186.667Z" fill="#229A16"/>
</g>
<path d="M134.151 188.834L124.429 195.171L70.3662 230.411C70.2595 230.321 70.1554 230.228 70.055 230.132C69.699 229.794 69.3807 229.416 69.1071 229.004C68.5208 228.124 68.1401 227.094 68.032 225.983V151.686C68.1907 150.057 68.9371 148.601 70.055 147.537C70.1555 147.441 70.2596 147.348 70.3662 147.259L123.148 181.663L124.429 182.498L134.151 188.834Z" fill="#57AF82"/>
<path d="M200.271 152.338V225.331C200.271 226.69 199.863 227.954 199.164 229.004C198.891 229.415 198.572 229.794 198.216 230.132C198.12 230.224 198.021 230.313 197.919 230.399L143.856 195.159L134.151 188.834L143.855 182.509L145.137 181.674L197.919 147.271C198.021 147.356 198.12 147.445 198.216 147.537C199.481 148.741 200.271 150.447 200.271 152.338Z" fill="#57AF82"/>
<path d="M124.429 182.498L134.151 188.834L124.429 195.171L70.366 230.411C70.2593 230.321 70.1552 230.228 70.0548 230.132C69.6988 229.794 69.3805 229.416 69.1069 229.004L116.079 187.856L123.148 181.663L124.429 182.498Z" fill="#047C3F"/>
<path d="M199.164 229.004C198.891 229.415 198.572 229.794 198.216 230.132C198.12 230.224 198.021 230.313 197.919 230.399L143.856 195.159L134.151 188.834L143.855 182.509L145.137 181.674L152.193 187.855L199.164 229.004Z" fill="#047C3F"/>
<path d="M198.212 230.129C196.823 231.794 194.369 231.925 192.21 231.925C153.865 231.932 115.52 231.938 77.1748 231.944C74.6629 231.945 71.8947 231.85 70.0435 230.138C75.8022 225.094 81.5607 220.05 87.3195 215.005C93.0782 209.961 98.8369 204.916 104.595 199.872C110.354 194.827 116.113 189.783 121.871 184.738C124.891 182.094 127.909 179.449 130.928 176.803C132.767 175.192 135.502 175.192 137.341 176.803L198.213 230.127C198.213 230.128 198.212 230.128 198.212 230.129Z" fill="#048845"/>
</svg>
