<svg width="40" height="40" viewBox="0 0 40 40" fill="none" xmlns="http://www.w3.org/2000/svg">
<path d="M40 20C40 8.95431 31.0457 0 20 0C8.95431 0 0 8.95431 0 20C0 31.0457 8.95431 40 20 40C31.0457 40 40 31.0457 40 20Z" fill="#D2F2E2"/>
<path d="M28.0902 7.6709C28.0902 7.6709 26.6901 7.92281 22.7306 11.0238C18.5493 14.2964 14.7218 13.723 14.424 14.2862C14.1263 14.8522 13.8772 21.1114 16.5632 22.4263C16.5632 22.4263 19.9275 21.1458 24.137 23.7284C27.9727 26.0787 29.9558 26.5417 29.9558 26.5417L28.0902 7.6709Z" fill="#6AD39D"/>
<path d="M14.8575 14.0727C14.8575 14.0727 10.1838 13.4358 7.96796 15.458C5.7521 17.4802 8.40601 23.2955 10.2315 23.614C11.3906 23.8168 14.1425 23.5912 16.5601 22.4234C16.5601 22.4234 14.0739 18.3278 14.8575 14.0727Z" fill="#1AB767"/>
<path d="M15.4559 22.8905C15.4559 22.8905 15.4054 22.2499 13.1356 22.8481C10.8658 23.4462 10.9425 23.4148 11.3487 24.1817C11.7549 24.9486 15.3539 31.1986 16.2006 31.4493C17.0474 31.7001 19.0143 31.0056 19.1681 30.528C19.3191 30.0534 15.4559 22.8905 15.4559 22.8905Z" fill="#30BD75"/>
<path d="M30.5954 26.6471C32.2883 26.4237 33.1 21.9937 32.4084 16.7525C31.7167 11.5113 29.7835 7.44354 28.0905 7.66698C26.3976 7.89038 25.5859 12.3204 26.2776 17.5616C26.9693 22.8028 28.9024 26.8706 30.5954 26.6471Z" fill="#23CF78"/>
<path d="M27.3058 17.5139C27.9105 22.1052 29.32 25.7072 30.4498 25.5566C31.5797 25.4089 32.0056 21.5634 31.4008 16.9721C30.7962 12.3807 29.3866 8.77878 28.2568 8.92936C27.1269 9.07705 26.7011 12.9226 27.3058 17.5139Z" fill="#30BD75"/>
<path d="M27.0538 14.6712C27.0538 14.6712 29.6419 14.3704 30.1724 15.3204C30.7028 16.2703 30.9969 18.2364 30.2753 18.8743C29.5537 19.5123 27.7433 20.0661 27.7433 20.0661C27.7433 20.0661 27.0459 16.9903 27.0538 14.6712Z" fill="#6EE1A7"/>
<path d="M29.4144 16.9266C29.5536 17.7198 29.8564 18.326 30.0941 18.2863C30.3317 18.2437 30.4126 17.5698 30.2735 16.7766C30.1343 15.9834 29.8315 15.3772 29.5937 15.4169C29.3561 15.4595 29.2752 16.1334 29.4144 16.9266Z" fill="#23CF78"/>
</svg>
