<svg width="40" height="40" viewBox="0 0 40 40" fill="none" xmlns="http://www.w3.org/2000/svg">
<path d="M40 20C40 8.95431 31.0457 0 20 0C8.95431 0 0 8.95431 0 20C0 31.0457 8.95431 40 20 40C31.0457 40 40 31.0457 40 20Z" fill="#D2F2E2"/>
<path d="M31.7096 8.90625H8.77968C7.75634 8.90625 6.92676 9.73583 6.92676 10.7592V28.2507C6.92676 29.2741 7.75634 30.1037 8.77968 30.1037H31.7096C32.733 30.1037 33.5625 29.2741 33.5625 28.2507V10.7592C33.5625 9.73583 32.733 8.90625 31.7096 8.90625Z" fill="white"/>
<path d="M6.92676 10.7592C6.92676 9.73585 7.75636 8.90625 8.7797 8.90625H31.7097C32.733 8.90625 33.5625 9.73585 33.5625 10.7592V11.1066H6.92676V10.7592Z" fill="#1AB767"/>
<path d="M8.62541 10.3338C8.79606 10.3338 8.93441 10.1955 8.93441 10.0248C8.93441 9.85417 8.79606 9.71582 8.62541 9.71582C8.45475 9.71582 8.31641 9.85417 8.31641 10.0248C8.31641 10.1955 8.45475 10.3338 8.62541 10.3338Z" fill="#E4E4E7"/>
<path d="M9.6757 10.3338C9.84636 10.3338 9.9847 10.1955 9.9847 10.0248C9.9847 9.85417 9.84636 9.71582 9.6757 9.71582C9.50504 9.71582 9.3667 9.85417 9.3667 10.0248C9.3667 10.1955 9.50504 10.3338 9.6757 10.3338Z" fill="#E4E4E7"/>
<path d="M10.727 10.3338C10.8976 10.3338 11.036 10.1955 11.036 10.0248C11.036 9.85417 10.8976 9.71582 10.727 9.71582C10.5563 9.71582 10.418 9.85417 10.418 10.0248C10.418 10.1955 10.5563 10.3338 10.727 10.3338Z" fill="#E4E4E7"/>
<path d="M18.6067 12.3047H8.71873C8.47982 12.3047 8.28613 12.4984 8.28613 12.7373V15.9509C8.28613 16.1898 8.47982 16.3835 8.71873 16.3835H18.6067C18.8456 16.3835 19.0393 16.1898 19.0393 15.9509V12.7373C19.0393 12.4984 18.8456 12.3047 18.6067 12.3047Z" fill="#B5EFD1"/>
<path d="M18.6067 12.3047H8.71873C8.47982 12.3047 8.28613 12.4984 8.28613 12.7373V15.9509C8.28613 16.1898 8.47982 16.3835 8.71873 16.3835H18.6067C18.8456 16.3835 19.0393 16.1898 19.0393 15.9509V12.7373C19.0393 12.4984 18.8456 12.3047 18.6067 12.3047Z" fill="#B5EFD1"/>
<path d="M18.6072 12.3047H8.71922C8.4803 12.3047 8.28662 12.4984 8.28662 12.7373V15.9509C8.28662 16.1898 8.4803 16.3835 8.71922 16.3835H18.6072C18.8461 16.3835 19.0398 16.1898 19.0398 15.9509V12.7373C19.0398 12.4984 18.8461 12.3047 18.6072 12.3047Z" fill="#6AD39D"/>
<path d="M18.6072 20.7803H8.71922C8.4803 20.7803 8.28662 20.974 8.28662 21.2129V24.4265C8.28662 24.6654 8.4803 24.8591 8.71922 24.8591H18.6072C18.8461 24.8591 19.0398 24.6654 19.0398 24.4265V21.2129C19.0398 20.974 18.8461 20.7803 18.6072 20.7803Z" fill="#6AD39D"/>
<path d="M17.0931 17.5576H8.62652C8.4388 17.5576 8.28662 17.7098 8.28662 17.8975C8.28662 18.0852 8.4388 18.2374 8.62652 18.2374H17.0931C17.2808 18.2374 17.433 18.0852 17.433 17.8975C17.433 17.7098 17.2808 17.5576 17.0931 17.5576Z" fill="#6AD39D"/>
<path d="M17.0931 26.0332H8.62652C8.4388 26.0332 8.28662 26.1854 8.28662 26.3731C8.28662 26.5608 8.4388 26.713 8.62652 26.713H17.0931C17.2808 26.713 17.433 26.5608 17.433 26.3731C17.433 26.1854 17.2808 26.0332 17.0931 26.0332Z" fill="#6AD39D"/>
<path d="M29.5868 21.7695H21.1202C20.9325 21.7695 20.7803 21.9217 20.7803 22.1094C20.7803 22.2972 20.9325 22.4493 21.1202 22.4493H29.5868C29.7745 22.4493 29.9267 22.2972 29.9267 22.1094C29.9267 21.9217 29.7745 21.7695 29.5868 21.7695Z" fill="#6AD39D"/>
<path d="M14.8065 18.9795H8.62652C8.4388 18.9795 8.28662 19.1317 8.28662 19.3194C8.28662 19.5071 8.4388 19.6593 8.62652 19.6593H14.8065C14.9942 19.6593 15.1464 19.5071 15.1464 19.3194C15.1464 19.1317 14.9942 18.9795 14.8065 18.9795Z" fill="#6AD39D"/>
<path d="M14.8065 27.4551H8.62652C8.4388 27.4551 8.28662 27.6073 8.28662 27.795C8.28662 27.9827 8.4388 28.1349 8.62652 28.1349H14.8065C14.9942 28.1349 15.1464 27.9827 15.1464 27.795C15.1464 27.6073 14.9942 27.4551 14.8065 27.4551Z" fill="#6AD39D"/>
<path d="M27.3002 23.1914H21.1202C20.9325 23.1914 20.7803 23.3436 20.7803 23.5313C20.7803 23.719 20.9325 23.8712 21.1202 23.8712H27.3002C27.4879 23.8712 27.6401 23.719 27.6401 23.5313C27.6401 23.3436 27.4879 23.1914 27.3002 23.1914Z" fill="#6AD39D"/>
<path d="M31.7091 12.3047H20.647C20.408 12.3047 20.2144 12.4984 20.2144 12.7373V15.9509C20.2144 16.1898 20.408 16.3835 20.647 16.3835H31.7091C31.9481 16.3835 32.1417 16.1898 32.1417 15.9509V12.7373C32.1417 12.4984 31.9481 12.3047 31.7091 12.3047Z" fill="#6AD39D"/>
<path d="M30.0196 17.5576H20.5543C20.3665 17.5576 20.2144 17.7098 20.2144 17.8975C20.2144 18.0852 20.3665 18.2374 20.5543 18.2374H30.0196C30.2073 18.2374 30.3595 18.0852 30.3595 17.8975C30.3595 17.7098 30.2073 17.5576 30.0196 17.5576Z" fill="#6AD39D"/>
<path d="M27.4833 18.9795H20.5543C20.3665 18.9795 20.2144 19.1317 20.2144 19.3194C20.2144 19.5071 20.3665 19.6593 20.5543 19.6593H27.4833C27.671 19.6593 27.8232 19.5071 27.8232 19.3194C27.8232 19.1317 27.671 18.9795 27.4833 18.9795Z" fill="#6AD39D"/>
</svg>
