<svg width="20" height="20" viewBox="0 0 20 20" fill="none" xmlns="http://www.w3.org/2000/svg">
<mask id="mask0_418_21559" style="mask-type:alpha" maskUnits="userSpaceOnUse" x="0" y="0" width="20" height="20">
<rect width="20" height="20" fill="#D9D9D9"/>
</mask>
<g mask="url(#mask0_418_21559)">
<path d="M7.00033 14.167L10.0003 11.167L13.0003 14.167L14.167 13.0003L11.167 10.0003L14.167 7.00033L13.0003 5.83366L10.0003 8.83366L7.00033 5.83366L5.83366 7.00033L8.83366 10.0003L5.83366 13.0003L7.00033 14.167ZM10.0003 18.3337C8.84755 18.3337 7.76421 18.1148 6.75033 17.677C5.73644 17.2398 4.85449 16.6462 4.10449 15.8962C3.35449 15.1462 2.76088 14.2642 2.32366 13.2503C1.88588 12.2364 1.66699 11.1531 1.66699 10.0003C1.66699 8.84755 1.88588 7.76421 2.32366 6.75033C2.76088 5.73644 3.35449 4.85449 4.10449 4.10449C4.85449 3.35449 5.73644 2.7606 6.75033 2.32283C7.76421 1.8856 8.84755 1.66699 10.0003 1.66699C11.1531 1.66699 12.2364 1.8856 13.2503 2.32283C14.2642 2.7606 15.1462 3.35449 15.8962 4.10449C16.6462 4.85449 17.2398 5.73644 17.677 6.75033C18.1148 7.76421 18.3337 8.84755 18.3337 10.0003C18.3337 11.1531 18.1148 12.2364 17.677 13.2503C17.2398 14.2642 16.6462 15.1462 15.8962 15.8962C15.1462 16.6462 14.2642 17.2398 13.2503 17.677C12.2364 18.1148 11.1531 18.3337 10.0003 18.3337Z" fill="#9EA1A5"/>
</g>
</svg>
