<svg width="61" height="16" viewBox="0 0 61 16" fill="none" xmlns="http://www.w3.org/2000/svg">
<g clip-path="url(#clip0_8_2958)">
<path fill-rule="evenodd" clip-rule="evenodd" d="M10.0851 5.41289C11.1851 6.02953 11.5693 7.41134 10.9433 8.49933L7.72758 14.0882C7.10161 15.1762 5.70248 15.5583 4.60254 14.9417C3.50257 14.325 3.11834 12.9432 3.74433 11.8552L6.96 6.26633C7.58601 5.17834 8.98514 4.79629 10.0851 5.41289Z" fill="url(#paint0_linear_8_2958)"/>
<path fill-rule="evenodd" clip-rule="evenodd" d="M2.40381 5.17074C1.13729 5.18553 0.120951 6.21214 0.133738 7.46368C0.146525 8.71527 1.1836 9.71784 2.4501 9.70298L8.48108 9.63237C9.25832 9.68517 9.73883 10.534 9.3378 11.227L10.9673 8.41107L10.9627 8.41321C11.1346 8.091 11.2303 7.72333 11.2263 7.33385C11.2135 6.08226 10.1765 5.07969 8.90998 5.09455L2.40381 5.17074Z" fill="#048845"/>
<path fill-rule="evenodd" clip-rule="evenodd" d="M6.55973 4.21077C7.64981 3.57535 8.01371 2.18806 7.37241 1.11221C6.73112 0.0363545 5.32759 -0.320673 4.23748 0.314767C3.90114 0.510823 3.63392 0.778457 3.44405 1.08643L3.44075 1.08089L1.39627 4.62597L5.4961 4.52909L5.4928 4.52355C5.85723 4.50841 6.22341 4.40684 6.55973 4.21077Z" fill="#048845"/>
<path d="M17.9244 11.4272C17.5908 11.4272 17.2663 11.385 16.9508 11.3007C16.6352 11.213 16.3484 11.0832 16.0902 10.9112C15.832 10.7392 15.6156 10.5267 15.441 10.2738C15.2696 10.0175 15.1597 9.72074 15.1111 9.38348L16.0628 9.38348C16.1266 9.66003 16.2469 9.89271 16.4236 10.0816C16.6036 10.2704 16.8203 10.4121 17.0739 10.5065C17.3307 10.6009 17.6078 10.6482 17.9054 10.6482C18.239 10.6482 18.5358 10.6009 18.7958 10.5065C19.0589 10.4087 19.2641 10.2704 19.4113 10.0917C19.5619 9.91295 19.6349 9.69884 19.6304 9.44929C19.6265 9.23008 19.5739 9.03952 19.4729 8.87763C19.3752 8.71574 19.2338 8.58086 19.0488 8.47296C18.8636 8.36501 18.6396 8.28073 18.377 8.22003L16.9778 7.88617C16.4524 7.76813 16.0382 7.55734 15.7351 7.25385C15.4353 6.95031 15.2777 6.54901 15.2622 6.04988C15.2546 5.62835 15.3559 5.25739 15.566 4.937C15.7794 4.6166 16.0741 4.36706 16.4503 4.18832C16.8297 4.00958 17.2647 3.9202 17.7553 3.9202C18.321 3.9202 18.7987 4.01969 19.1883 4.21867C19.5777 4.41763 19.8734 4.679 20.0754 5.00274C20.2775 5.32651 20.3835 5.67216 20.3934 6.03977L19.4563 6.03977C19.4211 5.70925 19.3214 5.4479 19.1577 5.25567C18.9973 5.06008 18.7969 4.92179 18.5567 4.84085C18.3164 4.75656 18.0558 4.7144 17.7744 4.7144C17.5717 4.7144 17.3759 4.74139 17.1872 4.79534C17.0017 4.84595 16.8347 4.92351 16.6861 5.02802C16.5408 5.13259 16.4254 5.26244 16.3399 5.41756C16.2544 5.57268 16.2135 5.7531 16.2171 5.95883C16.2219 6.22187 16.3124 6.43603 16.4887 6.60125C16.6683 6.76652 16.9897 6.90817 17.453 7.0262L18.8079 7.36008C19.1626 7.43764 19.4524 7.55229 19.6776 7.70404C19.906 7.85578 20.0823 8.02782 20.2068 8.22003C20.3346 8.41225 20.4232 8.61289 20.4726 8.82202C20.5255 9.0311 20.5537 9.23679 20.5573 9.43915C20.5639 9.80673 20.4637 10.1423 20.2566 10.4458C20.0494 10.746 19.7478 10.9854 19.3521 11.1641C18.9595 11.3395 18.4837 11.4272 17.9244 11.4272Z" fill="#637381"/>
<path d="M21.9381 11.326L21.8443 6.09541L22.7175 6.09541L22.7312 6.85423C22.8676 6.62488 23.0569 6.42422 23.2991 6.25225C23.5414 6.08026 23.8587 5.99423 24.2511 5.99423C24.4343 5.99423 24.6213 6.02627 24.8121 6.09036C25.0062 6.15445 25.1845 6.25053 25.3471 6.37872C25.5096 6.50683 25.6367 6.66369 25.7283 6.84914C25.8808 6.59283 26.0897 6.38713 26.355 6.23201C26.6203 6.07351 26.9214 5.99423 27.2583 5.99423C27.4349 5.99423 27.6202 6.02289 27.8142 6.08026C28.0081 6.13422 28.1881 6.23201 28.3541 6.37367C28.5235 6.51188 28.6626 6.70583 28.7718 6.95536C28.8808 7.20157 28.9388 7.5186 28.9457 7.90642L29.0071 11.326L28.0947 11.326L28.035 7.99744C28.0293 7.68044 27.9759 7.43594 27.8747 7.26395C27.7735 7.08859 27.642 6.96551 27.4805 6.89465C27.3222 6.82386 27.1533 6.78844 26.9733 6.78844C26.8164 6.78844 26.65 6.82047 26.4746 6.88457C26.2992 6.94866 26.1507 7.05654 26.0292 7.20829C25.9077 7.36008 25.8491 7.56749 25.8539 7.83051L25.9166 11.326L25.014 11.326L24.9494 7.72429C24.9457 7.5186 24.8886 7.34656 24.7782 7.20829C24.6711 7.07002 24.5368 6.96551 24.3752 6.89465C24.217 6.82386 24.0593 6.78844 23.9024 6.78844C23.7291 6.78844 23.5548 6.82386 23.3793 6.89465C23.2073 6.96551 23.0623 7.07849 22.944 7.23363C22.829 7.38536 22.7736 7.58434 22.778 7.83051L22.8407 11.326L21.9381 11.326Z" fill="#637381"/>
<path d="M31.8131 11.4272C31.486 11.4272 31.1954 11.3682 30.9416 11.2502C30.6875 11.1287 30.4866 10.955 30.3386 10.7291C30.1941 10.5031 30.1188 10.23 30.1131 9.90958C30.1026 9.32955 30.2911 8.89788 30.6784 8.61463C31.0658 8.33132 31.6927 8.17957 32.5589 8.15933L33.466 8.13405L33.4587 7.72429C33.4529 7.40388 33.3551 7.15097 33.1654 6.96551C32.9756 6.77662 32.6844 6.68221 32.292 6.68221C32.0011 6.68559 31.7456 6.75638 31.5257 6.89465C31.309 7.03293 31.1708 7.2589 31.1111 7.57254L30.3115 7.57254C30.325 7.23191 30.413 6.94527 30.5757 6.71258C30.7382 6.47651 30.9672 6.29777 31.2626 6.17636C31.5613 6.05494 31.915 5.99423 32.3238 5.99423C32.7654 5.99423 33.1327 6.05831 33.4262 6.18649C33.7228 6.31462 33.9454 6.50347 34.0936 6.75305C34.2454 7.0026 34.3245 7.30947 34.331 7.67372L34.3966 11.326L33.6214 11.326L33.54 10.3446C33.3511 10.7527 33.106 11.036 32.8047 11.1945C32.5067 11.3496 32.1762 11.4272 31.8131 11.4272ZM32.0756 10.7544C32.2458 10.7544 32.4137 10.7224 32.5793 10.6583C32.7481 10.5942 32.9019 10.5082 33.0407 10.4003C33.1793 10.289 33.2882 10.1659 33.3676 10.031C33.4502 9.89273 33.4918 9.75112 33.4924 9.60609L33.4764 8.7107L32.7211 8.72589C32.3354 8.73266 32.0123 8.77313 31.7521 8.84731C31.495 8.9215 31.3024 9.03786 31.1746 9.19632C31.0498 9.35484 30.9898 9.56223 30.9944 9.81855C30.9996 10.1119 31.1018 10.3413 31.301 10.5065C31.5035 10.6718 31.7617 10.7544 32.0756 10.7544Z" fill="#637381"/>
<path d="M35.9467 11.326L35.8528 6.09541L36.7163 6.09541L36.7343 7.10206C36.8149 6.85251 36.9305 6.64682 37.0814 6.48493C37.232 6.31968 37.4048 6.19659 37.5996 6.11565C37.7976 6.0347 38.0029 5.99423 38.2155 5.99423C38.2908 5.99423 38.3644 5.99932 38.4366 6.00942C38.5087 6.01955 38.5647 6.0364 38.6043 6.06002L38.6205 6.96551C38.5711 6.94189 38.5071 6.9267 38.4283 6.91999C38.353 6.90985 38.2891 6.9048 38.2368 6.9048C38.0338 6.89132 37.8442 6.9048 37.6684 6.94527C37.4925 6.98236 37.3384 7.04812 37.2059 7.14253C37.0735 7.23696 36.9695 7.36174 36.8938 7.51688C36.8212 7.66862 36.787 7.85413 36.7909 8.07334L36.8493 11.326L35.9467 11.326Z" fill="#637381"/>
<path d="M42.3603 6.77866L41.2172 6.77866L41.2756 10.0313C41.2789 10.2168 41.2994 10.3534 41.3369 10.4411C41.3777 10.5254 41.4425 10.5794 41.5312 10.603C41.6231 10.6265 41.7477 10.6384 41.9046 10.6384L42.459 10.6384L42.4703 11.2656C42.4085 11.2892 42.314 11.3095 42.1867 11.3263C42.0629 11.3432 41.9075 11.3516 41.7211 11.3516C41.3713 11.3516 41.0989 11.3027 40.9042 11.2049C40.7095 11.1071 40.5712 10.9621 40.4893 10.7699C40.4105 10.5776 40.3687 10.3416 40.3637 10.0617L40.3048 6.77866L39.4806 6.77866L39.4684 6.09572L40.317 6.09572L40.5105 4.57309L41.1776 4.57309L41.2048 6.09067L42.3479 6.09067L42.3603 6.77866Z" fill="#637381"/>
<path d="M43.4023 11.3261L45.8365 4.01135L46.8619 4.01135L49.5587 11.3261L48.6314 11.3261L47.8991 9.32286L45 9.32286L44.3245 11.3261L43.4023 11.3261ZM45.2151 8.4629L47.6433 8.4629L46.3733 4.93707L45.2151 8.4629Z" fill="#637381"/>
<path d="M52.4087 11.4273C51.7516 11.4273 51.2256 11.1946 50.8317 10.7292C50.4373 10.2638 50.232 9.58432 50.216 8.69061C50.2062 8.14765 50.2744 7.67384 50.4208 7.26912C50.5706 6.86445 50.7974 6.55083 51.1008 6.32823C51.4042 6.10567 51.785 5.99435 52.2427 5.99435C52.4846 5.99435 52.6994 6.02639 52.8872 6.09048C53.078 6.15458 53.2428 6.23552 53.3819 6.33332C53.5213 6.43111 53.6341 6.53226 53.7208 6.63681C53.8113 6.74137 53.8782 6.83747 53.9224 6.92516L53.8665 3.80905L54.7787 3.80905L54.9136 11.3261L54.2221 11.3261L54.1047 10.2537C54.0739 10.3549 54.0238 10.4729 53.954 10.6078C53.8845 10.7393 53.7858 10.8692 53.6569 10.9973C53.5282 11.1221 53.362 11.225 53.157 11.3059C52.9559 11.3868 52.7066 11.4273 52.4087 11.4273ZM52.5577 10.709C53.0712 10.709 53.4347 10.5488 53.6482 10.2284C53.8647 9.90467 53.9664 9.37691 53.9533 8.64509C53.9425 8.23703 53.8856 7.88969 53.7827 7.603C53.6827 7.31636 53.5279 7.09887 53.3194 6.95045C53.1141 6.79869 52.8431 6.7228 52.5058 6.7228C52.0872 6.7228 51.75 6.87627 51.4941 7.18314C51.2375 7.49005 51.1156 7.97735 51.1276 8.64509C51.1393 9.29935 51.2662 9.80687 51.5083 10.1677C51.7533 10.5285 52.1032 10.709 52.5577 10.709Z" fill="#637381"/>
<path d="M58.2141 11.4272C57.8611 11.4272 57.5315 11.3715 57.2249 11.2603C56.9221 11.1456 56.669 10.9685 56.465 10.7291C56.2613 10.4863 56.1298 10.1777 56.071 9.80336L56.8946 9.80336C56.9443 10.0091 57.0293 10.1811 57.1495 10.3193C57.2727 10.4542 57.425 10.5571 57.6063 10.6279C57.7871 10.6954 57.9841 10.7291 58.1967 10.7291C58.5367 10.7291 58.8105 10.6634 59.0175 10.5318C59.2243 10.4003 59.3251 10.1979 59.3202 9.92478C59.3168 9.73256 59.2585 9.5791 59.1452 9.46444C59.0354 9.3464 58.8654 9.26041 58.6354 9.20647L57.5808 8.93835C57.1704 8.83717 56.8404 8.67867 56.5914 8.46282C56.3418 8.24699 56.2138 7.94517 56.2069 7.55735C56.1979 7.25048 56.2636 6.9807 56.4035 6.74796C56.543 6.51527 56.7557 6.33148 57.0411 6.19659C57.3266 6.06169 57.6831 5.99423 58.1117 5.99423C58.661 5.99423 59.1068 6.1224 59.4481 6.37872C59.7927 6.63163 59.9761 7.00426 59.9978 7.49665L59.1985 7.49665C59.1611 7.2471 59.0478 7.04984 58.8589 6.9048C58.6733 6.75643 58.4248 6.68221 58.1144 6.68221C57.7908 6.68221 57.5286 6.74966 57.3279 6.88457C57.1277 7.01607 57.0298 7.22181 57.0348 7.5017C57.0382 7.68719 57.1132 7.83389 57.2588 7.94179C57.4048 8.04635 57.6186 8.13405 57.9014 8.20486L58.9215 8.46792C59.1583 8.53196 59.3528 8.61629 59.505 8.72086C59.6607 8.82537 59.7834 8.94174 59.8744 9.06987C59.968 9.19804 60.0342 9.33294 60.0727 9.47459C60.1144 9.61286 60.1365 9.74602 60.1388 9.87421C60.1445 10.1945 60.0709 10.4711 59.918 10.7038C59.7683 10.9331 59.5495 11.1119 59.2605 11.24C58.9749 11.3648 58.6263 11.4272 58.2141 11.4272Z" fill="#637381"/>
</g>
<defs>
<linearGradient id="paint0_linear_8_2958" x1="10.7831" y1="2.46289" x2="-1.27815" y2="6.36547" gradientUnits="userSpaceOnUse">
<stop stop-color="#00543A"/>
<stop offset="1" stop-color="#048845"/>
</linearGradient>
<clipPath id="clip0_8_2958">
<rect width="60" height="15.2381" fill="white" transform="matrix(1 8.32159e-10 0.0180266 1.00436 0 0)"/>
</clipPath>
</defs>
</svg>
