<svg width="129" height="48" viewBox="0 0 129 48" fill="none" xmlns="http://www.w3.org/2000/svg">
<mask id="mask0_2393_1216" style="mask-type:luminance" maskUnits="userSpaceOnUse" x="14" y="9" width="101" height="30">
<path d="M114.162 9.10135H14.8376V38.8987H114.162V9.10135Z" fill="white"/>
</mask>
<g mask="url(#mask0_2393_1216)">
<path d="M26.5218 9.14838V16.7291H28.2082V24.4223H26.5218V30.0984C26.5218 30.0984 26.5218 30.849 27.3697 30.8302C27.3697 30.8302 28.1151 30.8771 28.2176 30.1547V36.1686C28.2176 36.1686 26.4472 38.8893 23.4843 38.8893C23.4843 38.8893 19.6362 39.1521 18.7603 34.752V24.5068H14.8376L26.5218 9.14838Z" fill="#ED1C29"/>
<path d="M84.9702 24.3753V30.0514C84.9702 30.0514 84.9702 30.802 85.8088 30.7832C85.8088 30.7832 86.5542 30.8301 86.6568 30.1077V36.1216C86.6568 36.1216 85.4828 37.9231 83.4608 38.5985C83.4888 38.5704 83.5261 38.5515 83.5539 38.5235C83.9266 38.195 84.2248 37.8103 84.4391 37.3788C84.5322 37.1818 84.5603 36.9566 84.523 36.7408C84.6815 36.5814 84.784 36.3654 84.8118 36.131C84.8213 36.0652 84.8304 35.9808 84.8399 35.8872C84.8585 35.7464 84.8585 35.6056 84.8585 35.4648C84.8585 34.7613 84.6906 34.0951 84.3646 33.4947C84.0291 32.8754 83.5447 32.3781 82.9296 32.0029C82.3054 31.6276 81.5599 31.4399 80.7122 31.4399C79.8642 31.4399 79.1188 31.637 78.4854 32.0123C77.9634 32.3312 77.5348 32.7346 77.2088 33.232V24.4785H73.2954L84.9702 9.10135V16.682H86.6568V24.3753H84.9702Z" fill="#ED1C29"/>
<path d="M29.0842 16.7289H36.7711V30.0139C36.7711 30.0139 36.8364 30.8864 37.7961 30.7832C37.7961 30.7832 38.6252 30.8489 38.8209 30.0702V16.7289H46.3494V38.4296H38.8209V35.7558C38.8209 35.7558 37.7122 38.8987 33.8548 38.8987C33.8548 38.8987 29.8389 39.0581 29.0842 34.7424V16.7289Z" fill="#ED1C29"/>
<path d="M53.5145 35.1459C53.4773 35.0707 53.44 35.0426 53.412 35.0238C53.3839 35.0051 53.3466 34.9863 53.2722 34.9863C53.179 34.9863 53.151 35.0051 53.1324 35.0146C53.1045 35.0332 53.0673 35.0615 53.0206 35.1551C52.9739 35.2396 52.9553 35.3428 52.9553 35.4836C52.9553 35.6244 52.9739 35.7275 53.0206 35.8119C53.0673 35.8963 53.1045 35.9338 53.1324 35.9527C53.1418 35.9621 53.179 35.9808 53.2722 35.9808C53.3466 35.9808 53.3747 35.9621 53.4025 35.9433C53.4306 35.9246 53.4678 35.8963 53.5145 35.8119C53.5609 35.7275 53.5796 35.615 53.5796 35.4836C53.5796 35.3428 53.5609 35.2304 53.5145 35.1459ZM53.5145 35.1459C53.4773 35.0707 53.44 35.0426 53.412 35.0238C53.3839 35.0051 53.3466 34.9863 53.2722 34.9863C53.179 34.9863 53.151 35.0051 53.1324 35.0146C53.1045 35.0332 53.0673 35.0615 53.0206 35.1551C52.9739 35.2396 52.9553 35.3428 52.9553 35.4836C52.9553 35.6244 52.9739 35.7275 53.0206 35.8119C53.0673 35.8963 53.1045 35.9338 53.1324 35.9527C53.1418 35.9621 53.179 35.9808 53.2722 35.9808C53.3466 35.9808 53.3747 35.9621 53.4025 35.9433C53.4306 35.9246 53.4678 35.8963 53.5145 35.8119C53.5609 35.7275 53.5796 35.615 53.5796 35.4836C53.5796 35.3428 53.5609 35.2304 53.5145 35.1459ZM53.5145 35.1459C53.4773 35.0707 53.44 35.0426 53.412 35.0238C53.3839 35.0051 53.3466 34.9863 53.2722 34.9863C53.179 34.9863 53.151 35.0051 53.1324 35.0146C53.1045 35.0332 53.0673 35.0615 53.0206 35.1551C52.9739 35.2396 52.9553 35.3428 52.9553 35.4836C52.9553 35.6244 52.9739 35.7275 53.0206 35.8119C53.0673 35.8963 53.1045 35.9338 53.1324 35.9527C53.1418 35.9621 53.179 35.9808 53.2722 35.9808C53.3466 35.9808 53.3747 35.9621 53.4025 35.9433C53.4306 35.9246 53.4678 35.8963 53.5145 35.8119C53.5609 35.7275 53.5796 35.615 53.5796 35.4836C53.5796 35.3428 53.5609 35.2304 53.5145 35.1459ZM53.5145 35.1459C53.4773 35.0707 53.44 35.0426 53.412 35.0238C53.3839 35.0051 53.3466 34.9863 53.2722 34.9863C53.179 34.9863 53.151 35.0051 53.1324 35.0146C53.1045 35.0332 53.0673 35.0615 53.0206 35.1551C52.9739 35.2396 52.9553 35.3428 52.9553 35.4836C52.9553 35.6244 52.9739 35.7275 53.0206 35.8119C53.0673 35.8963 53.1045 35.9338 53.1324 35.9527C53.1418 35.9621 53.179 35.9808 53.2722 35.9808C53.3466 35.9808 53.3747 35.9621 53.4025 35.9433C53.4306 35.9246 53.4678 35.8963 53.5145 35.8119C53.5609 35.7275 53.5796 35.615 53.5796 35.4836C53.5796 35.3428 53.5609 35.2304 53.5145 35.1459ZM53.5145 35.1459C53.4773 35.0707 53.44 35.0426 53.412 35.0238C53.3839 35.0051 53.3466 34.9863 53.2722 34.9863C53.179 34.9863 53.151 35.0051 53.1324 35.0146C53.1045 35.0332 53.0673 35.0615 53.0206 35.1551C52.9739 35.2396 52.9553 35.3428 52.9553 35.4836C52.9553 35.6244 52.9739 35.7275 53.0206 35.8119C53.0673 35.8963 53.1045 35.9338 53.1324 35.9527C53.1418 35.9621 53.179 35.9808 53.2722 35.9808C53.3466 35.9808 53.3747 35.9621 53.4025 35.9433C53.4306 35.9246 53.4678 35.8963 53.5145 35.8119C53.5609 35.7275 53.5796 35.615 53.5796 35.4836C53.5796 35.3428 53.5609 35.2304 53.5145 35.1459ZM53.5145 35.1459C53.4773 35.0707 53.44 35.0426 53.412 35.0238C53.3839 35.0051 53.3466 34.9863 53.2722 34.9863C53.179 34.9863 53.151 35.0051 53.1324 35.0146C53.1045 35.0332 53.0673 35.0615 53.0206 35.1551C52.9739 35.2396 52.9553 35.3428 52.9553 35.4836C52.9553 35.6244 52.9739 35.7275 53.0206 35.8119C53.0673 35.8963 53.1045 35.9338 53.1324 35.9527C53.1418 35.9621 53.179 35.9808 53.2722 35.9808C53.3466 35.9808 53.3747 35.9621 53.4025 35.9433C53.4306 35.9246 53.4678 35.8963 53.5145 35.8119C53.5609 35.7275 53.5796 35.615 53.5796 35.4836C53.5796 35.3428 53.5609 35.2304 53.5145 35.1459ZM53.5145 35.1459C53.4773 35.0707 53.44 35.0426 53.412 35.0238C53.3839 35.0051 53.3466 34.9863 53.2722 34.9863C53.179 34.9863 53.151 35.0051 53.1324 35.0146C53.1045 35.0332 53.0673 35.0615 53.0206 35.1551C52.9739 35.2396 52.9553 35.3428 52.9553 35.4836C52.9553 35.6244 52.9739 35.7275 53.0206 35.8119C53.0673 35.8963 53.1045 35.9338 53.1324 35.9527C53.1418 35.9621 53.179 35.9808 53.2722 35.9808C53.3466 35.9808 53.3747 35.9621 53.4025 35.9433C53.4306 35.9246 53.4678 35.8963 53.5145 35.8119C53.5609 35.7275 53.5796 35.615 53.5796 35.4836C53.5796 35.3428 53.5609 35.2304 53.5145 35.1459ZM53.5145 35.1459C53.4773 35.0707 53.44 35.0426 53.412 35.0238C53.3839 35.0051 53.3466 34.9863 53.2722 34.9863C53.179 34.9863 53.151 35.0051 53.1324 35.0146C53.1045 35.0332 53.0673 35.0615 53.0206 35.1551C52.9739 35.2396 52.9553 35.3428 52.9553 35.4836C52.9553 35.6244 52.9739 35.7275 53.0206 35.8119C53.0673 35.8963 53.1045 35.9338 53.1324 35.9527C53.1418 35.9621 53.179 35.9808 53.2722 35.9808C53.3466 35.9808 53.3747 35.9621 53.4025 35.9433C53.4306 35.9246 53.4678 35.8963 53.5145 35.8119C53.5609 35.7275 53.5796 35.615 53.5796 35.4836C53.5796 35.3428 53.5609 35.2304 53.5145 35.1459ZM53.5145 35.1459C53.4773 35.0707 53.44 35.0426 53.412 35.0238C53.3839 35.0051 53.3466 34.9863 53.2722 34.9863C53.179 34.9863 53.151 35.0051 53.1324 35.0146C53.1045 35.0332 53.0673 35.0615 53.0206 35.1551C52.9739 35.2396 52.9553 35.3428 52.9553 35.4836C52.9553 35.6244 52.9739 35.7275 53.0206 35.8119C53.0673 35.8963 53.1045 35.9338 53.1324 35.9527C53.1418 35.9621 53.179 35.9808 53.2722 35.9808C53.3466 35.9808 53.3747 35.9621 53.4025 35.9433C53.4306 35.9246 53.4678 35.8963 53.5145 35.8119C53.5609 35.7275 53.5796 35.615 53.5796 35.4836C53.5796 35.3428 53.5609 35.2304 53.5145 35.1459ZM53.5145 35.1459C53.4773 35.0707 53.44 35.0426 53.412 35.0238C53.3839 35.0051 53.3466 34.9863 53.2722 34.9863C53.179 34.9863 53.151 35.0051 53.1324 35.0146C53.1045 35.0332 53.0673 35.0615 53.0206 35.1551C52.9739 35.2396 52.9553 35.3428 52.9553 35.4836C52.9553 35.6244 52.9739 35.7275 53.0206 35.8119C53.0673 35.8963 53.1045 35.9338 53.1324 35.9527C53.1418 35.9621 53.179 35.9808 53.2722 35.9808C53.3466 35.9808 53.3747 35.9621 53.4025 35.9433C53.4306 35.9246 53.4678 35.8963 53.5145 35.8119C53.5609 35.7275 53.5796 35.615 53.5796 35.4836C53.5796 35.3428 53.5609 35.2304 53.5145 35.1459ZM53.5145 35.1459C53.4773 35.0707 53.44 35.0426 53.412 35.0238C53.3839 35.0051 53.3466 34.9863 53.2722 34.9863C53.179 34.9863 53.151 35.0051 53.1324 35.0146C53.1045 35.0332 53.0673 35.0615 53.0206 35.1551C52.9739 35.2396 52.9553 35.3428 52.9553 35.4836C52.9553 35.6244 52.9739 35.7275 53.0206 35.8119C53.0673 35.8963 53.1045 35.9338 53.1324 35.9527C53.1418 35.9621 53.179 35.9808 53.2722 35.9808C53.3466 35.9808 53.3747 35.9621 53.4025 35.9433C53.4306 35.9246 53.4678 35.8963 53.5145 35.8119C53.5609 35.7275 53.5796 35.615 53.5796 35.4836C53.5796 35.3428 53.5609 35.2304 53.5145 35.1459ZM53.5145 35.1459C53.4773 35.0707 53.44 35.0426 53.412 35.0238C53.3839 35.0051 53.3466 34.9863 53.2722 34.9863C53.179 34.9863 53.151 35.0051 53.1324 35.0146C53.1045 35.0332 53.0673 35.0615 53.0206 35.1551C52.9739 35.2396 52.9553 35.3428 52.9553 35.4836C52.9553 35.6244 52.9739 35.7275 53.0206 35.8119C53.0673 35.8963 53.1045 35.9338 53.1324 35.9527C53.1418 35.9621 53.179 35.9808 53.2722 35.9808C53.3466 35.9808 53.3747 35.9621 53.4025 35.9433C53.4306 35.9246 53.4678 35.8963 53.5145 35.8119C53.5609 35.7275 53.5796 35.615 53.5796 35.4836C53.5796 35.3428 53.5609 35.2304 53.5145 35.1459ZM53.5145 35.1459C53.4773 35.0707 53.44 35.0426 53.412 35.0238C53.3839 35.0051 53.3466 34.9863 53.2722 34.9863C53.179 34.9863 53.151 35.0051 53.1324 35.0146C53.1045 35.0332 53.0673 35.0615 53.0206 35.1551C52.9739 35.2396 52.9553 35.3428 52.9553 35.4836C52.9553 35.6244 52.9739 35.7275 53.0206 35.8119C53.0673 35.8963 53.1045 35.9338 53.1324 35.9527C53.1418 35.9621 53.179 35.9808 53.2722 35.9808C53.3466 35.9808 53.3747 35.9621 53.4025 35.9433C53.4306 35.9246 53.4678 35.8963 53.5145 35.8119C53.5609 35.7275 53.5796 35.615 53.5796 35.4836C53.5796 35.3428 53.5609 35.2304 53.5145 35.1459ZM53.5145 35.1459C53.4773 35.0707 53.44 35.0426 53.412 35.0238C53.3839 35.0051 53.3466 34.9863 53.2722 34.9863C53.179 34.9863 53.151 35.0051 53.1324 35.0146C53.1045 35.0332 53.0673 35.0615 53.0206 35.1551C52.9739 35.2396 52.9553 35.3428 52.9553 35.4836C52.9553 35.6244 52.9739 35.7275 53.0206 35.8119C53.0673 35.8963 53.1045 35.9338 53.1324 35.9527C53.1418 35.9621 53.179 35.9808 53.2722 35.9808C53.3466 35.9808 53.3747 35.9621 53.4025 35.9433C53.4306 35.9246 53.4678 35.8963 53.5145 35.8119C53.5609 35.7275 53.5796 35.615 53.5796 35.4836C53.5796 35.3428 53.5609 35.2304 53.5145 35.1459ZM53.5145 35.1459C53.4773 35.0707 53.44 35.0426 53.412 35.0238C53.3839 35.0051 53.3466 34.9863 53.2722 34.9863C53.179 34.9863 53.151 35.0051 53.1324 35.0146C53.1045 35.0332 53.0673 35.0615 53.0206 35.1551C52.9739 35.2396 52.9553 35.3428 52.9553 35.4836C52.9553 35.6244 52.9739 35.7275 53.0206 35.8119C53.0673 35.8963 53.1045 35.9338 53.1324 35.9527C53.1418 35.9621 53.179 35.9808 53.2722 35.9808C53.3466 35.9808 53.3747 35.9621 53.4025 35.9433C53.4306 35.9246 53.4678 35.8963 53.5145 35.8119C53.5609 35.7275 53.5796 35.615 53.5796 35.4836C53.5796 35.3428 53.5609 35.2304 53.5145 35.1459ZM53.5145 35.1459C53.4773 35.0707 53.44 35.0426 53.412 35.0238C53.3839 35.0051 53.3466 34.9863 53.2722 34.9863C53.179 34.9863 53.151 35.0051 53.1324 35.0146C53.1045 35.0332 53.0673 35.0615 53.0206 35.1551C52.9739 35.2396 52.9553 35.3428 52.9553 35.4836C52.9553 35.6244 52.9739 35.7275 53.0206 35.8119C53.0673 35.8963 53.1045 35.9338 53.1324 35.9527C53.1418 35.9621 53.179 35.9808 53.2722 35.9808C53.3466 35.9808 53.3747 35.9621 53.4025 35.9433C53.4306 35.9246 53.4678 35.8963 53.5145 35.8119C53.5609 35.7275 53.5796 35.615 53.5796 35.4836C53.5796 35.3428 53.5609 35.2304 53.5145 35.1459ZM53.5145 35.1459C53.4773 35.0707 53.44 35.0426 53.412 35.0238C53.3839 35.0051 53.3466 34.9863 53.2722 34.9863C53.179 34.9863 53.151 35.0051 53.1324 35.0146C53.1045 35.0332 53.0673 35.0615 53.0206 35.1551C52.9739 35.2396 52.9553 35.3428 52.9553 35.4836C52.9553 35.6244 52.9739 35.7275 53.0206 35.8119C53.0673 35.8963 53.1045 35.9338 53.1324 35.9527C53.1418 35.9621 53.179 35.9808 53.2722 35.9808C53.3466 35.9808 53.3747 35.9621 53.4025 35.9433C53.4306 35.9246 53.4678 35.8963 53.5145 35.8119C53.5609 35.7275 53.5796 35.615 53.5796 35.4836C53.5796 35.3428 53.5609 35.2304 53.5145 35.1459ZM53.5145 35.1459C53.4773 35.0707 53.44 35.0426 53.412 35.0238C53.3839 35.0051 53.3466 34.9863 53.2722 34.9863C53.179 34.9863 53.151 35.0051 53.1324 35.0146C53.1045 35.0332 53.0673 35.0615 53.0206 35.1551C52.9739 35.2396 52.9553 35.3428 52.9553 35.4836C52.9553 35.6244 52.9739 35.7275 53.0206 35.8119C53.0673 35.8963 53.1045 35.9338 53.1324 35.9527C53.1418 35.9621 53.179 35.9808 53.2722 35.9808C53.3466 35.9808 53.3747 35.9621 53.4025 35.9433C53.4306 35.9246 53.4678 35.8963 53.5145 35.8119C53.5609 35.7275 53.5796 35.615 53.5796 35.4836C53.5796 35.3428 53.5609 35.2304 53.5145 35.1459ZM53.5145 35.1459C53.4773 35.0707 53.44 35.0426 53.412 35.0238C53.3839 35.0051 53.3466 34.9863 53.2722 34.9863C53.179 34.9863 53.151 35.0051 53.1324 35.0146C53.1045 35.0332 53.0673 35.0615 53.0206 35.1551C52.9739 35.2396 52.9553 35.3428 52.9553 35.4836C52.9553 35.6244 52.9739 35.7275 53.0206 35.8119C53.0673 35.8963 53.1045 35.9338 53.1324 35.9527C53.1418 35.9621 53.179 35.9808 53.2722 35.9808C53.3466 35.9808 53.3747 35.9621 53.4025 35.9433C53.4306 35.9246 53.4678 35.8963 53.5145 35.8119C53.5609 35.7275 53.5796 35.615 53.5796 35.4836C53.5796 35.3428 53.5609 35.2304 53.5145 35.1459ZM53.5145 35.1459C53.4773 35.0707 53.44 35.0426 53.412 35.0238C53.3839 35.0051 53.3466 34.9863 53.2722 34.9863C53.179 34.9863 53.151 35.0051 53.1324 35.0146C53.1045 35.0332 53.0673 35.0615 53.0206 35.1551C52.9739 35.2396 52.9553 35.3428 52.9553 35.4836C52.9553 35.6244 52.9739 35.7275 53.0206 35.8119C53.0673 35.8963 53.1045 35.9338 53.1324 35.9527C53.1418 35.9621 53.179 35.9808 53.2722 35.9808C53.3466 35.9808 53.3747 35.9621 53.4025 35.9433C53.4306 35.9246 53.4678 35.8963 53.5145 35.8119C53.5609 35.7275 53.5796 35.615 53.5796 35.4836C53.5796 35.3428 53.5609 35.2304 53.5145 35.1459ZM53.5145 35.1459C53.4773 35.0707 53.44 35.0426 53.412 35.0238C53.3839 35.0051 53.3466 34.9863 53.2722 34.9863C53.179 34.9863 53.151 35.0051 53.1324 35.0146C53.1045 35.0332 53.0673 35.0615 53.0206 35.1551C52.9739 35.2396 52.9553 35.3428 52.9553 35.4836C52.9553 35.6244 52.9739 35.7275 53.0206 35.8119C53.0673 35.8963 53.1045 35.9338 53.1324 35.9527C53.1418 35.9621 53.179 35.9808 53.2722 35.9808C53.3466 35.9808 53.3747 35.9621 53.4025 35.9433C53.4306 35.9246 53.4678 35.8963 53.5145 35.8119C53.5609 35.7275 53.5796 35.615 53.5796 35.4836C53.5796 35.3428 53.5609 35.2304 53.5145 35.1459ZM53.5145 35.1459C53.4773 35.0707 53.44 35.0426 53.412 35.0238C53.3839 35.0051 53.3466 34.9863 53.2722 34.9863C53.179 34.9863 53.151 35.0051 53.1324 35.0146C53.1045 35.0332 53.0673 35.0615 53.0206 35.1551C52.9739 35.2396 52.9553 35.3428 52.9553 35.4836C52.9553 35.6244 52.9739 35.7275 53.0206 35.8119C53.0673 35.8963 53.1045 35.9338 53.1324 35.9527C53.1418 35.9621 53.179 35.9808 53.2722 35.9808C53.3466 35.9808 53.3747 35.9621 53.4025 35.9433C53.4306 35.9246 53.4678 35.8963 53.5145 35.8119C53.5609 35.7275 53.5796 35.615 53.5796 35.4836C53.5796 35.3428 53.5609 35.2304 53.5145 35.1459ZM53.5145 35.1459C53.4773 35.0707 53.44 35.0426 53.412 35.0238C53.3839 35.0051 53.3466 34.9863 53.2722 34.9863C53.179 34.9863 53.151 35.0051 53.1324 35.0146C53.1045 35.0332 53.0673 35.0615 53.0206 35.1551C52.9739 35.2396 52.9553 35.3428 52.9553 35.4836C52.9553 35.6244 52.9739 35.7275 53.0206 35.8119C53.0673 35.8963 53.1045 35.9338 53.1324 35.9527C53.1418 35.9621 53.179 35.9808 53.2722 35.9808C53.3466 35.9808 53.3747 35.9621 53.4025 35.9433C53.4306 35.9246 53.4678 35.8963 53.5145 35.8119C53.5609 35.7275 53.5796 35.615 53.5796 35.4836C53.5796 35.3428 53.5609 35.2304 53.5145 35.1459ZM53.5145 35.1459C53.4773 35.0707 53.44 35.0426 53.412 35.0238C53.3839 35.0051 53.3466 34.9863 53.2722 34.9863C53.179 34.9863 53.151 35.0051 53.1324 35.0146C53.1045 35.0332 53.0673 35.0615 53.0206 35.1551C52.9739 35.2396 52.9553 35.3428 52.9553 35.4836C52.9553 35.6244 52.9739 35.7275 53.0206 35.8119C53.0673 35.8963 53.1045 35.9338 53.1324 35.9527C53.1418 35.9621 53.179 35.9808 53.2722 35.9808C53.3466 35.9808 53.3747 35.9621 53.4025 35.9433C53.4306 35.9246 53.4678 35.8963 53.5145 35.8119C53.5609 35.7275 53.5796 35.615 53.5796 35.4836C53.5796 35.3428 53.5609 35.2304 53.5145 35.1459ZM53.5145 35.1459C53.4773 35.0707 53.44 35.0426 53.412 35.0238C53.3839 35.0051 53.3466 34.9863 53.2722 34.9863C53.179 34.9863 53.151 35.0051 53.1324 35.0146C53.1045 35.0332 53.0673 35.0615 53.0206 35.1551C52.9739 35.2396 52.9553 35.3428 52.9553 35.4836C52.9553 35.6244 52.9739 35.7275 53.0206 35.8119C53.0673 35.8963 53.1045 35.9338 53.1324 35.9527C53.1418 35.9621 53.179 35.9808 53.2722 35.9808C53.3466 35.9808 53.3747 35.9621 53.4025 35.9433C53.4306 35.9246 53.4678 35.8963 53.5145 35.8119C53.5609 35.7275 53.5796 35.615 53.5796 35.4836C53.5796 35.3428 53.5609 35.2304 53.5145 35.1459ZM53.5145 35.1459C53.4773 35.0707 53.44 35.0426 53.412 35.0238C53.3839 35.0051 53.3466 34.9863 53.2722 34.9863C53.179 34.9863 53.151 35.0051 53.1324 35.0146C53.1045 35.0332 53.0673 35.0615 53.0206 35.1551C52.9739 35.2396 52.9553 35.3428 52.9553 35.4836C52.9553 35.6244 52.9739 35.7275 53.0206 35.8119C53.0673 35.8963 53.1045 35.9338 53.1324 35.9527C53.1418 35.9621 53.179 35.9808 53.2722 35.9808C53.3466 35.9808 53.3747 35.9621 53.4025 35.9433C53.4306 35.9246 53.4678 35.8963 53.5145 35.8119C53.5609 35.7275 53.5796 35.615 53.5796 35.4836C53.5796 35.3428 53.5609 35.2304 53.5145 35.1459ZM53.5145 35.1459C53.4773 35.0707 53.44 35.0426 53.412 35.0238C53.3839 35.0051 53.3466 34.9863 53.2722 34.9863C53.179 34.9863 53.151 35.0051 53.1324 35.0146C53.1045 35.0332 53.0673 35.0615 53.0206 35.1551C52.9739 35.2396 52.9553 35.3428 52.9553 35.4836C52.9553 35.6244 52.9739 35.7275 53.0206 35.8119C53.0673 35.8963 53.1045 35.9338 53.1324 35.9527C53.1418 35.9621 53.179 35.9808 53.2722 35.9808C53.3466 35.9808 53.3747 35.9621 53.4025 35.9433C53.4306 35.9246 53.4678 35.8963 53.5145 35.8119C53.5609 35.7275 53.5796 35.615 53.5796 35.4836C53.5796 35.3428 53.5609 35.2304 53.5145 35.1459ZM53.5145 35.1459C53.4773 35.0707 53.44 35.0426 53.412 35.0238C53.3839 35.0051 53.3466 34.9863 53.2722 34.9863C53.179 34.9863 53.151 35.0051 53.1324 35.0146C53.1045 35.0332 53.0673 35.0615 53.0206 35.1551C52.9739 35.2396 52.9553 35.3428 52.9553 35.4836C52.9553 35.6244 52.9739 35.7275 53.0206 35.8119C53.0673 35.8963 53.1045 35.9338 53.1324 35.9527C53.1418 35.9621 53.179 35.9808 53.2722 35.9808C53.3466 35.9808 53.3747 35.9621 53.4025 35.9433C53.4306 35.9246 53.4678 35.8963 53.5145 35.8119C53.5609 35.7275 53.5796 35.615 53.5796 35.4836C53.5796 35.3428 53.5609 35.2304 53.5145 35.1459ZM53.5145 35.1459C53.4773 35.0707 53.44 35.0426 53.412 35.0238C53.3839 35.0051 53.3466 34.9863 53.2722 34.9863C53.179 34.9863 53.151 35.0051 53.1324 35.0146C53.1045 35.0332 53.0673 35.0615 53.0206 35.1551C52.9739 35.2396 52.9553 35.3428 52.9553 35.4836C52.9553 35.6244 52.9739 35.7275 53.0206 35.8119C53.0673 35.8963 53.1045 35.9338 53.1324 35.9527C53.1418 35.9621 53.179 35.9808 53.2722 35.9808C53.3466 35.9808 53.3747 35.9621 53.4025 35.9433C53.4306 35.9246 53.4678 35.8963 53.5145 35.8119C53.5609 35.7275 53.5796 35.615 53.5796 35.4836C53.5796 35.3428 53.5609 35.2304 53.5145 35.1459ZM53.5145 35.1459C53.4773 35.0707 53.44 35.0426 53.412 35.0238C53.3839 35.0051 53.3466 34.9863 53.2722 34.9863C53.179 34.9863 53.151 35.0051 53.1324 35.0146C53.1045 35.0332 53.0673 35.0615 53.0206 35.1551C52.9739 35.2396 52.9553 35.3428 52.9553 35.4836C52.9553 35.6244 52.9739 35.7275 53.0206 35.8119C53.0673 35.8963 53.1045 35.9338 53.1324 35.9527C53.1418 35.9621 53.179 35.9808 53.2722 35.9808C53.3466 35.9808 53.3747 35.9621 53.4025 35.9433C53.4306 35.9246 53.4678 35.8963 53.5145 35.8119C53.5609 35.7275 53.5796 35.615 53.5796 35.4836C53.5796 35.3428 53.5609 35.2304 53.5145 35.1459ZM53.5145 35.1459C53.4773 35.0707 53.44 35.0426 53.412 35.0238C53.3839 35.0051 53.3466 34.9863 53.2722 34.9863C53.179 34.9863 53.151 35.0051 53.1324 35.0146C53.1045 35.0332 53.0673 35.0615 53.0206 35.1551C52.9739 35.2396 52.9553 35.3428 52.9553 35.4836C52.9553 35.6244 52.9739 35.7275 53.0206 35.8119C53.0673 35.8963 53.1045 35.9338 53.1324 35.9527C53.1418 35.9621 53.179 35.9808 53.2722 35.9808C53.3466 35.9808 53.3747 35.9621 53.4025 35.9433C53.4306 35.9246 53.4678 35.8963 53.5145 35.8119C53.5609 35.7275 53.5796 35.615 53.5796 35.4836C53.5796 35.3428 53.5609 35.2304 53.5145 35.1459ZM53.5145 35.1459C53.4773 35.0707 53.44 35.0426 53.412 35.0238C53.3839 35.0051 53.3466 34.9863 53.2722 34.9863C53.179 34.9863 53.151 35.0051 53.1324 35.0146C53.1045 35.0332 53.0673 35.0615 53.0206 35.1551C52.9739 35.2396 52.9553 35.3428 52.9553 35.4836C52.9553 35.6244 52.9739 35.7275 53.0206 35.8119C53.0673 35.8963 53.1045 35.9338 53.1324 35.9527C53.1418 35.9621 53.179 35.9808 53.2722 35.9808C53.3466 35.9808 53.3747 35.9621 53.4025 35.9433C53.4306 35.9246 53.4678 35.8963 53.5145 35.8119C53.5609 35.7275 53.5796 35.615 53.5796 35.4836C53.5796 35.3428 53.5609 35.2304 53.5145 35.1459ZM53.5145 35.1459C53.4773 35.0707 53.44 35.0426 53.412 35.0238C53.3839 35.0051 53.3466 34.9863 53.2722 34.9863C53.179 34.9863 53.151 35.0051 53.1324 35.0146C53.1045 35.0332 53.0673 35.0615 53.0206 35.1551C52.9739 35.2396 52.9553 35.3428 52.9553 35.4836C52.9553 35.6244 52.9739 35.7275 53.0206 35.8119C53.0673 35.8963 53.1045 35.9338 53.1324 35.9527C53.1418 35.9621 53.179 35.9808 53.2722 35.9808C53.3466 35.9808 53.3747 35.9621 53.4025 35.9433C53.4306 35.9246 53.4678 35.8963 53.5145 35.8119C53.5609 35.7275 53.5796 35.615 53.5796 35.4836C53.5796 35.3428 53.5609 35.2304 53.5145 35.1459ZM53.5145 35.1459C53.4773 35.0707 53.44 35.0426 53.412 35.0238C53.3839 35.0051 53.3466 34.9863 53.2722 34.9863C53.179 34.9863 53.151 35.0051 53.1324 35.0146C53.1045 35.0332 53.0673 35.0615 53.0206 35.1551C52.9739 35.2396 52.9553 35.3428 52.9553 35.4836C52.9553 35.6244 52.9739 35.7275 53.0206 35.8119C53.0673 35.8963 53.1045 35.9338 53.1324 35.9527C53.1418 35.9621 53.179 35.9808 53.2722 35.9808C53.3466 35.9808 53.3747 35.9621 53.4025 35.9433C53.4306 35.9246 53.4678 35.8963 53.5145 35.8119C53.5609 35.7275 53.5796 35.615 53.5796 35.4836C53.5796 35.3428 53.5609 35.2304 53.5145 35.1459ZM53.5145 35.1459C53.4773 35.0707 53.44 35.0426 53.412 35.0238C53.3839 35.0051 53.3466 34.9863 53.2722 34.9863C53.179 34.9863 53.151 35.0051 53.1324 35.0146C53.1045 35.0332 53.0673 35.0615 53.0206 35.1551C52.9739 35.2396 52.9553 35.3428 52.9553 35.4836C52.9553 35.6244 52.9739 35.7275 53.0206 35.8119C53.0673 35.8963 53.1045 35.9338 53.1324 35.9527C53.1418 35.9621 53.179 35.9808 53.2722 35.9808C53.3466 35.9808 53.3747 35.9621 53.4025 35.9433C53.4306 35.9246 53.4678 35.8963 53.5145 35.8119C53.5609 35.7275 53.5796 35.615 53.5796 35.4836C53.5796 35.3428 53.5609 35.2304 53.5145 35.1459ZM63.1954 24.4034C62.1423 19.8062 58.7789 16.4475 54.7908 16.4475C50.7379 16.4475 47.3276 19.9188 46.3401 24.6286C46.1536 25.5293 46.051 26.4769 46.051 27.4526C46.051 28.4283 46.1536 29.3759 46.3401 30.2766C46.8059 32.4814 47.7934 34.4142 49.1353 35.8402C49.1259 35.7275 49.1167 35.6056 49.1167 35.4931C49.1167 34.9582 49.2098 34.4517 49.3868 33.9732C49.5731 33.4852 49.8527 33.0442 50.2159 32.669C50.5795 32.2843 51.0267 31.9841 51.5484 31.7683C52.0609 31.5525 52.6479 31.4493 53.2722 31.4493C53.9058 31.4493 54.4834 31.5619 54.9959 31.7777C55.5084 31.9935 55.9557 32.2937 56.3189 32.669V32.5564C56.3189 32.0029 56.7661 31.5431 57.3253 31.5431H58.9466C59.1889 31.5431 59.4124 31.6276 59.5802 31.7683C59.7198 31.712 59.8596 31.6651 59.9994 31.6182C60.3815 31.5056 60.8007 31.4493 61.2387 31.4493C61.7977 31.4493 62.2821 31.5619 62.6643 31.7871C62.7107 31.8152 62.7574 31.8434 62.8041 31.8715C62.8133 31.8528 62.8227 31.834 62.8227 31.8059V30.5768C62.8227 30.2766 62.9625 29.9951 63.1954 29.8169C63.2418 29.7793 63.2977 29.7418 63.3538 29.7137C63.4748 28.9913 63.5401 28.2407 63.5401 27.462C63.5306 26.3924 63.4189 25.3698 63.1954 24.4034ZM54.7908 30.1265C54.2227 30.1265 53.766 28.9256 53.766 27.4432C53.766 25.9608 54.2227 24.76 54.7908 24.76C55.3592 24.76 55.8159 25.9608 55.8159 27.4432C55.8159 28.9256 55.3592 30.1265 54.7908 30.1265ZM53.5145 35.1459C53.4773 35.0707 53.44 35.0426 53.412 35.0238C53.3839 35.0051 53.3466 34.9863 53.2722 34.9863C53.179 34.9863 53.151 35.0051 53.1324 35.0146C53.1045 35.0332 53.0673 35.0615 53.0206 35.1551C52.9739 35.2396 52.9553 35.3428 52.9553 35.4836C52.9553 35.6244 52.9739 35.7275 53.0206 35.8119C53.0673 35.8963 53.1045 35.9338 53.1324 35.9527C53.1418 35.9621 53.179 35.9808 53.2722 35.9808C53.3466 35.9808 53.3747 35.9621 53.4025 35.9433C53.4306 35.9246 53.4678 35.8963 53.5145 35.8119C53.5609 35.7275 53.5796 35.615 53.5796 35.4836C53.5796 35.3428 53.5609 35.2304 53.5145 35.1459ZM53.5145 35.1459C53.4773 35.0707 53.44 35.0426 53.412 35.0238C53.3839 35.0051 53.3466 34.9863 53.2722 34.9863C53.179 34.9863 53.151 35.0051 53.1324 35.0146C53.1045 35.0332 53.0673 35.0615 53.0206 35.1551C52.9739 35.2396 52.9553 35.3428 52.9553 35.4836C52.9553 35.6244 52.9739 35.7275 53.0206 35.8119C53.0673 35.8963 53.1045 35.9338 53.1324 35.9527C53.1418 35.9621 53.179 35.9808 53.2722 35.9808C53.3466 35.9808 53.3747 35.9621 53.4025 35.9433C53.4306 35.9246 53.4678 35.8963 53.5145 35.8119C53.5609 35.7275 53.5796 35.615 53.5796 35.4836C53.5796 35.3428 53.5609 35.2304 53.5145 35.1459Z" fill="#ED1C29"/>
<path d="M69.1399 17.0104C70.1689 17.0104 71.0033 15.7083 71.0033 14.102C71.0033 12.4957 70.1689 11.1936 69.1399 11.1936C68.1107 11.1936 67.2764 12.4957 67.2764 14.102C67.2764 15.7083 68.1107 17.0104 69.1399 17.0104Z" fill="#ED1C29"/>
<path d="M113.668 30.3329C112.802 31.3462 111.367 32.0123 109.736 32.0123C107.09 32.0123 104.947 30.2578 104.947 28.0906H113.948C113.948 28.0531 113.957 28.0155 113.957 27.978C114.069 26.3174 113.911 24.76 113.538 23.3527C113.165 21.9547 112.588 20.7069 111.842 19.6749C110.444 17.7328 108.469 16.5132 106.252 16.363H106.242C106.093 16.3537 105.944 16.3443 105.795 16.3443C104.314 16.3443 102.934 16.8134 101.742 17.639C99.3752 19.2809 97.7075 22.3394 97.344 25.989C97.2976 26.4956 97.2695 27.0116 97.2695 27.537C97.2695 34.0107 100.996 38.8706 105.814 38.8706C105.944 38.8706 106.084 38.8706 106.214 38.8612C106.233 38.8612 106.242 38.8612 106.261 38.8612C106.41 38.8706 106.568 38.8798 106.718 38.8798C106.848 38.8798 106.988 38.8798 107.118 38.8706C110.594 38.6829 113.035 36.0091 114.181 32.078V29.6011C114.032 29.8638 113.864 30.1077 113.668 30.3329ZM106.27 21.936C106.997 21.936 107.593 23.0337 107.593 24.3847C107.593 24.4597 107.593 24.5348 107.584 24.6005H104.947C104.947 24.5348 104.938 24.4597 104.938 24.3847C104.947 23.0337 105.543 21.936 106.27 21.936Z" fill="#ED1C29"/>
<path d="M103.317 21.4012C103.317 24.1126 101.323 26.2986 98.8629 26.2986C97.4279 26.2986 96.1513 25.5574 95.3409 24.4034V38.4013H87.5327V16.6914H95.3409V18.3989C96.1513 17.245 97.4279 16.5038 98.8629 16.5038C101.323 16.4944 103.317 18.6898 103.317 21.4012Z" fill="#ED1C29"/>
<path d="M71.0032 16.6914V30.5581C71.0032 30.0045 70.5188 29.5448 69.9226 29.5448H67.9751C67.3789 29.5448 66.8944 29.9951 66.8944 30.5581C66.8944 30.0045 66.4097 29.5448 65.8227 29.5448H63.9033C63.7076 29.5448 63.5122 29.5917 63.3537 29.6855C63.2976 29.7137 63.2512 29.7512 63.1953 29.7887V16.6914C64.3785 17.3857 65.7018 17.7703 67.0993 17.7703C68.497 17.7797 69.82 17.3857 71.0032 16.6914Z" fill="#ED1C29"/>
<path d="M56.9061 15.9503C56.226 15.7626 55.5272 15.6594 54.7912 15.6594C54.0644 15.6594 53.3562 15.7626 52.6853 15.9503L54.7912 12.6009L56.9061 15.9503Z" fill="#ED1C29"/>
<path d="M59.6549 13.5485C59.6455 13.6141 59.6269 13.7079 59.5896 13.8205V13.8299C59.4312 14.3178 58.9654 15.1434 57.5865 15.9596C57.6143 15.9127 58.1082 15.0308 57.9779 14.6649C57.4095 14.5148 56.9995 13.9894 56.9995 13.3702C56.9995 12.629 57.5957 12.0286 58.3317 12.0286C59.0679 12.0286 59.6641 12.629 59.6641 13.3702C59.6641 13.3702 59.6736 13.4359 59.6549 13.5485Z" fill="#ED1C29"/>
<path d="M107.593 13.5485C107.584 13.6141 107.565 13.7079 107.528 13.8205V13.8299C107.369 14.3178 106.904 15.1434 105.525 15.9596C105.553 15.9127 106.046 15.0308 105.916 14.6649C105.348 14.5148 104.938 13.9894 104.938 13.3702C104.938 12.629 105.534 12.0286 106.27 12.0286C107.006 12.0286 107.603 12.629 107.603 13.3702C107.603 13.3702 107.612 13.4359 107.593 13.5485Z" fill="#ED1C29"/>
<path opacity="0.53" d="M59.6549 13.7079C59.6455 13.802 59.6177 13.896 59.5896 13.9807C59.6268 13.8678 59.6455 13.7738 59.6549 13.7079Z" fill="white"/>
<path d="M69.8854 30.5674H68.0872V32.1248H69.8854V30.5674Z" fill="#1B75BB"/>
<path d="M56.3286 34.6205C56.3005 34.5172 56.2727 34.4234 56.226 34.3295C56.0862 33.9637 55.8814 33.6447 55.6112 33.3633C55.3408 33.0817 55.0148 32.8568 54.6234 32.6971C54.2321 32.5377 53.7849 32.4532 53.2818 32.4532C52.7787 32.4532 52.3313 32.5377 51.9399 32.6971C51.5486 32.866 51.2134 33.0817 50.943 33.3633C50.6728 33.6447 50.468 33.9637 50.3282 34.3295C50.1884 34.6955 50.123 35.0801 50.123 35.4931C50.123 35.8963 50.1884 36.281 50.3282 36.6376C50.384 36.7878 50.4493 36.9283 50.533 37.0597C50.645 37.2568 50.7845 37.4351 50.943 37.604C51.2134 37.8853 51.5394 38.1105 51.9399 38.2702C52.3313 38.4296 52.7787 38.514 53.2818 38.514C53.5987 38.514 53.8966 38.4765 54.1668 38.4202C54.3252 38.3827 54.4744 38.3358 54.6234 38.2702C55.0148 38.1011 55.3408 37.8853 55.6112 37.604C55.8814 37.3224 56.0862 36.9941 56.226 36.6376C56.2633 36.5437 56.3005 36.4406 56.3286 36.3468C56.4031 36.0746 56.4498 35.7839 56.4498 35.4931C56.4403 35.1834 56.4031 34.8924 56.3286 34.6205ZM54.4186 36.2624C54.3066 36.4876 54.1482 36.6659 53.9525 36.7972C53.7568 36.9283 53.5334 36.9847 53.2818 36.9847C53.0303 36.9847 52.8065 36.9191 52.6109 36.7972C52.4152 36.675 52.2568 36.4968 52.145 36.2718C52.0239 36.0466 51.968 35.7839 51.968 35.4837C51.968 35.1834 52.0239 34.9207 52.145 34.6955C52.2662 34.4703 52.4152 34.292 52.6109 34.1701C52.8065 34.0482 53.0303 33.9826 53.2818 33.9826C53.5334 33.9826 53.7476 34.0482 53.9525 34.1701C54.1482 34.292 54.3066 34.4703 54.4186 34.6955C54.5303 34.9207 54.5862 35.1834 54.5862 35.4837C54.5862 35.7744 54.5303 36.0371 54.4186 36.2624Z" fill="#1B75BB"/>
<path d="M63.0185 34.658V38.4013H61.2202V35.1271C61.2202 35.0521 61.2202 34.9771 61.2108 34.9113C61.1921 34.6391 61.1176 34.4234 61.0059 34.2828C60.8567 34.1137 60.6704 34.0201 60.4281 34.0201C60.2605 34.0201 60.0926 34.067 59.925 34.1515C59.748 34.2359 59.599 34.3578 59.4592 34.5078C59.3194 34.658 59.2168 34.8363 59.1423 35.0332V38.3921H57.3254V32.5189H58.9467V33.5227C59.0957 33.2883 59.2821 33.0912 59.5056 32.9318C59.7293 32.7629 59.9903 32.6409 60.2791 32.5564C60.5679 32.472 60.8939 32.4251 61.2294 32.4251C61.6115 32.4251 61.9189 32.4908 62.1613 32.6315C62.2544 32.6878 62.3383 32.744 62.4128 32.8098C62.534 32.9129 62.6271 33.0348 62.7016 33.1662C62.7483 33.2506 62.7856 33.335 62.8228 33.4289C62.8787 33.5791 62.9253 33.7291 62.9532 33.8887C62.9904 34.1606 63.0185 34.4142 63.0185 34.658Z" fill="#1B75BB"/>
<path d="M67.2113 38.195C67.109 38.2419 67.0064 38.2794 66.8947 38.3169C66.7922 38.3546 66.6896 38.3827 66.587 38.4013C66.5406 38.4107 66.4845 38.4202 66.4381 38.4391C66.1493 38.4952 65.8697 38.5235 65.6181 38.5235C65.3385 38.5235 65.0962 38.486 64.8819 38.4013C64.7048 38.3358 64.5559 38.2513 64.4255 38.1294C64.1926 37.9136 64.0528 37.6134 64.0155 37.238C64.0061 37.163 64.0061 37.088 64.0061 37.013V30.5674H65.8044V36.4123C65.8044 36.647 65.8511 36.8158 65.9442 36.9191C66.0373 37.0222 66.1585 37.0691 66.3263 37.0691C66.4381 37.0691 66.5498 37.0505 66.671 37.0222C66.7549 37.0036 66.8294 36.9753 66.8947 36.9472C66.9225 36.9378 66.9506 36.9191 66.9784 36.9097L67.2113 38.195Z" fill="#1B75BB"/>
<path d="M69.8854 32.7629H68.0872V38.4013H69.8854V32.7629Z" fill="#1B75BB"/>
<path d="M76.3981 34.658V38.4013H74.5998V35.1271C74.5998 34.7425 74.5253 34.4609 74.3764 34.292C74.2271 34.1232 74.0409 34.0293 73.7985 34.0293C73.6309 34.0293 73.4633 34.0762 73.2955 34.1607C73.1184 34.2451 72.9694 34.3673 72.8296 34.5172C72.6898 34.6675 72.5873 34.8458 72.5036 35.0427V38.4013H70.7053V32.5283H72.3265V33.5322C72.4755 33.2975 72.662 33.1006 72.8855 32.9412C73.1092 32.7721 73.3699 32.6503 73.659 32.5658C73.9478 32.4814 74.2738 32.4345 74.6093 32.4345C74.9912 32.4345 75.2988 32.5001 75.5317 32.6409C75.7647 32.7815 75.9509 32.9598 76.0721 33.185C76.1932 33.4103 76.2772 33.6447 76.3144 33.8979C76.3795 34.1607 76.3981 34.4142 76.3981 34.658Z" fill="#1B75BB"/>
<path d="M83.4796 33.9732C83.228 33.5133 82.8739 33.1476 82.4081 32.866C81.9423 32.5846 81.3739 32.4438 80.7029 32.4438C80.0323 32.4438 79.4639 32.5846 78.9978 32.8754C78.5228 33.157 78.1687 33.5322 77.9172 34.0013C77.6656 34.4609 77.5444 34.9771 77.5444 35.54C77.5444 35.6714 77.5536 35.8025 77.5722 35.9339C77.6003 36.1874 77.6656 36.4312 77.7587 36.6751C77.8985 37.0316 78.1128 37.3602 78.383 37.6321C78.6531 37.9042 78.9886 38.1294 79.3799 38.2888C79.557 38.3638 79.7527 38.4202 79.9483 38.4577C80.1904 38.5046 80.4422 38.5235 80.7124 38.5235C81.1596 38.5235 81.5696 38.4577 81.9423 38.3169C82.315 38.1764 82.6318 37.9886 82.9112 37.754C83.1816 37.5196 83.3959 37.238 83.5449 36.9378L82.0168 36.5062C81.9237 36.722 81.7652 36.9003 81.5323 37.0222C81.2994 37.1536 81.0384 37.2099 80.7683 37.2099C80.554 37.2099 80.3489 37.163 80.1532 37.0691C79.9575 36.9753 79.7993 36.8439 79.6782 36.6659C79.557 36.4876 79.4825 36.2718 79.4544 36.0183H83.815C83.8245 35.9433 83.8337 35.8589 83.8431 35.7558C83.8523 35.6525 83.8617 35.5492 83.8617 35.4462C83.8431 34.9208 83.7219 34.4234 83.4796 33.9732ZM79.3986 34.9208C79.4266 34.6861 79.5011 34.4797 79.6129 34.3015C79.7246 34.1232 79.8738 33.9918 80.0601 33.8888C80.2466 33.7949 80.4514 33.7385 80.6843 33.7385C80.9081 33.7385 81.1129 33.7855 81.2994 33.8888C81.4856 33.9826 81.6349 34.1232 81.7466 34.3015C81.8583 34.4797 81.9328 34.6861 81.9609 34.9208H79.3986Z" fill="#1B75BB"/>
</g>
</svg>
