<svg width="16" height="16" viewBox="0 0 16 16" fill="none" xmlns="http://www.w3.org/2000/svg">
<path d="M3.75736 6.19533L7.52869 2.424C7.65371 2.29902 7.82325 2.22881 8.00003 2.22881C8.1768 2.22881 8.34634 2.29902 8.47136 2.424L12.2427 6.19533C12.3641 6.32107 12.4313 6.48947 12.4298 6.66427C12.4283 6.83907 12.3582 7.00627 12.2346 7.12988C12.111 7.25348 11.9438 7.3236 11.769 7.32512C11.5942 7.32663 11.4258 7.25944 11.3 7.138L8.66669 4.50467L8.66669 13.3333C8.66669 13.5101 8.59645 13.6797 8.47143 13.8047C8.34641 13.9298 8.17684 14 8.00003 14C7.82321 14 7.65365 13.9298 7.52862 13.8047C7.4036 13.6797 7.33336 13.5101 7.33336 13.3333L7.33336 4.50467L4.70003 7.138C4.63853 7.20167 4.56496 7.25246 4.48363 7.2874C4.40229 7.32234 4.31481 7.34073 4.22629 7.3415C4.13777 7.34227 4.04999 7.3254 3.96806 7.29188C3.88613 7.25836 3.81169 7.20886 3.7491 7.14626C3.6865 7.08367 3.637 7.00923 3.60348 6.9273C3.56996 6.84537 3.55309 6.75759 3.55386 6.66907C3.55463 6.58055 3.57302 6.49307 3.60796 6.41173C3.6429 6.33039 3.69369 6.25683 3.75736 6.19533Z" fill="white"/>
</svg>
