<svg width="15" height="6" viewBox="0 0 15 6" fill="none" xmlns="http://www.w3.org/2000/svg">
<path d="M6.74887 0.885361C6.30085 0.885361 5.91295 1.18126 5.75589 1.59735C5.7467 1.62045 5.71899 1.70833 5.71899 1.70833L5.09091 4.42687H6.53177C7.02594 4.42687 7.44619 4.0709 7.56165 3.59003L8.18973 0.885361H6.74887Z" fill="#16B14B"/>
<path d="M4.37186 1.52588e-05C3.91086 1.52588e-05 3.52076 0.327083 3.39667 0.769429C3.38779 0.801641 3.3789 0.838482 3.37452 0.870757L2.43475 5.09093H3.81775C4.29207 5.09093 4.68662 4.75004 4.80188 4.2893L5.75491 1.52588e-05H4.37186Z" fill="#F27227"/>
<path d="M1.65577 0.885361C1.18868 0.885361 0.790928 1.20477 0.64755 1.6446C0.642915 1.65383 0.642915 1.66307 0.638279 1.67238L0.615165 1.76496L0 4.42687H1.47543C1.91477 4.42687 2.29405 4.13518 2.44206 3.72319L2.50219 3.46858L3.09882 0.885361H1.65577Z" fill="#1169B0"/>
<path d="M1.2993 1.77077L1.27456 1.77533C1.16558 1.77533 1.06164 1.81217 0.967549 1.88572C0.878424 1.95472 0.814045 2.03752 0.794194 2.11108L0.442657 3.54152H0.462439C0.571415 3.54152 0.680322 3.50474 0.77441 3.43112C0.868498 3.35756 0.932878 3.27014 0.957623 3.16899L1.03682 2.86083H1.73997C1.84894 2.86083 1.95785 2.82399 2.05194 2.75043C2.14603 2.67681 2.2104 2.58945 2.23515 2.48823L2.24011 2.46988H1.13587L1.21018 2.17552H2.16588C2.27478 2.17552 2.3788 2.13868 2.47289 2.06968C2.56697 1.99612 2.62639 1.9087 2.65114 1.80755L2.6561 1.78913L1.2993 1.77077Z" fill="white"/>
<path d="M5.00227 1.85858C4.94629 1.80309 4.87167 1.77077 4.77835 1.77077H3.5047L3.09882 3.53687V3.54152H3.11745C3.2248 3.54152 3.32273 3.50449 3.41138 3.43055C3.50003 3.35654 3.56068 3.26873 3.584 3.16698L3.65868 2.85264H4.5404C4.64307 2.85264 4.73633 2.83877 4.82497 2.76941C4.91362 2.70005 4.97895 2.58443 5.00227 2.4781L5.08156 2.14989C5.08624 2.12214 5.09091 2.09898 5.09091 2.07124C5.09091 1.98807 5.06292 1.91407 5.00227 1.85858ZM4.60573 2.45965H3.74733L3.81727 2.16376H4.67567L4.60573 2.45965Z" fill="white"/>
<path d="M7.65749 1.85835C7.5978 1.80301 7.51818 1.77077 7.42367 1.77077H6.82684H6.78703H5.99121L5.98623 1.7846C5.98124 1.81228 5.97626 1.83995 5.97626 1.86299C5.97626 1.95057 6.00617 2.01975 6.06585 2.07973C6.12553 2.13507 6.20509 2.16731 6.30458 2.16731H6.603L6.25979 3.54152H6.27973C6.38912 3.54152 6.49859 3.50464 6.59303 3.43083C6.68754 3.35708 6.75221 3.26943 6.77706 3.16801L7.02576 2.16731H7.73206L7.73704 2.15348C7.74203 2.12581 7.74701 2.09814 7.74701 2.0751C7.74701 1.98751 7.71717 1.9137 7.65749 1.85835Z" fill="white"/>
<path d="M7.74701 4.09488C7.74701 3.91374 7.89791 3.76286 8.07906 3.76286C8.26014 3.76286 8.41104 3.91374 8.41104 4.09488C8.41104 4.27602 8.26014 4.4269 8.07906 4.4269C7.89294 4.4269 7.74701 4.281 7.74701 4.09488ZM8.33051 4.09488C8.33051 3.93895 8.21988 3.82823 8.07906 3.82823C7.93817 3.82823 7.82754 3.93895 7.82754 4.09488C7.82754 4.25081 7.93817 4.36153 8.07906 4.36153C8.21484 4.36153 8.33051 4.25081 8.33051 4.09488ZM7.94826 3.90876H8.08907C8.17961 3.90876 8.22996 3.93895 8.22996 4.01941C8.22996 4.08484 8.19474 4.11503 8.12934 4.12001L8.22996 4.28606H8.15952L8.06394 4.12507H8.02367V4.28606H7.9533V3.90876H7.94826ZM8.0187 4.06974H8.07906C8.11925 4.06974 8.15448 4.06469 8.15448 4.01435C8.15448 3.96907 8.11421 3.96408 8.07906 3.96408H8.0187V4.06974Z" fill="#637381"/>
<path d="M10.0459 3.31724C9.94884 3.4701 9.8081 3.5415 9.6285 3.5415C9.4489 3.5415 9.31295 3.46504 9.21105 3.31724C9.11882 3.17962 9.0751 2.99611 9.0751 2.7668C9.0751 2.53742 9.11882 2.35392 9.21105 2.21636C9.30808 2.06856 9.4489 1.9921 9.6285 1.9921C9.8081 1.9921 9.94398 2.06856 10.0459 2.21636C10.1382 2.35392 10.1818 2.53742 10.1818 2.7668C10.1818 2.99611 10.1382 3.1745 10.0459 3.31724ZM9.87607 2.35904C9.81776 2.25199 9.73526 2.20106 9.63336 2.20106C9.5314 2.20106 9.4489 2.25199 9.38579 2.35904C9.33241 2.46096 9.30329 2.59859 9.30329 2.7668C9.30329 2.93494 9.33241 3.07257 9.38579 3.1745C9.44403 3.28154 9.52654 3.33254 9.63336 3.33254C9.73526 3.33254 9.81776 3.28154 9.87607 3.1745C9.92945 3.07257 9.95857 2.93494 9.95857 2.7668C9.95857 2.59859 9.93432 2.46096 9.87607 2.35904Z" fill="#637381"/>
<path d="M11.1304 3.53654V2.81523C11.1304 2.67685 11.0546 2.6077 10.8978 2.6077C10.8168 2.6077 10.746 2.61763 10.6954 2.64231V3.5415H10.4727V2.5089C10.5992 2.45953 10.7409 2.43478 10.8978 2.43478C11.2064 2.43478 11.3581 2.55337 11.3581 2.79544V3.5415H11.1304V3.53654Z" fill="#637381"/>
<path d="M11.5794 3.5415V1.9921H11.8008V3.5415H11.5794Z" fill="#637381"/>
<path d="M12.2107 2.20769C12.1902 2.23274 12.1656 2.24282 12.1328 2.24282C12.1041 2.24282 12.0754 2.23274 12.0549 2.20769C12.0344 2.18264 12.0221 2.15255 12.0221 2.11742C12.0221 2.08237 12.0344 2.05227 12.0549 2.02715C12.0754 2.0021 12.1 1.9921 12.1328 1.9921C12.1615 1.9921 12.1902 2.0021 12.2107 2.02715C12.2312 2.05227 12.2435 2.08237 12.2435 2.11742C12.2435 2.15255 12.2312 2.18264 12.2107 2.20769ZM12.0426 3.5415V2.43833H12.2271V3.5415H12.0426Z" fill="#637381"/>
<path d="M12.9581 3.53654V2.81523C12.9581 2.67685 12.9012 2.6077 12.7836 2.6077C12.7229 2.6077 12.6697 2.61763 12.6318 2.64231V3.5415H12.4648V2.5089C12.5597 2.45953 12.666 2.43478 12.7836 2.43478C13.0151 2.43478 13.1289 2.55337 13.1289 2.79544V3.5415H12.9581V3.53654Z" fill="#637381"/>
<path d="M14.2335 2.98814L13.5548 3.08528C13.578 3.27942 13.6802 3.37161 13.8662 3.37161C13.9778 3.37161 14.0708 3.35224 14.1498 3.30855L14.2103 3.46875C14.1173 3.51725 14.001 3.5415 13.8523 3.5415C13.6942 3.5415 13.5687 3.493 13.4803 3.39106C13.392 3.29399 13.3502 3.15803 13.3502 2.98814C13.3502 2.82313 13.392 2.69206 13.4711 2.59018C13.5548 2.48823 13.6663 2.43478 13.8104 2.43478C13.9406 2.43478 14.0429 2.47848 14.1219 2.56105C14.1963 2.64356 14.2335 2.76007 14.2335 2.90083C14.2382 2.93964 14.2335 2.96877 14.2335 2.98814ZM14.0382 2.8717C14.0382 2.68725 13.9592 2.59499 13.8104 2.59499C13.7314 2.59499 13.6663 2.62411 13.6198 2.68725C13.5687 2.75031 13.5454 2.83282 13.5454 2.94452L14.0382 2.8717Z" fill="#637381"/>
</svg>
