<svg width="16" height="16" viewBox="0 0 16 16" fill="none" xmlns="http://www.w3.org/2000/svg">
<path d="M14.1247 6.67134C13.9081 6.54546 13.7136 6.38514 13.5487 6.19667C13.5653 5.93428 13.6278 5.67684 13.7333 5.436C13.9273 4.88867 14.1467 4.26867 13.7947 3.78667C13.4427 3.30467 12.778 3.32 12.1947 3.33334C11.9369 3.35986 11.6765 3.34227 11.4247 3.28134C11.2905 3.06301 11.1947 2.82333 11.1413 2.57267C10.976 2.00934 10.7873 1.37267 10.208 1.182C9.64933 1.002 9.132 1.398 8.67466 1.746C8.47732 1.92622 8.24867 2.06879 8 2.16667C7.74873 2.06959 7.51752 1.92698 7.318 1.746C6.862 1.4 6.34666 1 5.78533 1.18267C5.20733 1.37067 5.01866 2.00934 4.852 2.57267C4.79875 2.82251 4.70387 3.06163 4.57133 3.28C4.31901 3.34078 4.05828 3.3588 3.8 3.33334C3.21466 3.31734 2.55533 3.3 2.2 3.78667C1.84466 4.27334 2.06666 4.88867 2.26133 5.43534C2.36829 5.67581 2.43172 5.93336 2.44866 6.196C2.28405 6.38472 2.08971 6.54528 1.87333 6.67134C1.38533 7.00467 0.831329 7.384 0.831329 8C0.831329 8.616 1.38533 8.994 1.87333 9.32867C2.08966 9.45453 2.284 9.61486 2.44866 9.80334C2.4335 10.0659 2.37188 10.3237 2.26666 10.5647C2.07333 11.1113 1.85466 11.7313 2.206 12.2133C2.55733 12.6953 3.22 12.68 3.806 12.6667C4.06397 12.6401 4.32459 12.6577 4.57666 12.7187C4.71025 12.9372 4.80583 13.1768 4.85933 13.4273C5.02466 13.9907 5.21333 14.6273 5.79266 14.818C5.88554 14.8478 5.98246 14.8631 6.08 14.8633C6.5488 14.7961 6.98452 14.5829 7.32533 14.254C7.52267 14.0738 7.75132 13.9312 8 13.8333C8.25127 13.9304 8.48247 14.073 8.682 14.254C9.13866 14.6027 9.656 15.0007 10.2153 14.8173C10.7933 14.6293 10.982 13.9907 11.1487 13.428C11.2021 13.1777 11.2977 12.9383 11.4313 12.72C11.6827 12.6588 11.9426 12.6408 12.2 12.6667C12.7853 12.6807 13.4447 12.7 13.8 12.2133C14.1553 11.7267 13.9333 11.1113 13.7387 10.564C13.6324 10.3237 13.569 10.0668 13.5513 9.80467C13.716 9.61578 13.9106 9.45521 14.1273 9.32934C14.6153 8.99601 15.1693 8.616 15.1693 8C15.1693 7.384 14.6133 7.00534 14.1247 6.67134Z" fill="#048845"/>
<path d="M7.33333 9.83335C7.26766 9.83347 7.20262 9.82057 7.14197 9.7954C7.08132 9.77022 7.02627 9.73327 6.97999 9.68668L5.64666 8.35335C5.55834 8.25856 5.51026 8.1332 5.51254 8.00366C5.51483 7.87413 5.5673 7.75054 5.65891 7.65893C5.75052 7.56732 5.87411 7.51485 6.00365 7.51256C6.13318 7.51028 6.25854 7.55836 6.35333 7.64668L7.37999 8.67335L9.7 6.93335C9.80608 6.85378 9.93943 6.81962 10.0707 6.83837C10.202 6.85712 10.3204 6.92726 10.4 7.03335C10.4796 7.13943 10.5137 7.27278 10.495 7.40406C10.4762 7.53533 10.4061 7.65378 10.3 7.73335L7.63333 9.73335C7.54676 9.79821 7.44151 9.8333 7.33333 9.83335Z" fill="white"/>
</svg>
