<svg width="10" height="14" viewBox="0 0 10 14" fill="none" xmlns="http://www.w3.org/2000/svg">
<path fill-rule="evenodd" clip-rule="evenodd" d="M8.84917 4.7924C9.82299 5.33842 10.1632 6.56197 9.60897 7.52535L6.762 12.4742C6.20781 13.4375 4.96913 13.7759 3.99533 13.2299C3.0215 12.6838 2.68133 11.4602 3.23554 10.4969L6.08244 5.54809C6.63666 4.58471 7.87534 4.24642 8.84917 4.7924Z" fill="url(#paint0_linear_8_2672)"/>
<path fill-rule="evenodd" clip-rule="evenodd" d="M2.04746 4.57816C0.926179 4.59126 0.0263885 5.5003 0.0377087 6.6085C0.0490298 7.71675 0.967176 8.60449 2.08844 8.59133L7.4278 8.52881C8.11591 8.57557 8.54132 9.32721 8.18628 9.94083L9.62891 7.44738L9.62487 7.44928C9.77706 7.16397 9.86174 6.83841 9.85822 6.49354C9.84689 5.38529 8.92877 4.49754 7.80752 4.5107L2.04746 4.57816Z" fill="#048845"/>
<path fill-rule="evenodd" clip-rule="evenodd" d="M5.7244 3.72852C6.68947 3.16587 7.01164 1.93746 6.44389 0.984829C5.87613 0.0321909 4.63356 -0.283947 3.66845 0.278717C3.37068 0.45232 3.13411 0.689302 2.96602 0.962004L2.96309 0.957101L1.15307 4.09617L4.78274 4.01038L4.77982 4.00547C5.10246 3.99207 5.42664 3.90214 5.7244 3.72852Z" fill="#048845"/>
<defs>
<linearGradient id="paint0_linear_8_2672" x1="9.46709" y1="2.18026" x2="-1.21133" y2="5.63483" gradientUnits="userSpaceOnUse">
<stop stop-color="#00543A"/>
<stop offset="1" stop-color="#048845"/>
</linearGradient>
</defs>
</svg>
