<svg width="38" height="7" viewBox="0 0 38 7" fill="none" xmlns="http://www.w3.org/2000/svg">
<path d="M2.31902 6.40001C2.04041 6.40001 1.76999 6.36459 1.50777 6.29377C1.24555 6.2201 1.00791 6.11103 0.794857 5.96654C0.581803 5.82205 0.404257 5.64357 0.262221 5.43108C0.122916 5.21576 0.0355091 4.96645 0 4.68314H0.794857C0.844024 4.91545 0.940991 5.11094 1.08576 5.26959C1.23326 5.42825 1.41217 5.54724 1.62249 5.62657C1.83555 5.70589 2.06636 5.74556 2.31492 5.74556C2.59353 5.74556 2.84209 5.70589 3.06061 5.62657C3.28186 5.54441 3.45531 5.42825 3.58096 5.27809C3.70933 5.12794 3.77352 4.94804 3.77352 4.73838C3.77352 4.55423 3.73255 4.39416 3.65061 4.25817C3.5714 4.12218 3.45531 4.00886 3.30235 3.9182C3.14938 3.82754 2.96364 3.75671 2.74513 3.70571L1.58152 3.42524C1.14449 3.32608 0.801686 3.14901 0.553123 2.89403C0.30729 2.63905 0.181643 2.30191 0.17618 1.8826C0.17618 1.52847 0.266318 1.21682 0.446595 0.947677C0.629604 0.678531 0.879533 0.468881 1.19638 0.318726C1.51597 0.16857 1.88062 0.0934927 2.29034 0.0934927C2.76288 0.0934927 3.16031 0.17707 3.48262 0.344223C3.80494 0.511377 4.04804 0.730944 4.21193 1.00292C4.37581 1.2749 4.45912 1.5653 4.46185 1.87411H3.67929C3.65471 1.59646 3.57549 1.37689 3.44165 1.21541C3.31054 1.05109 3.14529 0.934928 2.94589 0.866933C2.74649 0.796105 2.52934 0.760691 2.29443 0.760691C2.12508 0.760691 1.96119 0.783356 1.80277 0.828686C1.64708 0.871183 1.50641 0.936345 1.38076 1.02417C1.25784 1.112 1.15951 1.22107 1.08576 1.3514C1.01201 1.48172 0.975134 1.63329 0.975134 1.80611C0.975134 2.02709 1.04752 2.207 1.19229 2.34582C1.33979 2.48464 1.6061 2.60363 1.99124 2.70279L3.11797 2.98327C3.41297 3.04843 3.65334 3.14476 3.83908 3.27225C4.02755 3.39974 4.17232 3.54423 4.27338 3.70571C4.37718 3.8672 4.4482 4.03577 4.48644 4.21143C4.52741 4.38708 4.5479 4.5599 4.5479 4.72989C4.5479 5.03869 4.45912 5.32059 4.28158 5.57557C4.10403 5.82772 3.84864 6.02887 3.5154 6.17902C3.18489 6.32635 2.7861 6.40001 2.31902 6.40001Z" fill="#637381"/>
<path d="M5.67322 6.31501V1.92085H6.40252V2.5583C6.51997 2.36565 6.68113 2.19708 6.88599 2.05259C7.09085 1.9081 7.35717 1.83586 7.68494 1.83586C7.83791 1.83586 7.9936 1.86277 8.15203 1.9166C8.31318 1.97043 8.46068 2.05118 8.59452 2.15883C8.72837 2.26649 8.83216 2.39823 8.90591 2.55405C9.03702 2.33874 9.21457 2.16592 9.43855 2.03559C9.66253 1.90244 9.91519 1.83586 10.1965 1.83586C10.344 1.83586 10.4984 1.85994 10.6595 1.9081C10.8207 1.95343 10.9695 2.03559 11.1061 2.15458C11.2454 2.27074 11.3588 2.43365 11.4462 2.6433C11.5336 2.85011 11.5773 3.11643 11.5773 3.44223V6.31501H10.8152V3.51873C10.8152 3.25242 10.7742 3.04702 10.6923 2.90253C10.6103 2.7552 10.5025 2.6518 10.3686 2.5923C10.2375 2.5328 10.0968 2.50306 9.9466 2.50306C9.81549 2.50306 9.67619 2.52997 9.52869 2.5838C9.38119 2.63763 9.25554 2.72829 9.15174 2.85578C9.04795 2.98327 8.99605 3.15751 8.99605 3.37849V6.31501H8.24216V3.28925C8.24216 3.11643 8.19709 2.97194 8.10696 2.85578C8.01955 2.73962 7.90893 2.6518 7.77508 2.5923C7.64397 2.5328 7.51286 2.50306 7.38175 2.50306C7.23698 2.50306 7.09085 2.5328 6.94335 2.5923C6.79858 2.6518 6.67567 2.74671 6.5746 2.87703C6.47627 3.00452 6.4271 3.17167 6.4271 3.37849V6.31501H5.67322Z" fill="#637381"/>
<path d="M13.9191 6.40001C13.6459 6.40001 13.4042 6.35043 13.1939 6.25127C12.9836 6.14928 12.8183 6.00337 12.6981 5.81355C12.5807 5.62373 12.5219 5.39425 12.5219 5.1251C12.5219 4.63781 12.6858 4.27517 13.0136 4.03719C13.3414 3.79921 13.8672 3.67172 14.591 3.65472L15.349 3.63347V3.28925C15.349 3.0201 15.2712 2.80762 15.1155 2.6518C14.9598 2.49314 14.718 2.41381 14.3903 2.41381C14.1472 2.41665 13.9328 2.47614 13.747 2.5923C13.564 2.70846 13.4452 2.89828 13.3906 3.16176H12.7227C12.7391 2.87561 12.8169 2.6348 12.9563 2.43931C13.0956 2.24099 13.2895 2.09084 13.5381 1.98885C13.7894 1.88685 14.0857 1.83586 14.4271 1.83586C14.7959 1.83586 15.1018 1.88969 15.3449 1.99735C15.5908 2.105 15.7738 2.26366 15.8939 2.47331C16.0169 2.68296 16.0783 2.94077 16.0783 3.24675V6.31501H15.431L15.3777 5.49058C15.2138 5.83338 15.0049 6.07137 14.7508 6.20452C14.4995 6.33485 14.2223 6.40001 13.9191 6.40001ZM14.1485 5.8348C14.2906 5.8348 14.4312 5.80789 14.5706 5.75406C14.7126 5.70023 14.8423 5.62798 14.9598 5.53732C15.0772 5.44383 15.1701 5.34042 15.2384 5.2271C15.3094 5.11094 15.3463 4.99195 15.349 4.87012V4.11793L14.718 4.13068C14.3957 4.13635 14.1253 4.17035 13.9068 4.23267C13.691 4.295 13.5285 4.39275 13.4192 4.5259C13.3127 4.65906 13.2594 4.83329 13.2594 5.04861C13.2594 5.29509 13.3414 5.48774 13.5053 5.62657C13.6719 5.76539 13.8863 5.8348 14.1485 5.8348Z" fill="#637381"/>
<path d="M17.3727 6.31501V1.92085H18.0938V2.76654C18.1648 2.55689 18.2645 2.38407 18.3929 2.24808C18.5212 2.10925 18.6674 2.00585 18.8313 1.93785C18.9979 1.86986 19.17 1.83586 19.3475 1.83586C19.4103 1.83586 19.4718 1.84011 19.5319 1.84861C19.592 1.85711 19.6384 1.87127 19.6712 1.8911V2.6518C19.6302 2.63196 19.5769 2.61921 19.5114 2.61355C19.4486 2.60505 19.3953 2.6008 19.3516 2.6008C19.1823 2.58947 19.0238 2.6008 18.8763 2.6348C18.7288 2.66596 18.5991 2.72121 18.4871 2.80053C18.3751 2.87986 18.2863 2.98469 18.2208 3.11501C18.158 3.2425 18.1265 3.39832 18.1265 3.58247V6.31501H17.3727Z" fill="#637381"/>
<path d="M22.798 2.49456H21.8433V5.2271C21.8433 5.38292 21.8584 5.49766 21.8884 5.57132C21.9212 5.64215 21.9745 5.68748 22.0482 5.70731C22.1247 5.72714 22.2285 5.73706 22.3596 5.73706H22.8226V6.26402C22.7707 6.28385 22.6915 6.30085 22.5849 6.31501C22.4811 6.32918 22.3514 6.33626 22.1957 6.33626C21.9034 6.33626 21.6767 6.29518 21.5156 6.21302C21.3544 6.13086 21.2411 6.00904 21.1755 5.84755C21.1127 5.68606 21.0813 5.48774 21.0813 5.2526V2.49456H20.3929V1.92085H21.1017L21.2861 0.641701H21.8433V1.9166H22.798V2.49456Z" fill="#637381"/>
<path d="M23.5998 6.31501L25.7426 0.169987H26.5989L28.7418 6.31501H27.9674L27.3856 4.63214H24.9641L24.37 6.31501H23.5998ZM25.1567 3.9097H27.1848L26.1769 0.947677L25.1567 3.9097Z" fill="#637381"/>
<path d="M31.1205 6.40001C30.5715 6.40001 30.1358 6.20452 29.8135 5.81355C29.4912 5.42258 29.33 4.85171 29.33 4.10093C29.33 3.6448 29.3942 3.24675 29.5226 2.90678C29.6537 2.5668 29.8476 2.30332 30.1044 2.11634C30.3612 1.92935 30.6807 1.83586 31.0631 1.83586C31.2653 1.83586 31.4442 1.86277 31.5999 1.9166C31.7583 1.97043 31.8949 2.03843 32.0096 2.12059C32.1243 2.20275 32.2172 2.28774 32.2882 2.37557C32.362 2.46339 32.4166 2.54414 32.4521 2.6178V0H33.2142V6.31501H32.6365L32.5545 5.41408C32.5272 5.49908 32.4835 5.59824 32.4234 5.71156C32.3633 5.82205 32.2786 5.93113 32.1694 6.03878C32.0601 6.14361 31.9195 6.23002 31.7474 6.29801C31.578 6.36601 31.3691 6.40001 31.1205 6.40001ZM31.2557 5.79655C31.6845 5.79655 31.9905 5.66198 32.1735 5.39283C32.3592 5.12086 32.4521 4.67747 32.4521 4.06269C32.4494 3.71988 32.407 3.42807 32.3251 3.18725C32.2459 2.94644 32.1202 2.7637 31.9481 2.63905C31.7788 2.51156 31.5534 2.44781 31.2721 2.44781C30.9225 2.44781 30.6384 2.57672 30.4199 2.83453C30.2014 3.09234 30.0921 3.50173 30.0921 4.06269C30.0921 4.61231 30.1904 5.03869 30.3871 5.34184C30.5865 5.64498 30.876 5.79655 31.2557 5.79655Z" fill="#637381"/>
<path d="M35.9693 6.40001C35.6743 6.40001 35.3998 6.35326 35.1458 6.25977C34.8945 6.16344 34.6856 6.0147 34.5189 5.81355C34.3523 5.60957 34.2472 5.35034 34.2035 5.03586H34.8918C34.93 5.20868 34.9983 5.35317 35.0966 5.46933C35.1977 5.58265 35.3234 5.66906 35.4736 5.72856C35.6238 5.78522 35.7877 5.81355 35.9653 5.81355C36.2493 5.81355 36.4788 5.75831 36.6536 5.64781C36.8284 5.53732 36.9158 5.36734 36.9158 5.13785C36.9158 4.97637 36.8694 4.84746 36.7765 4.75113C36.6864 4.65197 36.5457 4.57973 36.3545 4.5344L35.4777 4.30917C35.1362 4.22417 34.8631 4.09102 34.6582 3.9097C34.4534 3.72838 34.351 3.47482 34.351 3.14901C34.3482 2.89119 34.4069 2.66454 34.5271 2.46906C34.6473 2.27357 34.8276 2.11917 35.068 2.00585C35.3083 1.89252 35.6074 1.83586 35.9653 1.83586C36.4241 1.83586 36.7943 1.94352 37.0756 2.15883C37.3597 2.37132 37.5072 2.68438 37.5181 3.09801H36.8502C36.8229 2.88836 36.7314 2.72262 36.5757 2.6008C36.4228 2.47614 36.2165 2.41381 35.9571 2.41381C35.6866 2.41381 35.4668 2.47048 35.2974 2.5838C35.1281 2.69429 35.0434 2.86711 35.0434 3.10226C35.0434 3.25808 35.1035 3.38132 35.2237 3.47198C35.3438 3.55981 35.5214 3.63347 35.7563 3.69297L36.6044 3.91395C36.8011 3.96778 36.9622 4.03861 37.0879 4.12643C37.2163 4.21426 37.3173 4.312 37.3911 4.41966C37.4676 4.52732 37.5208 4.64064 37.5509 4.75963C37.5836 4.87579 37.6 4.9877 37.6 5.09536C37.6 5.3645 37.5345 5.59682 37.4034 5.7923C37.275 5.98496 37.0893 6.13511 36.8461 6.24277C36.6058 6.34759 36.3135 6.40001 35.9693 6.40001Z" fill="#637381"/>
</svg>
