<svg width="16" height="16" viewBox="0 0 16 16" fill="none" xmlns="http://www.w3.org/2000/svg">
<path d="M12.2426 9.80467L8.47131 13.576C8.34629 13.701 8.17675 13.7712 7.99998 13.7712C7.8232 13.7712 7.65366 13.701 7.52864 13.576L3.75731 9.80467C3.63587 9.67893 3.56867 9.51053 3.57019 9.33573C3.57171 9.16094 3.64183 8.99373 3.76543 8.87012C3.88904 8.74652 4.05624 8.67641 4.23104 8.67489C4.40584 8.67337 4.57424 8.74056 4.69998 8.862L7.33331 11.4953L7.33331 2.66667C7.33331 2.48986 7.40355 2.32029 7.52857 2.19526C7.6536 2.07024 7.82317 2 7.99998 2C8.17679 2 8.34636 2.07024 8.47138 2.19526C8.59641 2.32029 8.66664 2.48986 8.66664 2.66667L8.66664 11.4953L11.3 8.862C11.3615 8.79833 11.435 8.74754 11.5164 8.7126C11.5977 8.67766 11.6852 8.65927 11.7737 8.6585C11.8622 8.65773 11.95 8.6746 12.0319 8.70812C12.1139 8.74164 12.1883 8.79115 12.2509 8.85374C12.3135 8.91634 12.363 8.99077 12.3965 9.0727C12.43 9.15463 12.4469 9.24242 12.4461 9.33094C12.4454 9.41946 12.427 9.50694 12.392 9.58827C12.3571 9.66961 12.3063 9.74317 12.2426 9.80467Z" fill="white"/>
</svg>
