<svg width="16" height="16" viewBox="0 0 16 16" fill="none" xmlns="http://www.w3.org/2000/svg">
<path d="M6.19533 12.2427L2.424 8.47134C2.29902 8.34632 2.22881 8.17678 2.22881 8.00001C2.22881 7.82323 2.29902 7.65369 2.424 7.52867L6.19533 3.75734C6.32107 3.6359 6.48947 3.5687 6.66427 3.57022C6.83907 3.57174 7.00627 3.64185 7.12988 3.76546C7.25348 3.88907 7.3236 4.05627 7.32512 4.23107C7.32664 4.40587 7.25944 4.57427 7.138 4.70001L4.50467 7.33334L13.3333 7.33334C13.5101 7.33334 13.6797 7.40358 13.8047 7.5286C13.9298 7.65363 14 7.82319 14 8.00001C14 8.17682 13.9298 8.34639 13.8047 8.47141C13.6797 8.59643 13.5101 8.66667 13.3333 8.66667L4.50467 8.66667L7.138 11.3C7.20167 11.3615 7.25246 11.4351 7.2874 11.5164C7.32234 11.5977 7.34073 11.6852 7.3415 11.7737C7.34227 11.8623 7.3254 11.95 7.29188 12.032C7.25836 12.1139 7.20886 12.1883 7.14626 12.2509C7.08367 12.3135 7.00923 12.363 6.9273 12.3966C6.84537 12.4301 6.75759 12.4469 6.66907 12.4462C6.58055 12.4454 6.49307 12.427 6.41173 12.3921C6.3304 12.3571 6.25683 12.3063 6.19533 12.2427Z" fill="white"/>
</svg>
