<svg width="12" height="16" viewBox="0 0 12 16" fill="none" xmlns="http://www.w3.org/2000/svg">
<path fill-rule="evenodd" clip-rule="evenodd" d="M10.427 5.68422C11.5638 6.33175 11.939 7.78283 11.2651 8.9253L7.80323 14.7943C7.12932 15.9367 5.66145 16.338 4.52465 15.6904C3.38785 15.0429 3.01261 13.5918 3.68652 12.4494L7.14843 6.5804C7.82234 5.43793 9.2902 5.03669 10.427 5.68422Z" fill="url(#paint0_linear_34_182)"/>
<path fill-rule="evenodd" clip-rule="evenodd" d="M2.41299 5.42988C1.09047 5.44546 0.0101735 6.5235 7.13511e-05 7.83778C-0.0100309 9.15205 1.05389 10.2049 2.3764 10.1893L8.67408 10.1151C9.4845 10.1706 9.97024 11.062 9.53859 11.7897L11.2926 8.8326L11.2878 8.83484C11.4732 8.4965 11.58 8.11039 11.5832 7.70139C11.5933 6.38712 10.5293 5.33432 9.20683 5.34989L2.41299 5.42988Z" fill="#919FAC"/>
<path fill-rule="evenodd" clip-rule="evenodd" d="M6.76946 4.42178C7.91943 3.7545 8.32528 2.2977 7.67595 1.16794C7.02662 0.0381761 5.56799 -0.336741 4.41802 0.330539C4.0632 0.536422 3.77923 0.817466 3.57523 1.14087L3.57188 1.13506L1.37102 4.85777L5.65304 4.75604L5.6497 4.75022C6.03044 4.73433 6.41464 4.62766 6.76946 4.42178Z" fill="#919FAC"/>
<defs>
<linearGradient id="paint0_linear_34_182" x1="5.80001" y1="0" x2="5.80001" y2="16" gradientUnits="userSpaceOnUse">
<stop stop-color="#919FAC"/>
<stop offset="1" stop-color="#818A93"/>
</linearGradient>
</defs>
</svg>
