<svg width="16" height="16" viewBox="0 0 16 16" fill="none" xmlns="http://www.w3.org/2000/svg">
<g clip-path="url(#clip0_419_12124)">
<path fill-rule="evenodd" clip-rule="evenodd" d="M8.47134 9.69075C8.34632 9.81573 8.17678 9.88594 8 9.88594C7.82323 9.88594 7.65369 9.81573 7.52867 9.69075L5.64267 7.80475C5.54942 7.71147 5.48594 7.59264 5.46025 7.46327C5.43456 7.33391 5.44782 7.19983 5.49835 7.078C5.54888 6.95618 5.63441 6.85207 5.74411 6.77887C5.85382 6.70566 5.98278 6.66664 6.11467 6.66675H9.88534C10.0172 6.66664 10.1462 6.70566 10.2559 6.77887C10.3656 6.85207 10.4511 6.95618 10.5017 7.078C10.5522 7.19983 10.5654 7.33391 10.5398 7.46327C10.5141 7.59264 10.4506 7.71147 10.3573 7.80475L8.47134 9.69075Z" fill="#9EA1A5"/>
</g>
<defs>
<clipPath id="clip0_419_12124">
<rect width="16" height="16" fill="white"/>
</clipPath>
</defs>
</svg>
