<svg width="24" height="24" viewBox="0 0 24 24" fill="none" xmlns="http://www.w3.org/2000/svg">
<path d="M11.83 9L15 12.16V12C15 11.2044 14.6839 10.4413 14.1213 9.87868C13.5587 9.31607 12.7956 9 12 9H11.83ZM7.53 9.8L9.08 11.35C9.03 11.56 9 11.77 9 12C9 12.7956 9.31607 13.5587 9.87868 14.1213C10.4413 14.6839 11.2044 15 12 15C12.22 15 12.44 14.97 12.65 14.92L14.2 16.47C13.53 16.8 12.79 17 12 17C10.6739 17 9.40215 16.4732 8.46447 15.5355C7.52678 14.5979 7 13.3261 7 12C7 11.21 7.2 10.47 7.53 9.8ZM2 4.27L4.28 6.55L4.73 7C3.38342 8.06094 2.26995 9.3883 1.482 10.9277C1.13751 11.6007 1.13927 12.3987 1.48505 13.0711C3.44766 16.8873 7.4172 19.5 12 19.5C13.55 19.5 15.03 19.2 16.38 18.66L16.81 19.08L19.73 22L21 20.73L3.27 3M12 7C13.3261 7 14.5979 7.52678 15.5355 8.46447C16.4732 9.40215 17 10.6739 17 12C17 12.64 16.87 13.26 16.64 13.82L19.57 16.75C20.7739 15.7468 21.7845 14.4923 22.514 13.0746C22.8609 12.4003 22.8603 11.5998 22.5133 10.9256C20.5501 7.11115 16.5815 4.5 12 4.5C10.6 4.5 9.26 4.75 8 5.2L10.17 7.35C10.74 7.13 11.35 7 12 7Z" fill="#9EA1A5"/>
</svg>
