<svg width="16" height="16" viewBox="0 0 16 16" fill="none" xmlns="http://www.w3.org/2000/svg">
<path d="M3.82249 10.14C3.83872 10.708 4.38814 10.7923 4.61741 10.8275C4.63536 10.8302 4.65138 10.8327 4.66499 10.835C5.70249 10.845 6.38999 10.19 6.35499 9.36502C6.35345 9.34537 6.35304 9.32495 6.35263 9.30465C6.35037 9.1932 6.34819 9.08523 6.15999 9.12752C5.97127 9.16465 5.78134 9.19986 5.59097 9.23516C5.166 9.31394 4.73877 9.39315 4.31749 9.49502C4.01749 9.56502 3.81249 9.79252 3.82249 10.14Z" fill="#F2CA4E"/>
<path d="M12.035 9.95252C11.5475 11.1425 10.2125 11.035 9.78499 10.0825C9.40749 9.25002 9.39749 8.37752 9.79499 7.54502C10.2025 6.69252 11.2875 6.65252 11.8325 7.42502C12.3475 8.14502 12.205 9.54002 12.035 9.95252Z" fill="#F2CA4E"/>
<path fill-rule="evenodd" clip-rule="evenodd" d="M1 0C0.447715 0 0 0.447715 0 1V15C0 15.5523 0.447715 16 1 16H15C15.5523 16 16 15.5523 16 15V1C16 0.447715 15.5523 0 15 0H1ZM3.95499 7.69252C4.25749 6.89002 5.37249 6.60252 6.05999 7.10752C6.29499 7.28752 6.36999 7.53502 6.34249 7.79002C6.31864 8.04314 5.78757 8.10799 5.15147 8.18566C4.58762 8.25452 3.94125 8.33344 3.49249 8.56252C2.81249 8.91002 2.42499 9.60502 2.50249 10.3375C2.66999 11.955 4.74249 12.33 6.17749 11.42C6.29249 11.34 6.38499 11.2975 6.47499 11.395C6.50124 11.4275 6.51374 11.4525 6.52562 11.4763C6.53749 11.5 6.54874 11.5225 6.57249 11.55C6.75499 11.79 7.52749 11.9025 7.73749 11.735C7.81499 11.665 7.85249 11.5775 7.80499 11.4675C7.57322 10.9477 7.58076 10.4047 7.58767 9.9074C7.59089 9.67514 7.59398 9.45284 7.57249 9.24752C7.57249 9.03055 7.575 8.82413 7.57738 8.6282C7.59402 7.25956 7.60444 6.40242 6.70999 6.03502C5.66249 5.60002 4.60499 5.62002 3.57749 6.15502C3.16999 6.38002 2.23499 7.47752 2.95499 7.76252C3.08749 7.82002 3.27499 7.86252 3.51749 7.90002L3.55711 7.90601C3.73894 7.93392 3.8546 7.95168 3.95499 7.69252ZM12.8912 12.9153C13.0484 12.9365 13.2275 12.9607 13.2275 12.6575C13.2275 12.3671 13.0658 12.3852 12.914 12.4022C12.8789 12.4061 12.8444 12.41 12.8125 12.41C9.50499 12.4 6.19999 12.4 2.89249 12.41C2.85959 12.41 2.82322 12.4052 2.78598 12.4004C2.63645 12.3808 2.473 12.3593 2.46499 12.6375C2.45687 12.952 2.63323 12.9322 2.79887 12.9136C2.8373 12.9093 2.87515 12.905 2.90999 12.905H12.7825C12.8154 12.905 12.8527 12.9101 12.8912 12.9153ZM13.3225 11.42V4.14502C13.3225 4.14002 13.3225 4.13752 13.325 4.13252C13.325 3.88502 13.2375 3.75502 12.985 3.77502C12.933 3.78173 12.8764 3.77943 12.8214 3.7772C12.7945 3.7761 12.768 3.77502 12.7425 3.77502C12.4171 3.77502 12.2546 3.77502 12.1734 3.85627C12.0925 3.93731 12.0925 4.0992 12.0925 4.42255V6.20502C10.1125 5.06502 8.98499 6.37002 8.68999 6.96752C8.27999 7.79002 8.14499 8.63252 8.29749 9.46752C8.70499 11.775 10.5725 12.34 11.9075 11.5975C11.9297 11.584 11.9495 11.5687 11.968 11.5544C12.0453 11.4946 12.1005 11.452 12.2175 11.6275C12.3722 11.8559 12.611 11.823 12.8482 11.7902C12.9407 11.7775 13.033 11.7647 13.12 11.7675C13.305 11.7675 13.3225 11.5625 13.3225 11.42Z" fill="#F2CA4E"/>
</svg>
