<svg width="129" height="48" viewBox="0 0 129 48" fill="none" xmlns="http://www.w3.org/2000/svg">
<mask id="mask0_2393_1220" style="mask-type:luminance" maskUnits="userSpaceOnUse" x="11" y="12" width="61" height="25">
<path d="M64.9713 12.2374V24.2676L57.1466 12.2374H49.9335V27.8614L44.5301 12.2374H41.0638L43.6125 15.5508H37.5974L39.9933 12.5432L40.1972 12.2374H36.6799L31.8882 25.4655C31.8882 25.4655 32.4999 13.4353 21.6676 12.8491H11.447L11.1411 12.5432V36.6037H21.3617C21.3617 36.6037 26.4848 36.2979 29.4668 32.7041L28.2689 36.3233H35.5074L36.7054 32.7041H43.9184L45.1163 36.3233H56.5349V24.8538L64.9458 36.2724H71.5472V12.2374H64.9713ZM24.3693 25.7459C24.3693 25.7459 24.3693 27.5555 22.5596 28.7535C22.5596 28.7535 21.3617 29.9514 18.3542 29.9514V19.1446H20.1638C20.1638 19.1446 24.3693 19.7563 24.3693 23.9618V25.7459ZM38.8208 26.3576L40.6305 22.7384L42.4401 26.3576H38.8208Z" fill="white"/>
</mask>
<g mask="url(#mask0_2393_1220)">
<path d="M118.19 11.9314H10.5549V37.1898H118.19V11.9314Z" fill="url(#paint0_linear_2393_1220)"/>
</g>
<mask id="mask1_2393_1220" style="mask-type:luminance" maskUnits="userSpaceOnUse" x="74" y="12" width="44" height="25">
<path d="M115.157 15.5253H112.149L114.265 12.2119H110.059V16.4174C110.059 16.4174 108.861 13.4098 104.656 12.2119H74.5803V19.4249H79.9837V36.2724H86.5851V19.4504H91.9885V36.2979H98.5898V30.2573L103.407 36.2724H117.247V13.4353L115.157 15.5253ZM101.342 23.3501H98.9466V18.5329H100.756C100.756 18.5329 102.566 19.1446 102.566 21.5404C102.54 21.5404 102.54 22.7638 101.342 23.3501ZM110.365 33.5707L106.16 27.5555C106.16 27.5555 107.969 26.9438 110.365 23.3501V33.5707Z" fill="white"/>
</mask>
<g mask="url(#mask1_2393_1220)">
<path d="M118.19 11.9314H10.5552V37.1898H118.19V11.9314Z" fill="url(#paint1_linear_2393_1220)"/>
</g>
<defs>
<linearGradient id="paint0_linear_2393_1220" x1="64.3442" y1="11.984" x2="64.3791" y2="37.384" gradientUnits="userSpaceOnUse">
<stop stop-color="#0A4F25"/>
<stop offset="1" stop-color="#0F6C32"/>
</linearGradient>
<linearGradient id="paint1_linear_2393_1220" x1="64.3445" y1="11.984" x2="64.3793" y2="37.384" gradientUnits="userSpaceOnUse">
<stop stop-color="#0A4F25"/>
<stop offset="1" stop-color="#0F6C32"/>
</linearGradient>
</defs>
</svg>
