<svg width="129" height="48" viewBox="0 0 129 48" fill="none" xmlns="http://www.w3.org/2000/svg">
<g clip-path="url(#clip0_2393_1221)">
<mask id="mask0_2393_1221" style="mask-type:luminance" maskUnits="userSpaceOnUse" x="8" y="7" width="114" height="34">
<path d="M121.123 7.78539H8.26172V40.2146H121.123V7.78539Z" fill="white"/>
</mask>
<g mask="url(#mask0_2393_1221)">
<path d="M10.6987 39.2115V35.199H11.7676C12.1809 35.199 12.5087 35.3567 12.7795 35.6719C13.036 35.9872 13.1643 36.4028 13.1643 36.9043V37.5062C13.1643 38.0221 13.0218 38.409 12.7795 38.7386C12.523 39.0538 12.1952 39.2115 11.7676 39.2115H10.6987ZM11.2403 35.7723V38.7099H11.7676C12.0242 38.7099 12.2379 38.5953 12.3947 38.3803C12.5515 38.1654 12.6227 37.8931 12.6227 37.5349V36.933C12.6227 36.6034 12.5515 36.3311 12.3947 36.0875C12.2379 35.8725 12.0242 35.7579 11.7676 35.7579L11.2403 35.7723Z" fill="#292929"/>
<path d="M14.3471 39.2115H13.7913V35.199H14.3328C14.3471 35.242 14.3471 39.2115 14.3471 39.2115Z" fill="#292929"/>
<path d="M16.8981 37.4345H15.6297V38.7099H17.1262V39.2401H15.0881V35.2277H17.1119V35.7579H15.6297V36.89H16.8981V37.4345ZM16.9551 34.9554L16.4848 34.9698L16.0715 34.5399L15.6867 34.9698H15.2164V34.9554L15.8577 34.2962H16.2853L16.9551 34.9554ZM16.6844 33.6227C16.6844 33.766 16.6416 33.852 16.5846 33.9523C16.5276 34.0526 16.4278 34.1099 16.3281 34.1099C16.2568 34.1099 16.1713 34.0669 16.0715 34.0096C15.9718 33.9523 15.9005 33.9093 15.8435 33.9093C15.8008 33.9093 15.7722 33.9236 15.7295 33.981C15.6867 34.0383 15.6867 34.0813 15.6867 34.1386L15.473 34.0669C15.473 33.9523 15.5157 33.8377 15.5727 33.7374C15.6297 33.637 15.7295 33.5797 15.8292 33.5797C15.8863 33.5797 15.9718 33.6227 16.0858 33.68C16.1855 33.7374 16.2568 33.7803 16.3138 33.7803C16.3566 33.7803 16.385 33.766 16.4278 33.7087C16.4706 33.6514 16.4848 33.5941 16.4848 33.5368L16.6844 33.6227Z" fill="#292929"/>
<path d="M20.1477 39.2115H19.6061L18.1667 36.3311H18.1525V39.2115H17.6108V35.199H18.1809L19.6061 38.0794H19.6204V35.199H20.1619L20.1477 39.2115Z" fill="#292929"/>
<path d="M21.9862 39.2115V37.4059H21.6299V36.933H21.9862V35.2133H23.0551C23.4684 35.2133 23.7962 35.371 24.067 35.6862C24.3235 36.0015 24.4518 36.4171 24.4518 36.9187V37.5205C24.4518 38.0364 24.3093 38.4233 24.067 38.7529C23.8104 39.0682 23.4684 39.2258 23.0551 39.2258L21.9862 39.2115ZM23.0978 37.4345H22.5135V38.7099H23.0408C23.2974 38.7099 23.5111 38.5953 23.6679 38.3803C23.8247 38.1654 23.896 37.8931 23.896 37.5349V36.933C23.896 36.6034 23.8247 36.3311 23.6679 36.0875C23.5111 35.8725 23.2974 35.7579 23.0408 35.7579H22.5135V36.9473H23.0978V37.4345Z" fill="#292929"/>
<path d="M26.7034 38.2944H25.549L25.2925 39.2401H24.7224L25.8483 35.2277H26.3756L27.5015 39.2401H26.9315L26.7034 38.2944ZM26.3756 34.8408H25.9338L25.3495 34.1099V34.0956H25.9765L26.3756 34.8408ZM25.6915 37.7498H26.5466L26.1333 36.1591H26.1191L25.6915 37.7498Z" fill="#292929"/>
<path d="M30.4661 39.2115H29.9246L28.4709 36.3311H28.4566V39.2115H27.915V35.199H28.4566L29.8961 38.0794H29.9103V35.199H30.4519L30.4661 39.2115Z" fill="#292929"/>
<path d="M34.6561 37.9217C34.6703 38.3374 34.5563 38.667 34.3425 38.9249C34.1288 39.1828 33.8295 39.2975 33.4447 39.2975C33.0741 39.2975 32.7606 39.1399 32.5326 38.8246C32.3045 38.5093 32.1763 38.0937 32.1763 37.6065V36.847C32.1763 36.3598 32.2903 35.9585 32.5326 35.629C32.7606 35.2994 33.0741 35.1561 33.4447 35.1561C33.8295 35.1561 34.1288 35.2707 34.3425 35.5143C34.5563 35.7436 34.6703 36.0875 34.6561 36.4887V36.5031H34.1288C34.1288 36.2308 34.0718 36.0302 33.9578 35.9012C33.8437 35.7579 33.6584 35.6862 33.4305 35.6862C33.2166 35.6862 33.0456 35.8009 32.9031 36.0158C32.7606 36.2308 32.7036 36.5031 32.7036 36.8327V37.5922C32.7036 37.9217 32.7606 38.1941 32.9031 38.409C33.0456 38.6239 33.2166 38.7242 33.4447 38.7242C33.6584 38.7242 33.8295 38.6526 33.9578 38.5093C34.0718 38.366 34.1288 38.1511 34.1288 37.8788L34.6561 37.9217Z" fill="#292929"/>
<path d="M37.6774 35.242V37.8931C37.6774 38.3374 37.5633 38.6956 37.3211 38.9535C37.0931 39.2115 36.7795 39.3261 36.409 39.3261C36.0384 39.3261 35.7534 39.2115 35.5111 38.9535C35.2831 38.6956 35.1548 38.3517 35.1548 37.8931V35.242H35.6964V37.8931C35.6964 38.1941 35.7534 38.409 35.8959 38.5523C36.0384 38.7099 36.1952 38.7816 36.409 38.7816C36.6227 38.7816 36.7937 38.7099 36.9363 38.5523C37.0788 38.3946 37.1358 38.1797 37.1358 37.8931V35.242H37.6774ZM36.2095 34.8837L36.1952 34.4682C36.3092 34.4682 36.3947 34.4539 36.4232 34.4108C36.466 34.3965 36.4945 34.3392 36.4945 34.2675C36.4945 34.1959 36.4517 34.1529 36.3947 34.1099C36.3377 34.0669 36.2522 34.0669 36.1382 34.0669L36.1524 33.7374C36.409 33.7374 36.58 33.7803 36.7225 33.8807C36.865 33.981 36.922 34.0956 36.922 34.2675C36.922 34.3822 36.8793 34.4825 36.8223 34.5685C36.7653 34.6258 36.6797 34.6688 36.5942 34.6832V34.8837H36.2095Z" fill="#292929"/>
<path d="M39.9578 38.2944H38.8034L38.5469 39.2401H37.9768L39.1027 35.2277H39.6158L40.7417 39.2401H40.1716L39.9578 38.2944ZM38.9459 37.7498H39.801L39.3877 36.1591H39.3735L38.9459 37.7498Z" fill="#292929"/>
<path d="M44.8463 39.2115H44.3047V37.5062H42.8368V39.2115H42.2952V35.199H42.8368V36.9616H44.3047V35.199H44.8463V39.2115Z" fill="#292929"/>
<path d="M48.0814 37.6065C48.0814 38.0937 47.9674 38.5093 47.7108 38.8246C47.4543 39.1399 47.1408 39.3118 46.7417 39.3118C46.3569 39.3118 46.0434 39.1542 45.7868 38.8246C45.5303 38.495 45.4163 38.0937 45.4163 37.6065V36.8757C45.4163 36.3884 45.5303 35.9729 45.7868 35.6576C46.0434 35.3423 46.3569 35.1704 46.7417 35.1704C47.1265 35.1704 47.4686 35.328 47.7108 35.6576C47.9531 35.9872 48.0814 36.3884 48.0814 36.8757V37.6065ZM47.5541 36.8613C47.5541 36.5317 47.4828 36.2595 47.3403 36.0445C47.1978 35.8296 47.0125 35.7292 46.7559 35.7292C46.5279 35.7292 46.3284 35.8296 46.1859 36.0445C46.0434 36.2595 45.9721 36.5317 45.9721 36.8613V37.5922C45.9721 37.9217 46.0434 38.1941 46.1859 38.409C46.3284 38.624 46.5137 38.7242 46.7559 38.7242C47.0125 38.7242 47.1978 38.624 47.3403 38.409C47.4828 38.1941 47.5541 37.9217 47.5541 37.5922V36.8613ZM47.5113 34.6975V34.7548H47.0837L46.7702 34.3679L46.4567 34.7548H46.0291V34.6832L46.6134 34.024H46.927L47.5113 34.6975ZM47.0552 40.2146H46.4567V39.6128H47.0552V40.2146Z" fill="#292929"/>
<path d="M49.2501 39.2115H48.7085V35.199H49.2501V39.2115Z" fill="#292929"/>
<path d="M51.6729 38.7099H53.1979V39.2401H51.1313V35.2277H51.6729V38.7099Z" fill="#292929"/>
<path d="M54.2381 39.2115H53.6965V35.199H54.2381V39.2115Z" fill="#292929"/>
<path d="M56.7895 37.4345H55.5211V38.7099H57.0175V39.2401H54.9795V35.2277H57.0032V35.7579H55.5211V36.89H56.7895V37.4345ZM56.7609 34.7691V34.8265H56.3334L56.0198 34.4395L55.7063 34.8265H55.2788V34.7548L55.8631 34.0956H56.1766L56.7609 34.7691Z" fill="#292929"/>
<path d="M60.0532 39.2115H59.5117L58.0722 36.3311H58.0579V39.2115H57.5164V35.199H58.0579L59.4973 38.0794H59.5117V35.199H60.0532V39.2115Z" fill="#292929"/>
<path d="M64.4141 39.2115H63.8726V37.5062H62.4046V39.2115H61.863V35.199H62.4046V36.9616H63.8726V35.199H64.4141V39.2115Z" fill="#292929"/>
<path d="M65.6826 39.2115H65.1411V35.199H65.6826V39.2115Z" fill="#292929"/>
<path d="M68.2335 37.4345H66.9651V38.7099H68.4615V39.2401H66.4092V35.2277H68.4332V35.7579H66.9507V36.89H68.219L68.2335 37.4345ZM68.1907 34.7691V34.8265H67.763L67.4495 34.4395L67.136 34.8265H66.6944V34.7548L67.2786 34.0956H67.5921L68.1907 34.7691ZM67.7491 40.1716H67.1504V39.5697H67.7491V40.1716Z" fill="#292929"/>
<path d="M69.502 37.7212V39.2545H68.9604V35.242H70.2149C70.5711 35.242 70.8558 35.3567 71.0555 35.6003C71.2552 35.8296 71.369 36.1305 71.369 36.5031C71.369 36.8757 71.2691 37.1909 71.0555 37.4059C70.8558 37.6351 70.5711 37.7355 70.2149 37.7355L69.502 37.7212ZM69.502 37.1766H70.2005C70.3997 37.1766 70.5567 37.1193 70.6421 36.976C70.742 36.8327 70.7991 36.675 70.7991 36.4601C70.7991 36.2595 70.742 36.0875 70.6421 35.9442C70.5423 35.8009 70.3858 35.7436 70.2005 35.7436H69.502V37.1766Z" fill="#292929"/>
<path d="M75.2882 35.7723H74.2767V39.2401H73.7352V35.7723H72.7371V35.242H75.2743V35.7723H75.2882Z" fill="#292929"/>
<path d="M78.2389 39.2115H77.6973V37.5062H76.2576V39.2115H75.7161V35.199H76.2576V36.9616H77.7256V35.199H78.2672V39.2115H78.2389Z" fill="#292929"/>
<path d="M80.6473 38.2944H79.4927L79.2364 39.2401H78.666L79.7918 35.2277H80.305L81.4307 39.2401H80.8609L80.6473 38.2944ZM79.6636 37.7498H80.5186L80.1052 36.1591H80.0914L79.6636 37.7498Z" fill="#292929"/>
<path d="M84.4095 39.2115H83.868L82.4282 36.3311H82.4143V39.2115H81.8728V35.199H82.4143L83.8536 38.0794H83.868V35.199H84.4095V39.2115Z" fill="#292929"/>
<path d="M87.6448 39.2115H87.1033V37.5062H85.6353V39.2115H85.0938V35.199H85.6353V36.9616H87.1033V35.199H87.6448V39.2115Z" fill="#292929"/>
<path d="M92.0201 39.2115H91.4642L90.0249 36.3311H90.0105V39.2115H89.469V35.199H90.0105L91.4497 38.0794H91.4642V35.199H92.0057V39.2115H92.0201Z" fill="#292929"/>
<path d="M93.2886 39.2115H92.7471V35.199H93.2886V39.2115Z" fill="#292929"/>
<path d="M95.8396 37.4345H94.5713V38.7099H96.0677V39.2401H94.0298V35.2277H96.0533V35.7579H94.5713V36.89H95.8396V37.4345ZM95.7825 34.7691V34.8265H95.3553L95.0413 34.4395L94.7278 34.8265H94.3005V34.7548L94.8848 34.0956H95.1983L95.7825 34.7691Z" fill="#292929"/>
<path d="M99.0892 39.2115H98.5477L97.1079 36.3311H97.094V39.2115H96.5525V35.199H97.094L98.5332 38.0794H98.5477V35.199H99.0892V39.2115Z" fill="#292929"/>
<path d="M101.954 38.1511L102.01 38.452H102.025L102.082 38.1511L102.866 35.2277H103.45L102.281 39.2401H101.768L100.599 35.2277H101.184L101.954 38.1511Z" fill="#292929"/>
<path d="M104.419 39.2115H103.864V35.199H104.405V39.2115H104.419Z" fill="#292929"/>
<path d="M106.942 37.4345H105.673V38.7099H107.17V39.2401H105.117V35.2277H107.141V35.7579H105.659V36.89H106.927V37.4345H106.942ZM106.913 34.7691V34.8265H106.486L106.172 34.4395L105.859 34.8265H105.431V34.7548L106.016 34.0956H106.329L106.913 34.7691ZM106.457 40.1716H105.859V39.5697H106.457V40.1716Z" fill="#292929"/>
<path d="M109.949 35.7723H108.937V39.2401H108.396V35.7723H107.398V35.242H109.935L109.949 35.7723Z" fill="#292929"/>
<path d="M114.039 39.2115H113.498L112.058 36.3311H112.044V39.2115H111.502V35.199H112.044L113.484 38.0794H113.498V35.199H114.039V39.2115Z" fill="#292929"/>
<path d="M116.462 38.2944H115.308L115.051 39.2401H114.481L115.607 35.2277H116.12L117.246 39.2401H116.676L116.462 38.2944ZM115.464 37.7498H116.319L115.906 36.1591H115.892L115.464 37.7498Z" fill="#292929"/>
<path d="M119.327 38.323L120.282 35.242H120.98V39.2545H120.439V36.3884H120.424L119.526 39.2688H119.156L118.244 36.3311H118.229V39.2688H117.688V35.2563H118.415L119.327 38.323Z" fill="#292929"/>
<path d="M108.111 9.94923C113.369 9.94923 115.208 11.7548 115.921 12.3424V9.94923H121.123V31.6881H116.02V22.3592C116.02 21.4707 115.208 19.0346 113.298 19.0059V31.6881H108.111V9.94923ZM101.797 26.7872H107.084V31.7311H96.9088V9.94923H107.084V14.8931H101.797V18.576H106.315V22.7317H101.797V26.7872ZM91.2507 9.94923H96.1676V31.6881H91.2507V9.94923ZM77.2979 9.94923C82.5571 9.94923 84.3953 11.7548 85.1082 12.3424V9.94923H90.3242V31.6881H85.222V22.3592C85.222 21.4707 84.4097 19.0346 82.5 19.0059V31.6881H77.3123V9.94923H77.2979ZM68.7469 9.94923H73.6494V31.6881H68.7325V22.0009H66.1531V31.6881H61.2362V9.94923H66.1531V17.9455H68.7325L68.7469 9.94923ZM47.0839 9.94923C52.3429 9.94923 54.1814 11.7548 54.894 12.3424V9.94923H60.1104V31.6881H55.008V22.3592C55.008 21.4707 54.1957 19.0346 52.2859 19.0059V31.6881H47.0982V9.94923H47.0839ZM33.1741 31.7311H38.4473V29.0657H41.0126V31.7168H46.2859V9.94923C36.2667 9.96356 33.1883 17.3006 33.1741 22.2732V31.7311ZM41.0269 17.7878V24.5517H38.4758V22.7891C38.4473 21.1554 39.6017 17.7878 41.0269 17.7878ZM27.5018 9.94923H32.4187V31.6881H27.5018V22.0009H24.9507V31.6881H20.0338V9.94923H24.9507V17.9455H27.5303V9.94923H27.5018ZM8.26172 9.94923H19.3354V14.1767H16.3141V31.6738H11.2831V14.191H8.26172V9.94923ZM100.828 9.01777L101.939 7.90002C102.082 7.75672 102.367 7.75672 102.51 7.90002L103.621 9.01777C103.764 9.16107 103.892 9.29005 103.621 9.59098C103.35 9.86325 103.208 9.73428 103.051 9.59098L102.21 8.7455L101.37 9.59098C101.227 9.73428 101.099 9.86325 100.799 9.59098C100.529 9.30438 100.686 9.16107 100.828 9.01777Z" fill="#0098D1"/>
</g>
</g>
<defs>
<clipPath id="clip0_2393_1221">
<rect width="113.245" height="32.4292" fill="white" transform="translate(7.87769 7.78539)"/>
</clipPath>
</defs>
</svg>
