<svg width="23" height="4" viewBox="0 0 23 4" fill="none" xmlns="http://www.w3.org/2000/svg">
<path d="M1.00157 1.56516H0.27604V1.31047H1.00157C1.14209 1.31047 1.25586 1.29104 1.3429 1.2521C1.42994 1.21315 1.49335 1.15908 1.53314 1.08987C1.57417 1.02066 1.5947 0.941739 1.5947 0.8531C1.5947 0.772027 1.57417 0.695732 1.53314 0.624375C1.49335 0.553018 1.42994 0.495757 1.3429 0.452512C1.25586 0.408153 1.14209 0.386014 1.00157 0.386014H0.359972V2.49121H0V0.129733H1.00157C1.20675 0.129733 1.3802 0.160553 1.52195 0.222194C1.6637 0.283835 1.77126 0.369209 1.84462 0.478395C1.91798 0.586546 1.95466 0.710385 1.95466 0.849835C1.95466 1.00123 1.91798 1.13048 1.84462 1.23752C1.77126 1.34456 1.6637 1.42619 1.52195 1.48241C1.3802 1.53752 1.20675 1.56516 1.00157 1.56516ZM2.54561 1.63325V1.5959C2.54561 1.46943 2.56675 1.35212 2.60903 1.24397C2.65131 1.13479 2.71224 1.04017 2.79181 0.960136C2.87139 0.879063 2.96776 0.816307 3.08091 0.772027C3.19406 0.726553 3.32089 0.703856 3.4614 0.703856C3.60315 0.703856 3.7306 0.726553 3.84375 0.772027C3.95815 0.816307 4.05513 0.879063 4.13471 0.960136C4.21553 1.04017 4.27708 1.13479 4.31936 1.24397C4.36164 1.35212 4.38278 1.46943 4.38278 1.5959V1.63325C4.38278 1.75972 4.36164 1.87711 4.31936 1.98518C4.27708 2.09333 4.21553 2.18794 4.13471 2.26901C4.05513 2.34905 3.95877 2.41173 3.84561 2.4572C3.73371 2.50148 3.60687 2.5237 3.46512 2.5237C3.32337 2.5237 3.19593 2.50148 3.08278 2.4572C2.96962 2.41173 2.87263 2.34905 2.79181 2.26901C2.71224 2.18794 2.65131 2.09333 2.60903 1.98518C2.56675 1.87711 2.54561 1.75972 2.54561 1.63325ZM2.89067 1.5959V1.63325C2.89067 1.72085 2.90248 1.80352 2.9261 1.88141C2.94973 1.95818 2.98516 2.02627 3.03242 2.08576C3.08091 2.14525 3.14122 2.19224 3.21334 2.22688C3.28545 2.26041 3.36938 2.27714 3.46512 2.27714C3.55963 2.27714 3.64232 2.26041 3.71319 2.22688C3.78531 2.19224 3.845 2.14525 3.89224 2.08576C3.93949 2.02627 3.97493 1.95818 3.99855 1.88141C4.02343 1.80352 4.03586 1.72085 4.03586 1.63325V1.5959C4.03586 1.50941 4.02343 1.42778 3.99855 1.35101C3.97493 1.2732 3.93887 1.20455 3.89038 1.14506C3.84313 1.08445 3.78345 1.03691 3.71132 1.00235C3.64045 0.967702 3.55714 0.95042 3.4614 0.95042C3.36689 0.95042 3.28359 0.967702 3.21147 1.00235C3.14059 1.03691 3.08091 1.08445 3.03242 1.14506C2.98516 1.20455 2.94973 1.2732 2.9261 1.35101C2.90248 1.42778 2.89067 1.50941 2.89067 1.5959ZM5.63212 2.17982L6.15062 0.736348H6.37818L6.33341 1.02337L5.80558 2.49121H5.58363L5.63212 2.17982ZM5.28334 0.736348L5.72538 2.19606L5.75708 2.49121H5.52394L4.93829 0.736348H5.28334ZM6.8743 2.18468L7.29582 0.736348H7.63901L7.05336 2.49121H6.82207L6.8743 2.18468ZM6.42853 0.736348L6.93585 2.15553L6.99367 2.49121H6.77358L6.23083 1.02018L6.18606 0.736348H6.42853ZM9.13644 2.5237C8.99595 2.5237 8.86847 2.50316 8.75406 2.46206C8.6409 2.41985 8.5433 2.36092 8.46123 2.28526C8.38041 2.2096 8.31824 2.11985 8.27472 2.016C8.2312 1.91223 8.20944 1.79866 8.20944 1.67538V1.60729C8.20944 1.46457 8.23369 1.33755 8.28218 1.22613C8.33067 1.11368 8.39657 1.01851 8.47989 0.940704C8.5632 0.862816 8.65769 0.803883 8.76339 0.763904C8.86911 0.723845 8.97846 0.703856 9.09165 0.703856C9.2359 0.703856 9.36026 0.725518 9.46467 0.768762C9.57035 0.812006 9.65681 0.872532 9.72394 0.95042C9.79107 1.02719 9.84079 1.11798 9.87312 1.22287C9.90545 1.32672 9.92166 1.4402 9.92166 1.56349V1.69816H8.41461V1.45319H9.57658V1.43049C9.57164 1.35268 9.55295 1.27694 9.52062 1.20344C9.48958 1.12993 9.43985 1.06932 9.37144 1.02178C9.30303 0.974231 9.20979 0.95042 9.09165 0.95042C9.01335 0.95042 8.94118 0.964994 8.87534 0.994222C8.8094 1.02233 8.75282 1.06446 8.70557 1.12069C8.65831 1.17691 8.62164 1.24556 8.59553 1.32672C8.56942 1.40779 8.55636 1.50129 8.55636 1.60729V1.67538C8.55636 1.75868 8.56942 1.83705 8.59553 1.91056C8.62288 1.98303 8.66204 2.04682 8.71303 2.10201C8.76525 2.15712 8.82808 2.20037 8.90144 2.23174C8.97598 2.26312 9.06061 2.27873 9.15503 2.27873C9.27692 2.27873 9.38014 2.25715 9.46467 2.2139C9.5492 2.17066 9.6232 2.11276 9.68666 2.04037L9.89556 2.18468C9.85197 2.24202 9.79665 2.29657 9.72952 2.3485C9.66239 2.40042 9.57969 2.44255 9.48143 2.47504C9.38444 2.50746 9.26941 2.5237 9.13644 2.5237ZM10.9751 1.01206V2.49121H10.63V0.736348H10.9658L10.9751 1.01206ZM11.6056 0.726553L11.6037 1.00553C11.5751 1.00011 11.5477 0.99693 11.5216 0.995815C11.4968 0.993665 11.4681 0.992549 11.4358 0.992549C11.3563 0.992549 11.286 1.00338 11.2251 1.02504C11.1642 1.04662 11.1125 1.07689 11.0703 1.11583C11.028 1.15477 10.9945 1.20129 10.9695 1.25536C10.9459 1.30832 10.9303 1.3667 10.9229 1.43049L10.8259 1.47915C10.8259 1.37323 10.8378 1.27368 10.8614 1.18074C10.8862 1.08772 10.9241 1.00553 10.9751 0.934173C11.0261 0.861781 11.0908 0.805556 11.1691 0.765497C11.2487 0.724403 11.3432 0.703856 11.4526 0.703856C11.4775 0.703856 11.5061 0.706563 11.5385 0.711978C11.5708 0.716279 11.5931 0.721217 11.6056 0.726553ZM13.0302 2.5237C12.8897 2.5237 12.7623 2.50316 12.6479 2.46206C12.5347 2.41985 12.4371 2.36092 12.355 2.28526C12.2742 2.2096 12.212 2.11985 12.1685 2.016C12.125 1.91223 12.1032 1.79866 12.1032 1.67538V1.60729C12.1032 1.46457 12.1275 1.33755 12.176 1.22613C12.2245 1.11368 12.2903 1.01851 12.3737 0.940704C12.457 0.862816 12.5515 0.803883 12.6572 0.763904C12.7629 0.723845 12.8723 0.703856 12.9854 0.703856C13.1297 0.703856 13.2541 0.725518 13.3585 0.768762C13.4641 0.812006 13.5506 0.872532 13.6177 0.95042C13.6849 1.02719 13.7346 1.11798 13.7669 1.22287C13.7992 1.32672 13.8155 1.4402 13.8155 1.56349V1.69816H12.3084V1.45319H13.4704V1.43049C13.4654 1.35268 13.4467 1.27694 13.4144 1.20344C13.3834 1.12993 13.3336 1.06932 13.2652 1.02178C13.1968 0.974231 13.1036 0.95042 12.9854 0.95042C12.9071 0.95042 12.835 0.964994 12.7691 0.994222C12.7032 1.02233 12.6466 1.06446 12.5993 1.12069C12.5521 1.17691 12.5155 1.24556 12.4893 1.32672C12.4632 1.40779 12.4502 1.50129 12.4502 1.60729V1.67538C12.4502 1.75868 12.4632 1.83705 12.4893 1.91056C12.5167 1.98303 12.5558 2.04682 12.6068 2.10201C12.6591 2.15712 12.7219 2.20037 12.7952 2.23174C12.8698 2.26312 12.9544 2.27873 13.0489 2.27873C13.1707 2.27873 13.2739 2.25715 13.3585 2.2139C13.4431 2.17066 13.517 2.11276 13.5805 2.04037L13.7894 2.18468C13.7459 2.24202 13.6904 2.29657 13.6233 2.3485C13.5562 2.40042 13.4735 2.44255 13.3753 2.47504C13.2783 2.50746 13.1633 2.5237 13.0302 2.5237ZM15.7959 2.15067V0H16.1428V2.49121H15.8258L15.7959 2.15067ZM14.4381 1.63325V1.59916C14.4381 1.46513 14.4567 1.34344 14.4941 1.23426C14.5326 1.12396 14.5867 1.02934 14.6564 0.95042C14.7272 0.871497 14.8111 0.810892 14.9081 0.768762C15.0064 0.725518 15.1157 0.703856 15.2364 0.703856C15.3632 0.703856 15.4739 0.723367 15.5683 0.762232C15.6641 0.80014 15.7449 0.855808 15.8108 0.929315C15.878 1.00179 15.9308 1.08939 15.9694 1.19205C16.0079 1.29478 16.0347 1.41106 16.0496 1.54079V1.69003C16.0359 1.81865 16.0092 1.93437 15.9694 2.0371C15.9308 2.13984 15.878 2.22744 15.8108 2.29983C15.7449 2.37231 15.6641 2.42798 15.5683 2.46692C15.4726 2.50475 15.3607 2.5237 15.2327 2.5237C15.1146 2.5237 15.0064 2.50148 14.9081 2.4572C14.8111 2.41284 14.7272 2.35065 14.6564 2.27069C14.5867 2.19065 14.5326 2.09659 14.4941 1.98844C14.4567 1.87926 14.4381 1.76083 14.4381 1.63325ZM14.785 1.59916V1.63325C14.785 1.72085 14.7949 1.80296 14.8149 1.87974C14.836 1.95651 14.8683 2.02412 14.9119 2.0825C14.9554 2.14087 15.0107 2.18683 15.0778 2.22035C15.145 2.25285 15.2252 2.26901 15.3184 2.26901C15.4329 2.26901 15.5268 2.24799 15.6001 2.20578C15.6747 2.16357 15.7344 2.1079 15.7792 2.0387C15.8239 1.96949 15.8587 1.89439 15.8836 1.81324V1.42237C15.8686 1.36295 15.8469 1.30561 15.8183 1.2505C15.791 1.19428 15.7549 1.1445 15.7101 1.10126C15.6666 1.0569 15.6125 1.02178 15.5478 0.995815C15.4845 0.969852 15.4093 0.956871 15.3222 0.956871C15.2277 0.956871 15.1462 0.974232 15.0778 1.0088C15.0107 1.04232 14.9554 1.08883 14.9119 1.14832C14.8683 1.2067 14.836 1.27479 14.8149 1.35268C14.7949 1.42945 14.785 1.51156 14.785 1.59916ZM18.2368 0H18.5837V2.15067L18.5538 2.49121H18.2368V0ZM19.9472 1.59916V1.63325C19.9472 1.76083 19.9298 1.87926 19.8949 1.98844C19.8601 2.09659 19.8091 2.19065 19.7419 2.27069C19.6748 2.35065 19.5927 2.41284 19.4957 2.4572C19.3988 2.50148 19.2875 2.5237 19.1619 2.5237C19.0338 2.5237 18.9213 2.50475 18.8243 2.46692C18.7286 2.42798 18.6478 2.37231 18.5818 2.29983C18.5159 2.22744 18.4631 2.13984 18.4233 2.0371C18.3848 1.93437 18.358 1.81865 18.3431 1.69003V1.54079C18.358 1.41106 18.3848 1.29478 18.4233 1.19205C18.4631 1.08939 18.5159 1.00179 18.5818 0.929315C18.6478 0.855808 18.7286 0.80014 18.8243 0.762232C18.9201 0.723367 19.0313 0.703856 19.1582 0.703856C19.285 0.703856 19.3976 0.725518 19.4957 0.768762C19.594 0.810892 19.6761 0.871497 19.7419 0.95042C19.8091 1.02934 19.8601 1.12396 19.8949 1.23426C19.9298 1.34344 19.9472 1.46513 19.9472 1.59916ZM19.6002 1.63325V1.59916C19.6002 1.51156 19.5909 1.42945 19.5722 1.35268C19.5535 1.27479 19.5238 1.2067 19.4827 1.14832C19.4417 1.08883 19.3876 1.04232 19.3205 1.0088C19.2533 0.974232 19.1706 0.956871 19.0724 0.956871C18.9854 0.956871 18.9095 0.969852 18.8449 0.995815C18.7814 1.02178 18.7273 1.0569 18.6826 1.10126C18.6378 1.1445 18.6011 1.19428 18.5725 1.2505C18.5451 1.30561 18.5246 1.36295 18.511 1.42237V1.81324C18.5308 1.88897 18.5632 1.96192 18.608 2.03225C18.6539 2.10145 18.7149 2.15824 18.7907 2.20252C18.8679 2.24687 18.9629 2.26901 19.0761 2.26901C19.1693 2.26901 19.2489 2.25285 19.3149 2.22035C19.382 2.18683 19.436 2.14087 19.4771 2.0825C19.5194 2.02412 19.5505 1.95651 19.5704 1.87974C19.5903 1.80296 19.6002 1.72085 19.6002 1.63325ZM21.2338 2.30955L21.7952 0.736348H22.1644L21.355 2.76206C21.3364 2.80539 21.3115 2.85182 21.2804 2.90159C21.2506 2.9524 21.212 3.0005 21.1647 3.0459C21.1175 3.09137 21.0603 3.12809 20.9932 3.1562C20.9273 3.18543 20.8483 3.2 20.7563 3.2C20.7289 3.2 20.6941 3.19674 20.6519 3.19029C20.6096 3.18384 20.5797 3.17842 20.5623 3.17404L20.5605 2.93074C20.5704 2.93186 20.5859 2.93297 20.6071 2.93401C20.6294 2.93616 20.645 2.93727 20.6537 2.93727C20.732 2.93727 20.7986 2.92811 20.8533 2.90972C20.908 2.89235 20.954 2.86265 20.9913 2.82052C21.0298 2.77943 21.0628 2.72264 21.0902 2.65017L21.2338 2.30955ZM20.8216 0.736348L21.3457 2.09875L21.4352 2.41499L21.1872 2.5253L20.4448 0.736348H20.8216Z" fill="#919EAB"/>
</svg>
