<svg width="129" height="48" viewBox="0 0 129 48" fill="none" xmlns="http://www.w3.org/2000/svg">
<g clip-path="url(#clip0_2393_1217)">
<path fill-rule="evenodd" clip-rule="evenodd" d="M65.5566 22.5911V14.1375H72.8111C73.4452 14.1375 73.9443 14.2735 74.2603 14.5462C74.533 14.7732 74.7147 15.2277 74.7147 15.7738V17.6825C74.7147 18.2282 74.533 18.6823 74.2603 18.9094C73.9443 19.1824 73.4452 19.3181 72.8111 19.3181H67.5058V22.5911H65.5566ZM71.904 15.5918H67.5058V17.8635H71.904C72.2661 17.8635 72.4932 17.8191 72.6299 17.6825C72.7207 17.5915 72.8111 17.4094 72.8111 17.1824V16.2732C72.8111 16.0458 72.7207 15.8638 72.6299 15.7738C72.4932 15.6374 72.2661 15.5918 71.904 15.5918Z" fill="#767676"/>
<path fill-rule="evenodd" clip-rule="evenodd" d="M77.5327 22.5911V14.1375H85.1353C85.8532 14.1375 86.3773 14.2735 86.7112 14.5462C86.9994 14.7732 87.191 15.2277 87.191 15.7738V17.7731C87.191 18.3636 86.9994 18.7737 86.7112 19.0007C86.3773 19.2731 85.8532 19.4095 85.1353 19.4095H83.9871L88.0997 22.5911H85.1353L81.5496 19.4095H79.5876V22.5911H77.5327ZM84.2273 15.5918H79.5876V17.9552H84.2273C84.6084 17.9552 84.8486 17.9092 84.9909 17.8191C85.0867 17.7278 85.1839 17.5457 85.1839 17.2737V16.2732C85.1839 16.0458 85.0867 15.8638 84.9909 15.7738C84.8486 15.6374 84.6084 15.5918 84.2273 15.5918Z" fill="#767676"/>
<path fill-rule="evenodd" clip-rule="evenodd" d="M90.9175 22.5911V14.1375H99.9812V15.5918H93.0055V17.4551H97.0858V18.9094H93.0055V21.0001H100.076V22.5911H90.9175Z" fill="#767676"/>
<path fill-rule="evenodd" clip-rule="evenodd" d="M110.812 15.6374H105.026V17.4551H110.528C111.38 17.4551 111.997 17.5915 112.282 17.8638C112.612 18.1372 112.756 18.6823 112.756 19.4551V20.5917C112.756 21.3632 112.612 21.9086 112.282 22.182C111.997 22.4547 111.38 22.5911 110.528 22.5911H105.075C104.221 22.5911 103.653 22.4547 103.32 22.182C103.036 21.9086 102.893 21.3632 102.893 20.5917V20.3636L104.697 20.0006V21.0001H110.908V19.0914H105.406C104.554 19.0914 103.985 18.955 103.7 18.637C103.367 18.3636 103.224 17.8638 103.224 17.0914V16.1372C103.224 15.3647 103.367 14.8646 103.7 14.5919C103.985 14.2735 104.554 14.1375 105.406 14.1375H110.432C111.286 14.1375 111.855 14.2735 112.14 14.5462C112.47 14.8189 112.612 15.319 112.612 16.0001V16.1829L110.812 16.5913V15.6374Z" fill="#767676"/>
<path fill-rule="evenodd" clip-rule="evenodd" d="M123.492 15.6374H117.707V17.4551H123.208C124.06 17.4551 124.678 17.5915 124.963 17.8638C125.293 18.1372 125.436 18.6823 125.436 19.4551V20.5917C125.436 21.3632 125.293 21.9086 124.963 22.182C124.678 22.4547 124.06 22.5911 123.208 22.5911H117.755C116.901 22.5911 116.334 22.4547 116.001 22.182C115.717 21.9086 115.574 21.3632 115.574 20.5917V20.3636L117.377 20.0006V21.0001H123.588V19.0914H118.087C117.234 19.0914 116.666 18.955 116.38 18.637C116.048 18.3636 115.905 17.8638 115.905 17.0914V16.1372C115.905 15.3647 116.048 14.8646 116.38 14.5919C116.666 14.2735 117.234 14.1375 118.087 14.1375H123.112C123.966 14.1375 124.535 14.2735 124.821 14.5462C125.15 14.8189 125.293 15.319 125.293 16.0001V16.1829L123.492 16.5913V15.6374Z" fill="#767676"/>
<path fill-rule="evenodd" clip-rule="evenodd" d="M51.5599 22.5911L55.6415 18.2732L51.467 14.1375H54.1575L56.8953 17.0003L59.5377 14.1375H61.81L58.054 18.0458L62.7385 22.5911H60.0018L56.849 19.3181L53.9255 22.5911H51.5599Z" fill="#767676"/>
<path fill-rule="evenodd" clip-rule="evenodd" d="M8.63616 22.5911L3.56348 14.1375H5.91189L9.43435 20.2729L12.8155 14.1375H14.835L10.0448 22.5911H8.63616Z" fill="#767676"/>
<path fill-rule="evenodd" clip-rule="evenodd" d="M17.6528 22.5911V14.1375H18.9586L24.8576 19.1367C25.0832 19.3181 25.2642 19.4548 25.3987 19.5915C25.579 19.7275 25.7138 19.9092 25.8493 20.0463C25.804 19.5915 25.7584 19.2274 25.7584 19.0464V18.591V14.1375H27.5154V22.5911H26.165L19.9942 17.3644C19.8601 17.228 19.7243 17.137 19.6341 17.0003C19.4987 16.9097 19.4106 16.8189 19.32 16.6826C19.3649 16.955 19.3649 17.1824 19.3649 17.4551C19.4106 17.6825 19.4106 17.8635 19.4106 18.0458V22.5911H17.6528Z" fill="#767676"/>
<path fill-rule="evenodd" clip-rule="evenodd" d="M48.6494 27.2539C48.6494 27.7913 48.2102 28.2268 47.6682 28.2268H31.3145C30.7725 28.2268 30.3333 27.7913 30.3333 27.2539V8.77006C30.3333 8.23273 30.7725 7.79723 31.3145 7.79723H47.6682C48.2102 7.79723 48.6494 8.23273 48.6494 8.77006V27.2539Z" fill="#9F224E"/>
<path fill-rule="evenodd" clip-rule="evenodd" d="M36.1221 15.3007V15.6198V16.2243H37.2997H40.839V19.0953H37.2997H36.1221V19.7668V20.0858V20.7238V21.6808V22.6044H37.2997H46.2297V25.1564H36.8937H32.753V10.1632H36.8937H46.2297V12.7152H37.2997H36.1221V13.7057V14.6627V15.3007ZM37.1329 13.6722H46.3274C46.8854 13.6722 47.2405 13.277 47.2405 12.7487V10.1967C47.2405 9.6684 46.8854 9.20616 46.3274 9.20616H36.8937H32.8507C32.2924 9.20616 31.7422 9.6684 31.7422 10.1967V25.1899C31.7422 25.7181 32.2924 26.1134 32.8507 26.1134H36.8937H46.3274C46.8854 26.1134 47.2405 25.7181 47.2405 25.1899V22.6378C47.2405 22.1096 46.8854 21.6474 46.3274 21.6474H37.1329V20.7238V20.0523H40.9367C41.4946 20.0523 41.8498 19.6571 41.8498 19.1288V16.2577C41.8498 15.7295 41.4946 15.2673 40.9367 15.2673H37.1329V14.6627V13.6722Z" fill="white"/>
<path d="M123.323 37.3849H124.028V38.0894H123.323V37.3849ZM124.028 38.0894H124.732V38.7938H124.028V38.0894ZM123.323 36.6804H124.028V37.3849H123.323V36.6804ZM123.323 35.976H124.028V36.6804H123.323V35.976ZM123.323 35.2715H124.028V35.976H123.323V35.2715ZM123.323 34.567H124.028V35.2715H123.323V34.567ZM123.323 33.8625H124.028V34.567H123.323V33.8625ZM123.323 33.1581H124.028V33.8625H123.323V33.1581ZM122.619 34.567H123.323V35.2715H122.619V34.567ZM124.028 34.567H124.732V35.2715H124.028V34.567ZM124.732 34.567H125.437V35.2715H124.732V34.567ZM124.732 38.0894H125.437V38.7938H124.732V38.0894Z" fill="#222222"/>
<path d="M119.079 34.5502H121.226V35.2547H121.931V38.8108H119.079V38.1064H118.375V36.6636H119.079V35.9591H121.193V35.2885H119.079V34.5502ZM119.113 38.0725H121.193V36.6974H119.113V38.0725Z" fill="#222222"/>
<path d="M114.165 38.0894H114.869V38.7938H114.165V38.0894ZM114.165 37.3849H114.869V38.0894H114.165V37.3849ZM114.165 36.6804H114.869V37.3849H114.165V36.6804ZM114.165 35.976H114.869V36.6804H114.165V35.976ZM114.165 35.2715H114.869V35.976H114.165V35.2715ZM114.165 34.567H114.869V35.2715H114.165V34.567ZM114.165 33.8625H114.869V34.567H114.165V33.8625ZM114.165 33.1581H114.869V33.8625H114.165V33.1581ZM114.869 34.567H115.574V35.2715H114.869V34.567ZM115.574 34.567H116.278V35.2715H115.574V34.567ZM116.278 34.567H116.983V35.2715H116.278V34.567ZM116.983 35.2715H117.687V35.976H116.983V35.2715ZM116.983 35.976H117.687V36.6804H116.983V35.976ZM116.983 36.6804H117.687V37.3849H116.983V36.6804ZM116.983 37.3849H117.687V38.0894H116.983V37.3849ZM116.983 38.0894H117.687V38.7938H116.983V38.0894Z" fill="#222222"/>
<path d="M109.938 38.0894H110.642V38.7938H109.938V38.0894ZM109.938 37.3849H110.642V38.0894H109.938V37.3849ZM109.938 36.6804H110.642V37.3849H109.938V36.6804ZM109.938 35.976H110.642V36.6804H109.938V35.976ZM109.938 35.2715H110.642V35.976H109.938V35.2715ZM109.938 34.567H110.642V35.2715H109.938V34.567ZM110.642 34.567H111.347V35.2715H110.642V34.567ZM111.347 34.567H112.051V35.2715H111.347V34.567ZM112.051 34.567H112.756V35.2715H112.051V34.567ZM112.756 35.2715H113.46V35.976H112.756V35.2715ZM112.756 35.976H113.46V36.6804H112.756V35.976ZM112.756 36.6804H113.46V37.3849H112.756V36.6804ZM112.756 37.3849H113.46V38.0894H112.756V37.3849ZM112.756 38.0894H113.46V38.7938H112.756V38.0894Z" fill="#222222"/>
<path d="M102.893 38.0894H103.598V38.7938H102.893V38.0894ZM102.893 37.3849H103.598V38.0894H102.893V37.3849ZM102.893 36.6804H103.598V37.3849H102.893V36.6804ZM102.893 35.976H103.598V36.6804H102.893V35.976ZM102.893 35.2715H103.598V35.976H102.893V35.2715ZM102.893 34.567H103.598V35.2715H102.893V34.567ZM103.598 34.567H104.302V35.2715H103.598V34.567ZM104.302 34.567H105.007V35.2715H104.302V34.567ZM105.007 35.2715H105.711V35.976H105.007V35.2715ZM105.007 35.976H105.711V36.6804H105.007V35.976ZM105.007 36.6804H105.711V37.3849H105.007V36.6804ZM105.007 37.3849H105.711V38.0894H105.007V37.3849ZM105.007 38.0894H105.711V38.7938H105.007V38.0894ZM105.711 34.567H106.416V35.2715H105.711V34.567ZM106.416 34.567H107.12V35.2715H106.416V34.567ZM107.12 35.2715H107.825V35.976H107.12V35.2715ZM107.12 35.976H107.825V36.6804H107.12V35.976ZM107.12 36.6804H107.825V37.3849H107.12V36.6804ZM107.12 37.3849H107.825V38.0894H107.12V37.3849ZM107.12 38.0894H107.825V38.7938H107.12V38.0894Z" fill="#222222"/>
<path d="M99.371 38.0894H100.075V38.7938H99.371V38.0894ZM100.075 38.0894H100.78V38.7938H100.075V38.0894ZM100.78 38.0894H101.484V38.7938H100.78V38.0894ZM98.6665 37.3849H99.371V38.0894H98.6665V37.3849ZM98.6665 36.6804H99.371V37.3849H98.6665V36.6804ZM98.6665 35.976H99.371V36.6804H98.6665V35.976ZM98.6665 35.2715H99.371V35.976H98.6665V35.2715ZM99.371 34.567H100.075V35.2715H99.371V34.567ZM100.075 34.567H100.78V35.2715H100.075V34.567ZM100.78 34.567H101.484V35.2715H100.78V34.567ZM101.484 35.2715H102.189V35.976H101.484V35.2715ZM101.484 35.976H102.189V36.6804H101.484V35.976ZM100.78 35.976H101.484V36.6804H100.78V35.976ZM100.075 35.976H100.78V36.6804H100.075V35.976ZM99.371 35.976H100.075V36.6804H99.371V35.976ZM101.484 37.3849H102.189V38.0894H101.484V37.3849Z" fill="#222222"/>
<path d="M94.4397 38.0894H95.1442V38.7938H94.4397V38.0894ZM95.1442 37.3849H95.8486V38.0894H95.1442V37.3849ZM94.4397 34.567H95.1442V35.2715H94.4397V34.567ZM95.1442 35.2715H95.8486V35.976H95.1442V35.2715ZM95.8486 35.976H96.5531V36.6804H95.8486V35.976ZM95.8486 36.6804H96.5531V37.3849H95.8486V36.6804ZM96.5531 35.2715H97.2576V35.976H96.5531V35.2715ZM97.2576 34.567H97.962V35.2715H97.2576V34.567ZM96.5531 37.3849H97.2576V38.0894H96.5531V37.3849ZM97.2576 38.0894H97.962V38.7938H97.2576V38.0894Z" fill="#222222"/>
<path d="M91.6221 38.0894H92.3265V38.7938H91.6221V38.0894ZM91.6221 37.3849H92.3265V38.0894H91.6221V37.3849ZM91.6221 36.6804H92.3265V37.3849H91.6221V36.6804ZM91.6221 35.976H92.3265V36.6804H91.6221V35.976ZM91.6221 35.2715H92.3265V35.976H91.6221V35.2715ZM91.6221 34.567H92.3265V35.2715H91.6221V34.567ZM91.6221 33.1581H92.3265V33.8625H91.6221V33.1581Z" fill="#222222"/>
<path d="M86.6907 37.3849H87.3951V38.0894H86.6907V37.3849ZM86.6907 36.6804H87.3951V37.3849H86.6907V36.6804ZM86.6907 35.976H87.3951V36.6804H86.6907V35.976ZM86.6907 35.2715H87.3951V35.976H86.6907V35.2715ZM87.3951 34.567H88.0996V35.2715H87.3951V34.567ZM88.0996 34.567H88.8041V35.2715H88.0996V34.567ZM88.8041 34.567H89.5085V35.2715H88.8041V34.567ZM89.5085 35.2715H90.213V35.976H89.5085V35.2715ZM89.5085 35.976H90.213V36.6804H89.5085V35.976ZM89.5085 37.3849H90.213V38.0894H89.5085V37.3849ZM89.5085 36.6804H90.213V37.3849H89.5085V36.6804ZM87.3951 38.0894H88.0996V38.7938H87.3951V38.0894ZM88.0996 38.0894H88.8041V38.7938H88.0996V38.0894ZM88.8041 38.0894H89.5085V38.7938H88.8041V38.0894Z" fill="#222222"/>
<path d="M82.4637 38.0894H83.1682V38.7938H82.4637V38.0894ZM81.7593 37.3849H82.4637V38.0894H81.7593V37.3849ZM81.7593 36.6804H82.4637V37.3849H81.7593V36.6804ZM81.7593 35.976H82.4637V36.6804H81.7593V35.976ZM81.7593 35.2715H82.4637V35.976H81.7593V35.2715ZM81.7593 34.567H82.4637V35.2715H81.7593V34.567ZM83.1682 38.0894H83.8727V38.7938H83.1682V38.0894ZM84.5772 38.0894H85.2816V38.7938H84.5772V38.0894ZM84.5772 37.3849H85.2816V38.0894H84.5772V37.3849ZM84.5772 36.6804H85.2816V37.3849H84.5772V36.6804ZM84.5772 35.976H85.2816V36.6804H84.5772V35.976ZM84.5772 35.2715H85.2816V35.976H84.5772V35.2715ZM84.5772 34.567H85.2816V35.2715H84.5772V34.567ZM83.8727 38.0894H84.5772V38.7938H83.8727V38.0894Z" fill="#222222"/>
<path d="M77.5327 37.3849H78.2372V38.0894H77.5327V37.3849ZM77.5327 36.6804H78.2372V37.3849H77.5327V36.6804ZM77.5327 35.976H78.2372V36.6804H77.5327V35.976ZM77.5327 35.2715H78.2372V35.976H77.5327V35.2715ZM78.2372 38.0894H78.9417V38.7938H78.2372V38.0894ZM78.9417 38.0894H79.6461V38.7938H78.9417V38.0894ZM79.6461 38.0894H80.3506V38.7938H79.6461V38.0894ZM78.2372 34.567H78.9417V35.2715H78.2372V34.567ZM78.9417 34.567H79.6461V35.2715H78.9417V34.567ZM79.6461 34.567H80.3506V35.2715H79.6461V34.567ZM80.3506 34.567H81.0551V35.2715H80.3506V34.567ZM80.3506 35.2715H81.0551V35.976H80.3506V35.2715ZM80.3506 35.976H81.0551V36.6804H80.3506V35.976ZM80.3506 36.6804H81.0551V37.3849H80.3506V36.6804ZM80.3506 37.3849H81.0551V38.0894H80.3506V37.3849ZM80.3506 38.0894H81.0551V38.7938H80.3506V38.0894ZM80.3506 38.7938H81.0551V39.4983H80.3506V38.7938ZM79.6461 39.4983H80.3506V40.2028H79.6461V39.4983ZM78.9417 39.4983H79.6461V40.2028H78.9417V39.4983ZM78.2372 39.4983H78.9417V40.2028H78.2372V39.4983Z" fill="#222222"/>
<path d="M73.3059 38.0894H74.0104V38.7938H73.3059V38.0894ZM73.3059 37.3849H74.0104V38.0894H73.3059V37.3849ZM73.3059 36.6804H74.0104V37.3849H73.3059V36.6804ZM73.3059 35.976H74.0104V36.6804H73.3059V35.976ZM73.3059 35.2715H74.0104V35.976H73.3059V35.2715ZM73.3059 34.567H74.0104V35.2715H73.3059V34.567ZM74.0104 34.567H74.7148V35.2715H74.0104V34.567ZM74.7148 34.567H75.4193V35.2715H74.7148V34.567ZM75.4193 34.567H76.1238V35.2715H75.4193V34.567ZM76.1238 35.2715H76.8283V35.976H76.1238V35.2715ZM76.1238 35.976H76.8283V36.6804H76.1238V35.976ZM76.1238 36.6804H76.8283V37.3849H76.1238V36.6804ZM76.1238 37.3849H76.8283V38.0894H76.1238V37.3849ZM76.1238 38.0894H76.8283V38.7938H76.1238V38.0894Z" fill="#222222"/>
<path d="M68.3744 38.0894H69.0789V38.7938H68.3744V38.0894ZM67.6699 37.3849H68.3744V38.0894H67.6699V37.3849ZM67.6699 36.6804H68.3744V37.3849H67.6699V36.6804ZM67.6699 35.976H68.3744V36.6804H67.6699V35.976ZM67.6699 35.2715H68.3744V35.976H67.6699V35.2715ZM67.6699 34.567H68.3744V35.2715H67.6699V34.567ZM69.0789 38.0894H69.7833V38.7938H69.0789V38.0894ZM70.4878 38.0894H71.1923V38.7938H70.4878V38.0894ZM70.4878 37.3849H71.1923V38.0894H70.4878V37.3849ZM70.4878 36.6804H71.1923V37.3849H70.4878V36.6804ZM70.4878 35.976H71.1923V36.6804H70.4878V35.976ZM70.4878 35.2715H71.1923V35.976H70.4878V35.2715ZM70.4878 34.567H71.1923V35.2715H70.4878V34.567ZM69.7833 38.0894H70.4878V38.7938H69.7833V38.0894Z" fill="#222222"/>
<path d="M64.1476 38.0894H64.8521V38.7938H64.1476V38.0894ZM64.8521 38.0894H65.5565V38.7938H64.8521V38.0894ZM65.5565 38.0894H66.261V38.7938H65.5565V38.0894ZM63.4431 37.3849H64.1476V38.0894H63.4431V37.3849ZM63.4431 36.6804H64.1476V37.3849H63.4431V36.6804ZM63.4431 35.976H64.1476V36.6804H63.4431V35.976ZM63.4431 35.2715H64.1476V35.976H63.4431V35.2715ZM64.1476 34.567H64.8521V35.2715H64.1476V34.567ZM64.8521 34.567H65.5565V35.2715H64.8521V34.567ZM65.5565 34.567H66.261V35.2715H65.5565V34.567ZM66.261 35.2715H66.9655V35.976H66.261V35.2715ZM66.261 35.976H66.9655V36.6804H66.261V35.976ZM65.5565 35.976H66.261V36.6804H65.5565V35.976ZM64.8521 35.976H65.5565V36.6804H64.8521V35.976ZM64.1476 35.976H64.8521V36.6804H64.1476V35.976ZM66.261 37.3849H66.9655V38.0894H66.261V37.3849Z" fill="#222222"/>
<path d="M62.0342 38.0894H62.7386V38.7938H62.0342V38.0894ZM62.0342 37.3849H62.7386V38.0894H62.0342V37.3849ZM62.0342 36.6804H62.7386V37.3849H62.0342V36.6804ZM62.0342 35.976H62.7386V36.6804H62.0342V35.976ZM62.0342 35.2715H62.7386V35.976H62.0342V35.2715ZM62.0342 34.567H62.7386V35.2715H62.0342V34.567ZM62.0342 33.1581H62.7386V33.8625H62.0342V33.1581Z" fill="#222222"/>
<path d="M57.8074 38.0894H58.5118V38.7938H57.8074V38.0894ZM57.8074 37.3849H58.5118V38.0894H57.8074V37.3849ZM57.8074 36.6804H58.5118V37.3849H57.8074V36.6804ZM57.8074 35.976H58.5118V36.6804H57.8074V35.976ZM57.8074 35.2715H58.5118V35.976H57.8074V35.2715ZM57.8074 34.567H58.5118V35.2715H57.8074V34.567ZM57.8074 33.8625H58.5118V34.567H57.8074V33.8625ZM57.8074 33.1581H58.5118V33.8625H57.8074V33.1581ZM58.5118 34.567H59.2163V35.2715H58.5118V34.567ZM59.2163 34.567H59.9208V35.2715H59.2163V34.567ZM59.9208 34.567H60.6252V35.2715H59.9208V34.567ZM60.6252 35.2715H61.3297V35.976H60.6252V35.2715ZM60.6252 35.976H61.3297V36.6804H60.6252V35.976ZM60.6252 36.6804H61.3297V37.3849H60.6252V36.6804ZM60.6252 37.3849H61.3297V38.0894H60.6252V37.3849ZM60.6252 38.0894H61.3297V38.7938H60.6252V38.0894Z" fill="#222222"/>
<path d="M53.5806 38.0894H54.285V38.7938H53.5806V38.0894ZM53.5806 37.3849H54.285V38.0894H53.5806V37.3849ZM53.5806 36.6804H54.285V37.3849H53.5806V36.6804ZM53.5806 35.976H54.285V36.6804H53.5806V35.976ZM53.5806 35.2715H54.285V35.976H53.5806V35.2715ZM53.5806 34.567H54.285V35.2715H53.5806V34.567ZM54.285 34.567H54.9895V35.2715H54.285V34.567ZM54.9895 34.567H55.694V35.2715H54.9895V34.567ZM55.694 34.567H56.3984V35.2715H55.694V34.567ZM56.3984 35.2715H57.1029V35.976H56.3984V35.2715ZM56.3984 35.976H57.1029V36.6804H56.3984V35.976ZM56.3984 36.6804H57.1029V37.3849H56.3984V36.6804ZM56.3984 37.3849H57.1029V38.0894H56.3984V37.3849ZM56.3984 38.0894H57.1029V38.7938H56.3984V38.0894Z" fill="#222222"/>
<path d="M49.3539 37.3849H50.0584V38.0894H49.3539V37.3849ZM50.0584 38.0894H50.7628V38.7938H50.0584V38.0894ZM49.3539 36.6804H50.0584V37.3849H49.3539V36.6804ZM49.3539 35.976H50.0584V36.6804H49.3539V35.976ZM49.3539 35.2715H50.0584V35.976H49.3539V35.2715ZM49.3539 34.567H50.0584V35.2715H49.3539V34.567ZM49.3539 33.8625H50.0584V34.567H49.3539V33.8625ZM49.3539 33.1581H50.0584V33.8625H49.3539V33.1581ZM48.6494 34.567H49.3539V35.2715H48.6494V34.567ZM50.0584 34.567H50.7628V35.2715H50.0584V34.567ZM50.7628 34.567H51.4673V35.2715H50.7628V34.567ZM50.7628 38.0894H51.4673V38.7938H50.7628V38.0894Z" fill="#222222"/>
<path d="M45.1271 38.0894H45.8315V38.7938H45.1271V38.0894ZM45.8315 38.0894H46.536V38.7938H45.8315V38.0894ZM46.536 38.0894H47.2405V38.7938H46.536V38.0894ZM44.4226 37.3849H45.1271V38.0894H44.4226V37.3849ZM44.4226 36.6804H45.1271V37.3849H44.4226V36.6804ZM44.4226 35.976H45.1271V36.6804H44.4226V35.976ZM44.4226 35.2715H45.1271V35.976H44.4226V35.2715ZM45.1271 34.567H45.8315V35.2715H45.1271V34.567ZM45.8315 34.567H46.536V35.2715H45.8315V34.567ZM46.536 34.567H47.2405V35.2715H46.536V34.567ZM47.2405 35.2715H47.9449V35.976H47.2405V35.2715ZM47.2405 35.976H47.9449V36.6804H47.2405V35.976ZM46.536 35.976H47.2405V36.6804H46.536V35.976ZM45.8315 35.976H46.536V36.6804H45.8315V35.976ZM45.1271 35.976H45.8315V36.6804H45.1271V35.976ZM47.2405 37.3849H47.9449V38.0894H47.2405V37.3849Z" fill="#222222"/>
<path d="M43.0137 38.0894H43.7181V38.7938H43.0137V38.0894ZM43.0137 37.3849H43.7181V38.0894H43.0137V37.3849ZM43.0137 36.6804H43.7181V37.3849H43.0137V36.6804ZM43.0137 35.976H43.7181V36.6804H43.0137V35.976ZM43.0137 35.2715H43.7181V35.976H43.0137V35.2715ZM43.0137 34.567H43.7181V35.2715H43.0137V34.567ZM43.0137 33.1581H43.7181V33.8625H43.0137V33.1581Z" fill="#222222"/>
<path d="M37.3779 33.1581H38.0824V33.8625H37.3779V33.1581ZM37.3779 33.8625H38.0824V34.567H37.3779V33.8625ZM38.0824 34.567H38.7869V35.2715H38.0824V34.567ZM38.0824 35.2715H38.7869V35.976H38.0824V35.2715ZM38.7869 35.976H39.4913V36.6804H38.7869V35.976ZM38.7869 36.6804H39.4913V37.3849H38.7869V36.6804ZM39.4913 37.3849H40.1958V38.0894H39.4913V37.3849ZM39.4913 38.0894H40.1958V38.7938H39.4913V38.0894ZM40.1958 36.6804H40.9003V37.3849H40.1958V36.6804ZM40.1958 35.976H40.9003V36.6804H40.1958V35.976ZM40.9003 35.2715H41.6047V35.976H40.9003V35.2715ZM40.9003 34.567H41.6047V35.2715H40.9003V34.567ZM41.6047 33.8625H42.3092V34.567H41.6047V33.8625ZM41.6047 33.1581H42.3092V33.8625H41.6047V33.1581Z" fill="#222222"/>
<path d="M31.7422 37.3849H32.4467V38.0894H31.7422V37.3849ZM31.7422 36.6804H32.4467V37.3849H31.7422V36.6804ZM31.7422 35.976H32.4467V36.6804H31.7422V35.976ZM31.7422 35.2715H32.4467V35.976H31.7422V35.2715ZM32.4467 38.0894H33.1511V38.7938H32.4467V38.0894ZM33.1511 38.0894H33.8556V38.7938H33.1511V38.0894ZM33.8556 38.0894H34.5601V38.7938H33.8556V38.0894ZM32.4467 34.567H33.1511V35.2715H32.4467V34.567ZM33.1511 34.567H33.8556V35.2715H33.1511V34.567ZM33.8556 34.567H34.5601V35.2715H33.8556V34.567ZM34.5601 34.567H35.2645V35.2715H34.5601V34.567ZM34.5601 35.2715H35.2645V35.976H34.5601V35.2715ZM34.5601 35.976H35.2645V36.6804H34.5601V35.976ZM34.5601 36.6804H35.2645V37.3849H34.5601V36.6804ZM34.5601 37.3849H35.2645V38.0894H34.5601V37.3849ZM34.5601 38.0894H35.2645V38.7938H34.5601V38.0894ZM34.5601 38.7938H35.2645V39.4983H34.5601V38.7938ZM33.8556 39.4983H34.5601V40.2028H33.8556V39.4983ZM33.1511 39.4983H33.8556V40.2028H33.1511V39.4983ZM32.4467 39.4983H33.1511V40.2028H32.4467V39.4983Z" fill="#222222"/>
<path d="M27.5154 38.0894H28.2198V38.7938H27.5154V38.0894ZM27.5154 37.3849H28.2198V38.0894H27.5154V37.3849ZM27.5154 36.6804H28.2198V37.3849H27.5154V36.6804ZM27.5154 35.976H28.2198V36.6804H27.5154V35.976ZM27.5154 35.2715H28.2198V35.976H27.5154V35.2715ZM27.5154 34.567H28.2198V35.2715H27.5154V34.567ZM28.2198 34.567H28.9243V35.2715H28.2198V34.567ZM28.9243 34.567H29.6288V35.2715H28.9243V34.567ZM29.6288 34.567H30.3333V35.2715H29.6288V34.567ZM30.3333 35.2715H31.0377V35.976H30.3333V35.2715ZM30.3333 35.976H31.0377V36.6804H30.3333V35.976ZM30.3333 36.6804H31.0377V37.3849H30.3333V36.6804ZM30.3333 37.3849H31.0377V38.0894H30.3333V37.3849ZM30.3333 38.0894H31.0377V38.7938H30.3333V38.0894Z" fill="#222222"/>
<path d="M23.993 38.0894H24.6975V38.7938H23.993V38.0894ZM24.6975 38.0894H25.402V38.7938H24.6975V38.0894ZM25.402 38.0894H26.1064V38.7938H25.402V38.0894ZM23.2886 37.3849H23.993V38.0894H23.2886V37.3849ZM23.2886 36.6804H23.993V37.3849H23.2886V36.6804ZM23.2886 35.976H23.993V36.6804H23.2886V35.976ZM23.2886 35.2715H23.993V35.976H23.2886V35.2715ZM23.993 34.567H24.6975V35.2715H23.993V34.567ZM24.6975 34.567H25.402V35.2715H24.6975V34.567ZM25.402 34.567H26.1064V35.2715H25.402V34.567ZM26.1064 35.2715H26.8109V35.976H26.1064V35.2715ZM26.1064 35.976H26.8109V36.6804H26.1064V35.976ZM25.402 35.976H26.1064V36.6804H25.402V35.976ZM24.6975 35.976H25.402V36.6804H24.6975V35.976ZM23.993 35.976H24.6975V36.6804H23.993V35.976ZM26.1064 37.3849H26.8109V38.0894H26.1064V37.3849Z" fill="#222222"/>
<path d="M21.8796 38.0894H22.5841V38.7938H21.8796V38.0894ZM21.8796 37.3849H22.5841V38.0894H21.8796V37.3849ZM21.8796 36.6804H22.5841V37.3849H21.8796V36.6804ZM21.8796 35.976H22.5841V36.6804H21.8796V35.976ZM21.8796 35.2715H22.5841V35.976H21.8796V35.2715ZM21.8796 34.567H22.5841V35.2715H21.8796V34.567ZM21.8796 33.1581H22.5841V33.8625H21.8796V33.1581Z" fill="#222222"/>
<path d="M19.0616 37.3849H19.7661V38.0894H19.0616V37.3849ZM19.7661 38.0894H20.4706V38.7938H19.7661V38.0894ZM19.0616 36.6804H19.7661V37.3849H19.0616V36.6804ZM19.0616 35.976H19.7661V36.6804H19.0616V35.976ZM19.0616 35.2715H19.7661V35.976H19.0616V35.2715ZM19.0616 34.567H19.7661V35.2715H19.0616V34.567ZM19.0616 33.8625H19.7661V34.567H19.0616V33.8625ZM19.0616 33.1581H19.7661V33.8625H19.0616V33.1581ZM18.3572 34.567H19.0616V35.2715H18.3572V34.567ZM19.7661 34.567H20.4706V35.2715H19.7661V34.567ZM20.4706 34.567H21.1751V35.2715H20.4706V34.567ZM20.4706 38.0894H21.1751V38.7938H20.4706V38.0894Z" fill="#222222"/>
<path d="M12.7214 37.3849H13.4259V38.0894H12.7214V37.3849ZM12.7214 36.6804H13.4259V37.3849H12.7214V36.6804ZM12.7214 35.976H13.4259V36.6804H12.7214V35.976ZM12.7214 35.2715H13.4259V35.976H12.7214V35.2715ZM13.4259 34.567H14.1304V35.2715H13.4259V34.567ZM14.1304 34.567H14.8348V35.2715H14.1304V34.567ZM14.8348 34.567H15.5393V35.2715H14.8348V34.567ZM15.5393 35.2715H16.2438V35.976H15.5393V35.2715ZM15.5393 35.976H16.2438V36.6804H15.5393V35.976ZM15.5393 37.3849H16.2438V38.0894H15.5393V37.3849ZM15.5393 36.6804H16.2438V37.3849H15.5393V36.6804ZM13.4259 38.0894H14.1304V38.7938H13.4259V38.0894ZM14.1304 38.0894H14.8348V38.7938H14.1304V38.0894ZM14.8348 38.0894H15.5393V38.7938H14.8348V38.0894Z" fill="#222222"/>
<path d="M9.18225 34.5501H11.3295V35.2546H12.0339V38.8107H9.18225V38.1063H8.47778V36.6635H9.18225V35.9591H11.2956V35.2884H9.18225V34.5501ZM9.21607 38.0725H11.2956V36.6973H9.21607V38.0725ZM9.90363 33.1581H10.6081V33.8626H9.90363V33.1581ZM10.6081 32.4536H11.3126V33.1581H10.6081V32.4536Z" fill="#222222"/>
<path d="M26.8108 31.7492H27.5153V31.0447H28.2197V31.7492H27.5153V32.4536H26.8108V31.7492Z" fill="#222222"/>
<path d="M121.914 31.7492H122.619V31.0447H123.323V31.7492H122.619V32.4536H121.914V31.7492Z" fill="#222222"/>
<path d="M64.1477 31.7492H63.4432V31.0447H62.7388V31.7492H63.4432V32.4536H64.1477V31.7492Z" fill="#222222"/>
<path d="M88.804 31.7492H88.0995V31.0447H87.395V31.7492H88.0995V32.4536H88.804V31.7492Z" fill="#222222"/>
<path d="M3.56348 38.0894H4.26794V38.7938H3.56348V38.0894ZM4.26794 38.0894H4.97241V38.7938H4.26794V38.0894ZM4.97241 38.0894H5.67688V38.7938H4.97241V38.0894ZM5.67688 38.0894H6.38135V38.7938H5.67688V38.0894ZM6.38135 38.0894H7.08582V38.7938H6.38135V38.0894ZM7.08582 37.3849H7.79029V38.0894H7.08582V37.3849ZM7.08582 36.6804H7.79029V37.3849H7.08582V36.6804ZM7.08582 35.976H7.79029V36.6804H7.08582V35.976ZM6.38135 35.2715H7.08582V35.976H6.38135V35.2715ZM7.08582 34.567H7.79029V35.2715H7.08582V34.567ZM7.08582 33.8625H7.79029V34.567H7.08582V33.8625ZM6.38135 33.1581H7.08582V33.8625H6.38135V33.1581ZM5.67688 33.1581H6.38135V33.8625H5.67688V33.1581ZM4.97241 33.1581H5.67688V33.8625H4.97241V33.1581ZM4.26794 33.1581H4.97241V33.8625H4.26794V33.1581ZM3.56348 33.1581H4.26794V33.8625H3.56348V33.1581ZM3.56348 33.8625H4.26794V34.567H3.56348V33.8625ZM3.56348 34.567H4.26794V35.2715H3.56348V34.567ZM3.56348 35.2715H4.26794V35.976H3.56348V35.2715ZM3.56348 35.976H4.26794V36.6804H3.56348V35.976ZM3.56348 36.6804H4.26794V37.3849H3.56348V36.6804ZM3.56348 37.3849H4.26794V38.0894H3.56348V37.3849ZM4.26794 35.2715H4.97241V35.976H4.26794V35.2715ZM4.97241 35.2715H5.67688V35.976H4.97241V35.2715ZM5.67688 35.2715H6.38135V35.976H5.67688V35.2715Z" fill="#222222"/>
<path d="M85.2817 33.8626H85.9862V34.567H85.2817V33.8626Z" fill="#222222"/>
<path d="M85.2817 34.567H85.9862V35.2715H85.2817V34.567Z" fill="#222222"/>
<path d="M90.2129 33.8626H90.9174V34.567H90.2129V33.8626Z" fill="#222222"/>
<path d="M88.804 32.4536H89.5084V33.1581H88.804V32.4536Z" fill="#222222"/>
<path d="M90.2129 34.567H90.9174V35.2715H90.2129V34.567Z" fill="#222222"/>
<path d="M45.8315 39.4983H46.536V40.2028H45.8315V39.4983Z" fill="#222222"/>
<path d="M24.6974 32.4536H25.4019V33.1581H24.6974V32.4536ZM23.9929 33.1581H24.6974V33.8626H23.9929V33.1581ZM25.4019 33.1581H26.1063V33.8626H25.4019V33.1581Z" fill="#222222"/>
<path d="M119.801 32.4536H120.505V33.1581H119.801V32.4536ZM119.096 33.1581H119.801V33.8626H119.096V33.1581ZM120.505 33.1581H121.21V33.8626H120.505V33.1581Z" fill="#222222"/>
<path d="M64.8522 32.4536H65.5566V33.1581H64.8522V32.4536ZM64.1477 33.1581H64.8522V33.8626H64.1477V33.1581ZM65.5566 33.1581H66.2611V33.8626H65.5566V33.1581Z" fill="#222222"/>
<path d="M45.8314 32.4536H46.5359V33.1581H45.8314V32.4536ZM45.127 33.1581H45.8314V33.8626H45.127V33.1581ZM46.5359 33.1581H47.2404V33.8626H46.5359V33.1581Z" fill="#222222"/>
</g>
<defs>
<clipPath id="clip0_2393_1217">
<rect width="121.873" height="32.4055" fill="white" transform="translate(3.56348 7.79723)"/>
</clipPath>
</defs>
</svg>
