<svg width="129" height="48" viewBox="0 0 129 48" fill="none" xmlns="http://www.w3.org/2000/svg">
<path d="M94.3866 24.9333H93.7258V20.5566L95.1365 18.9273C95.2731 18.7764 95.3565 18.575 95.3565 18.3557C95.3565 17.8848 94.9755 17.503 94.5045 17.503H94.5038H93.7258V15.0008C93.7258 14.6586 93.5209 14.3501 93.206 14.2164C93.0988 14.1703 92.9859 14.1488 92.8738 14.1488C92.6566 14.1488 92.4424 14.2315 92.2806 14.3889L90.4773 16.1354C90.3112 16.2965 90.2177 16.5172 90.2177 16.748V19.1244L89.0529 17.4606C88.907 17.2528 88.6769 17.1197 88.4238 17.0996C88.4001 17.0975 88.3771 17.0967 88.354 17.0967C88.1254 17.0967 87.9054 17.188 87.7443 17.3527L84.9322 20.2244C84.9056 20.2518 84.8848 20.282 84.8625 20.3114V19.4817C84.8625 19.2912 84.7978 19.1057 84.6799 18.9554L83.4777 17.4232C83.326 17.2298 83.098 17.1111 82.8521 17.0982C82.837 17.0975 82.8219 17.0975 82.8068 17.0975C82.5768 17.0975 82.356 17.1902 82.195 17.3556L81.6593 17.9063C81.6435 17.5763 81.4357 17.283 81.1258 17.1586C81.0222 17.1169 80.9151 17.0975 80.8087 17.0975C80.5808 17.0975 80.3564 17.1888 80.1925 17.3599L78.3885 19.2423C78.2368 19.4012 78.1512 19.6126 78.1512 19.8326V25.8385H78.1354C78.1455 25.6933 78.1203 25.5444 78.0549 25.4085C77.9125 25.1137 77.6141 24.9261 77.287 24.9261H77.0468V19.4946C77.0468 19.2962 76.9778 19.1049 76.852 18.9518L75.5549 17.3815C75.4046 17.2003 75.1853 17.0881 74.9502 17.0737C74.9322 17.073 74.9149 17.0723 74.897 17.0723C74.6805 17.0723 74.4706 17.155 74.3124 17.3045L73.2109 18.3421L72.4559 17.3937C72.3042 17.2024 72.077 17.0859 71.8325 17.073C71.8174 17.0723 71.8038 17.0723 71.7887 17.0723C71.56 17.0723 71.34 17.1643 71.1789 17.3283L70.9539 17.5583C70.8633 17.3678 70.7029 17.2139 70.4987 17.1327C70.3959 17.0917 70.2895 17.0723 70.1838 17.0723C69.9544 17.0723 69.7287 17.165 69.5647 17.3383L67.7543 19.2502C67.6665 19.3422 67.6047 19.4544 67.5666 19.5737C67.5256 19.4652 67.4645 19.3638 67.3825 19.2789L65.5045 17.3326C65.3377 17.1593 65.1148 17.0716 64.8904 17.0716C64.697 17.0716 64.5036 17.1363 64.3454 17.2686L61.3371 19.77V19.4609C61.3371 19.271 61.2745 19.087 61.158 18.9374L59.9623 17.4002C59.8947 17.3124 59.8099 17.2413 59.7157 17.1866L66.0243 11.1943C66.3464 10.8888 66.3802 10.3862 66.1005 10.041C65.933 9.83324 65.6857 9.72395 65.4369 9.72395C65.2701 9.72395 65.1025 9.77285 64.9551 9.87279L54.4036 17.0852V14.9857C54.4036 14.6435 54.1994 14.335 53.8845 14.2013C53.7766 14.1552 53.663 14.133 53.5508 14.133C53.3344 14.133 53.1216 14.2156 52.9598 14.3717L51.1493 16.111C50.9818 16.2727 50.8876 16.4942 50.8876 16.7257V19.12L49.707 17.4332C49.5603 17.2247 49.3288 17.0917 49.075 17.0723C49.052 17.0708 49.0297 17.0701 49.0081 17.0701C48.7773 17.0701 48.5558 17.1636 48.3941 17.3311L45.5935 20.2331C45.554 20.2748 45.5187 20.3194 45.4885 20.3675V17.9236C45.4885 17.8855 45.4849 17.8488 45.4799 17.8114C46.841 17.252 47.8009 15.919 47.8009 14.3688C47.8009 12.2628 46.1515 10.6119 44.0455 10.6119C41.9905 10.6119 40.3181 12.2966 40.3181 14.3688C40.3181 15.4308 40.7668 16.3878 41.4822 17.0665H40.8602V17.0867C40.807 17.0766 40.7524 17.0701 40.6956 17.0701H29.9377C29.5667 17.0701 29.2395 17.3096 29.1252 17.6619C29.0123 18.0149 29.1396 18.3996 29.4401 18.616C33.7894 21.7373 36.3498 25.9061 37.7318 28.8526C39.241 32.0724 39.7156 34.5817 39.7199 34.6062C39.7774 34.9154 39.9996 35.1677 40.2987 35.2641C40.3835 35.2907 40.472 35.3043 40.559 35.3043C40.7768 35.3043 40.9896 35.2209 41.1514 35.0649L47.9648 28.4838C48.0202 28.4298 48.0669 28.3687 48.105 28.304H48.9743C49.2101 28.304 49.4345 28.2062 49.5955 28.0344L50.8869 26.6582V27.4505C50.8869 27.6497 50.9574 27.8302 51.0717 27.9747C50.9804 28.1099 50.9272 28.2731 50.9272 28.4478V29.0273C50.9272 29.2898 51.0487 29.522 51.2349 29.6788C51.1831 29.7277 51.1371 29.7845 51.0983 29.8463C50.943 30.0972 50.9272 30.41 51.058 30.6739L52.2825 33.1545C52.386 33.3637 52.5694 33.5169 52.7844 33.5873V33.6434H93.4245V33.6298H93.7711C94.2421 33.6298 94.6239 33.248 94.6239 32.777V30.2971C94.6239 30.0857 94.544 29.8945 94.4161 29.7456C94.6541 29.5947 94.8122 29.3301 94.8122 29.0273V28.4478C94.8122 27.9984 94.4628 27.6332 94.0206 27.6015L95.0502 26.3188C95.2559 26.0636 95.2961 25.712 95.1545 25.4165C95.0136 25.1217 94.7137 24.9333 94.3866 24.9333Z" fill="white"/>
<path fill-rule="evenodd" clip-rule="evenodd" d="M91.0689 27.4534H93.0477L94.3857 25.786H92.8722V20.2388L94.5029 18.3557H92.8722V15.0001L91.0689 16.7466V27.4534ZM87.3452 23.4967V19.5198L88.8177 21.7509L87.3452 23.4967ZM85.5404 27.4534H88.2957L89.8667 25.786H87.3459V24.0784L90.255 20.6645L88.3539 17.948L85.5404 20.8205V27.4534ZM79.0031 27.4534H80.8072V20.4912L81.6218 19.7334L82.2624 20.5099V27.4534H83.7954L85.114 25.786H84.0082V19.4803L82.8053 17.948L80.8064 20.0051V17.948L79.0024 19.8311L79.0031 27.4534ZM93.9608 29.0281H51.7805V28.4485H93.9608V29.0281Z" fill="#CB2026"/>
<path fill-rule="evenodd" clip-rule="evenodd" d="M46.9487 14.3681C46.9487 15.9607 45.6674 17.2412 44.0453 17.2412C42.4512 17.2412 41.1707 15.9607 41.1707 14.3681C41.1707 12.7445 42.4512 11.4647 44.0453 11.4647C45.6674 11.4647 46.9487 12.7452 46.9487 14.3681ZM45.7889 24.0748L45.0555 24.5817V25.3575H45.7889V24.0748Z" fill="#CB2026"/>
<path fill-rule="evenodd" clip-rule="evenodd" d="M68.3717 19.8347L70.1822 17.9229V19.5622L71.787 17.9229L73.1194 19.596L74.8953 17.9229L76.1932 19.4925V25.776H77.2868L75.9545 27.4505H74.4517V20.5854L73.6658 19.596L73.1539 20.108V27.4505H71.4807V20.484L70.6949 19.5622L70.1829 20.0749V27.4505H68.3724V19.8347M61.9516 23.4895L65.0247 20.6889L63.7952 19.3566V20.7572H61.8495V20.4502L64.8881 17.9229L66.7669 19.8692V25.776H67.9274L66.595 27.4505H65.0247V26.0499L63.4199 27.4505H61.9516V23.4895ZM65.0247 25.7767V21.2023L63.7269 22.3973V25.7767H65.0247ZM55.4632 19.8347L57.273 17.9229V20.0059L59.2877 17.9229L60.4827 19.4594V25.7767H61.5763L60.2785 27.4513H58.7427V20.484L58.0934 19.7326L57.2737 20.484V27.4505H55.464L55.4632 19.8347ZM51.7395 16.7264L53.5499 14.9864V18.332H55.1548L53.5499 20.2108V25.7767H55.052L53.7196 27.4513H51.7395V16.7264ZM46.2066 20.8248L49.0072 17.9229L50.9205 20.6544L48.0171 24.0697V25.7767H50.5445L48.9734 27.4513H46.2059V20.8248M49.4861 21.7473L48.0171 19.4932V23.4895L49.4861 21.7473ZM42.8604 19.8347L44.6356 17.9229V25.776H45.7285L44.4314 27.4505H42.8604V19.8347Z" fill="#293787"/>
<path d="M51.823 30.2971H52.6535L53.5587 32.1572H53.6982L54.5941 30.2971H55.421L54.2087 32.777H53.0468L51.823 30.2971Z" fill="#293787"/>
<path d="M55.636 30.2971H56.4298V32.777H55.636V30.2971Z" fill="#293787"/>
<path d="M56.8699 30.2971H59.6165V30.8802H57.6141V31.2376H59.5173V31.7855H57.6141V32.1831H59.6323V32.7777H56.8699V30.2971Z" fill="#293787"/>
<path d="M59.7869 30.2971H62.788V30.9299H61.6843V32.777H60.8906V30.9299H59.7876L59.7869 30.2971Z" fill="#293787"/>
<path d="M63.0547 30.2971H64.3805L65.6769 32.1479H65.7575L65.7388 30.2971H66.5074V32.777H65.193L63.888 30.9299H63.8075L63.8233 32.777H63.0547V30.2971Z" fill="#293787"/>
<path d="M69.6387 32.777L69.4252 32.3557H67.7822L67.5716 32.777H66.7095L68.0238 30.2971H69.1951L70.4944 32.777H69.6387ZM69.1584 31.8128L68.6846 30.8766H68.5329L68.0555 31.8128H69.1584Z" fill="#293787"/>
<path d="M70.6987 30.2971H72.0692L72.8069 31.9063L73.5446 30.2971H74.9086V32.777H74.1644L74.1759 30.9205H74.0558L73.1225 32.777H72.4927L71.5601 30.9205H71.4249L71.4429 32.777H70.6987V30.2971Z" fill="#293787"/>
<path d="M75.3464 30.2971H76.673L77.9687 32.1479H78.0492L78.0305 30.2971H78.7991V32.777H77.4855L76.1805 30.9299H76.1007L76.1158 32.777H75.3472L75.3464 30.2971Z" fill="#293787"/>
<path d="M79.2363 30.2971H81.9822V30.8802H79.9805V31.2376H81.8837V31.7855H79.9805V32.1831H81.9981V32.7777H79.2363V30.2971Z" fill="#293787"/>
<path d="M82.1533 30.2971H85.1545V30.9299H84.0501V32.777H83.2563V30.9299H82.1526L82.1533 30.2971Z" fill="#293787"/>
<path d="M85.4578 32.1198H86.2516V32.777H85.4578V32.1198Z" fill="#293787"/>
<path d="M86.5054 30.2971H87.3373L88.2418 32.1572H88.3813L89.2772 30.2971H90.1048L88.8925 32.777H87.7299L86.5054 30.2971Z" fill="#293787"/>
<path d="M90.3184 30.2971H91.6449L92.9413 32.1479H93.0226L93.0039 30.2971H93.7725V32.777H92.4582L91.1531 30.9299H91.0726L91.0884 32.777H90.3191L90.3184 30.2971Z" fill="#293787"/>
<path fill-rule="evenodd" clip-rule="evenodd" d="M48.4355 24.2243L51.3202 20.8306V24.0741L49.9901 25.3575H48.4355V24.2243Z" fill="#CB2026"/>
<path fill-rule="evenodd" clip-rule="evenodd" d="M53.9692 21.5201L54.9759 20.5494L55.0442 19.6679L57.6909 16.871L57.7002 17.9229L65.4354 10.5753L54.7034 17.9128H56.0644L53.9692 20.3654V21.5201Z" fill="#CB2026"/>
<path fill-rule="evenodd" clip-rule="evenodd" d="M47.3722 27.8704L40.5588 34.4516C40.5588 34.4516 38.6815 24.197 29.9382 17.9229H40.6954V27.5951L42.4412 26.3886V27.8697H44.6371L45.7889 26.3828V27.8697L47.3722 27.8704Z" fill="#CB2026"/>
</svg>
