<svg width="63" height="22" viewBox="0 0 63 22" fill="none" xmlns="http://www.w3.org/2000/svg">
<g clip-path="url(#clip0_418_20803)">
<path fill-rule="evenodd" clip-rule="evenodd" d="M11.0233 10.7466C12.0962 11.2665 12.3608 12.6473 11.6142 13.831L7.77905 19.9112C7.0325 21.0948 5.55753 21.6329 4.4846 21.113C3.41167 20.5932 3.1471 19.2122 3.89367 18.0286L7.72879 11.9485C8.47538 10.7648 9.95035 10.2268 11.0233 10.7466Z" fill="url(#paint0_linear_418_20803)"/>
<path fill-rule="evenodd" clip-rule="evenodd" d="M3.1475 11.2945C1.84362 11.4412 0.7014 12.6022 0.596288 13.8877C0.491172 15.1733 1.46297 16.0964 2.76684 15.9497L8.97579 15.2512C9.77011 15.2248 10.1841 16.0477 9.70616 16.8018L11.648 13.7374L11.6431 13.7401C11.8504 13.3909 11.9835 13.003 12.0162 12.6029C12.1213 11.3174 11.1495 10.3942 9.84566 10.5409L3.1475 11.2945Z" fill="#048845"/>
<path fill-rule="evenodd" clip-rule="evenodd" d="M7.51177 9.87625C8.69286 9.10977 9.19817 7.6456 8.64033 6.60599C8.08248 5.56637 6.67283 5.34495 5.49171 6.11144C5.12729 6.34793 4.82719 6.65085 4.60283 6.98721L4.59995 6.98186L2.16242 10.8391L6.38785 10.3139L6.38498 10.3086C6.76119 10.2552 7.14737 10.1127 7.51177 9.87625Z" fill="#048845"/>
<path d="M18.5172 16.1166C18.1741 16.1512 17.8444 16.1416 17.5279 16.0876C17.2117 16.0302 16.929 15.9265 16.6797 15.7764C16.4304 15.6264 16.228 15.4304 16.0723 15.1885C15.9203 14.9428 15.8352 14.649 15.8171 14.3073L16.7959 14.2085C16.8354 14.4862 16.9371 14.713 17.101 14.8889C17.2683 15.0644 17.4778 15.1875 17.7295 15.2583C17.9848 15.3287 18.2653 15.3485 18.5713 15.3176C18.9144 15.283 19.224 15.2036 19.5004 15.0796C19.7802 14.9517 20.0043 14.7882 20.1725 14.5892C20.3443 14.3898 20.4397 14.162 20.4586 13.9059C20.4753 13.6809 20.4393 13.4904 20.3507 13.3345C20.2655 13.1782 20.1328 13.0542 19.9527 12.9624C19.7724 12.8707 19.5501 12.8072 19.2858 12.7721L17.8784 12.574C17.3492 12.5072 16.9431 12.3335 16.6601 12.0529C16.3805 11.7719 16.2563 11.3756 16.2876 10.864C16.3196 10.4314 16.4588 10.0395 16.7051 9.68826C16.9548 9.3367 17.2815 9.04952 17.6853 8.82669C18.0924 8.60354 18.5482 8.46649 19.0527 8.41557C19.6345 8.35686 20.1163 8.40958 20.4982 8.57373C20.8799 8.73788 21.1593 8.97592 21.3365 9.28782C21.5136 9.59976 21.59 9.94414 21.5654 10.3211L20.6017 10.4184C20.5967 10.0822 20.5189 9.8238 20.3688 9.64313C20.2223 9.45868 20.0293 9.33729 19.7899 9.279C19.5507 9.21727 19.2867 9.20098 18.9973 9.23018C18.7888 9.25123 18.585 9.29929 18.3858 9.37435C18.1903 9.44564 18.0111 9.54272 17.8485 9.6656C17.6892 9.78819 17.5582 9.93368 17.4556 10.1021C17.353 10.2704 17.2939 10.4602 17.2782 10.6713C17.2582 10.9413 17.3311 11.1521 17.4968 11.3037C17.6659 11.455 17.983 11.5672 18.4483 11.6405L19.8102 11.8432C20.1676 11.8861 20.4548 11.9739 20.672 12.1066C20.8926 12.2389 21.0577 12.3975 21.1675 12.5822C21.2808 12.7666 21.3529 12.9637 21.384 13.1735C21.4187 13.383 21.4282 13.5916 21.4128 13.7993C21.3849 14.1765 21.2501 14.532 21.0084 14.8655C20.767 15.1956 20.4342 15.4732 20.0103 15.698C19.5901 15.919 19.0924 16.0586 18.5172 16.1166Z" fill="#637381"/>
<path d="M22.655 15.5962L23.0527 10.2279L23.9508 10.1372L23.8931 10.916C24.0551 10.6661 24.2687 10.4401 24.5341 10.2381C24.7995 10.0361 25.1339 9.91476 25.5375 9.87403C25.7259 9.85501 25.9152 9.86855 26.1053 9.91464C26.2989 9.9604 26.4731 10.0407 26.6283 10.1556C26.7833 10.2705 26.8992 10.4185 26.9759 10.5997C27.1569 10.3204 27.3912 10.0872 27.6787 9.90015C27.9664 9.70965 28.2836 9.59688 28.6301 9.56191C28.8117 9.54359 28.9996 9.55381 29.1936 9.59267C29.3879 9.62803 29.5638 9.70989 29.7212 9.83831C29.8823 9.96284 30.0071 10.1478 30.0957 10.393C30.1846 10.6349 30.2143 10.9548 30.1848 11.3529L29.9248 14.8625L28.9864 14.9572L29.2395 11.541C29.2636 11.2156 29.2319 10.9698 29.144 10.8034C29.0565 10.6337 28.9329 10.5207 28.7735 10.4646C28.6174 10.4083 28.447 10.3894 28.2619 10.4081C28.1006 10.4244 27.9265 10.4746 27.74 10.5587C27.5536 10.6428 27.3906 10.7691 27.2514 10.9378C27.112 11.1064 27.0322 11.3258 27.0123 11.5957L26.7465 15.1832L25.8182 15.2769L26.0921 11.5804C26.1077 11.3693 26.0653 11.1983 25.9648 11.0676C25.8677 10.9366 25.7395 10.843 25.58 10.787C25.424 10.7306 25.2652 10.7105 25.1038 10.7268C24.9256 10.7448 24.743 10.7993 24.5558 10.8903C24.3723 10.981 24.2124 11.1122 24.0762 11.284C23.9435 11.452 23.8677 11.6623 23.849 11.915L23.5832 15.5025L22.655 15.5962Z" fill="#637381"/>
<path d="M32.8007 14.6753C32.4643 14.7093 32.1711 14.6788 31.9212 14.5837C31.6714 14.4853 31.4812 14.3275 31.3504 14.1106C31.223 13.8933 31.1715 13.6202 31.1958 13.2914C31.2399 12.6961 31.4745 12.2327 31.8996 11.9012C32.3247 11.5697 32.9838 11.3486 33.8765 11.2379L34.8118 11.1178L34.843 10.6972C34.8673 10.3684 34.7906 10.1185 34.613 9.94751C34.4357 9.77299 34.1452 9.70614 33.7416 9.74687C33.4421 9.78055 33.1727 9.87985 32.9335 10.0448C32.6976 10.2095 32.5341 10.4562 32.4431 10.7849L31.6207 10.8679C31.6668 10.5162 31.7844 10.2124 31.9737 9.95623C32.1631 9.69665 32.4155 9.4891 32.7308 9.3336C33.0494 9.17776 33.4189 9.07863 33.8394 9.0362C34.2934 8.99037 34.6652 9.01812 34.9549 9.11946C35.2478 9.22042 35.4588 9.39149 35.5877 9.63272C35.7202 9.87355 35.7726 10.1809 35.7449 10.5547L35.4672 14.3031L34.67 14.3836L34.679 13.383C34.4462 13.8222 34.1674 14.1389 33.8425 14.3331C33.5213 14.5236 33.1741 14.6376 32.8007 14.6753ZM33.1343 13.9563C33.3093 13.9387 33.485 13.8883 33.6613 13.8052C33.841 13.7218 34.0073 13.6174 34.1602 13.4921C34.3134 13.3633 34.4369 13.2254 34.5314 13.0784C34.6293 12.9277 34.6855 12.7778 34.6999 12.6286L34.7679 11.7096L33.9898 11.8036C33.5925 11.8506 33.2564 11.9258 32.9818 12.029C32.7104 12.132 32.5013 12.2716 32.3549 12.4478C32.2116 12.6238 32.1302 12.8432 32.1108 13.1063C32.0884 13.4074 32.1719 13.6326 32.3611 13.7818C32.5537 13.9308 32.8114 13.9889 33.1343 13.9563Z" fill="#637381"/>
<path d="M37.0608 14.1421L37.4585 8.77377L38.3465 8.68415L38.2699 9.7173C38.3763 9.45236 38.5147 9.22886 38.6851 9.04675C38.8557 8.8612 39.045 8.71672 39.2529 8.61328C39.4642 8.5095 39.6792 8.44658 39.8978 8.42451C39.9753 8.41669 40.0505 8.41429 40.1238 8.41717C40.197 8.42011 40.253 8.43163 40.2914 8.45181L40.2226 9.38113C40.174 9.36197 40.1096 9.35301 40.0292 9.35427C39.9527 9.35167 39.8875 9.35311 39.8337 9.35853C39.6262 9.36574 39.43 9.39928 39.2454 9.45914C39.061 9.51553 38.8962 9.59914 38.7511 9.70996C38.606 9.8208 38.4872 9.95989 38.3948 10.1273C38.3057 10.2908 38.253 10.4851 38.2363 10.7101L37.989 14.0484L37.0608 14.1421Z" fill="#637381"/>
<path d="M44.087 8.80069L42.9114 8.91934L42.6641 12.2576C42.65 12.448 42.6582 12.5863 42.6884 12.6726C42.7224 12.7551 42.7839 12.8038 42.8729 12.8189C42.9653 12.8336 43.0922 12.8328 43.2536 12.8165L43.8238 12.7589L43.7761 13.4027C43.7103 13.4334 43.6112 13.464 43.4788 13.4946C43.3498 13.5248 43.1892 13.5495 42.9976 13.5689C42.6378 13.6052 42.3622 13.5832 42.1713 13.5028C41.9803 13.4225 41.8518 13.2878 41.7857 13.0986C41.7229 12.9091 41.7021 12.6707 41.7234 12.3835L41.9731 9.01404L41.1255 9.09957L41.1774 8.39865L42.0502 8.31058L42.3931 6.72494L43.0791 6.6557L42.9637 8.21323L44.1393 8.09459L44.087 8.80069Z" fill="#637381"/>
<path d="M44.7284 13.3681L47.9229 5.59456L48.9774 5.48814L51.0596 12.7292L50.106 12.8254L49.5422 10.8417L46.5607 11.1426L45.6768 13.2724L44.7284 13.3681ZM46.8632 10.2361L49.3604 9.98407L48.3875 6.49067L46.8632 10.2361Z" fill="#637381"/>
<path d="M53.981 12.5377C53.3052 12.6059 52.7862 12.4213 52.4251 11.9837C52.0635 11.5461 51.9166 10.8687 51.9845 9.95147C52.0258 9.39423 52.1408 8.89998 52.3295 8.46866C52.5218 8.03703 52.7847 7.69103 53.1177 7.43067C53.4508 7.17034 53.8529 7.01637 54.3237 6.96886C54.5724 6.94375 54.7902 6.95441 54.9774 7.0008C55.1675 7.0469 55.3293 7.11303 55.4632 7.19914C55.5972 7.28523 55.7037 7.37751 55.783 7.47601C55.8662 7.57413 55.9259 7.66599 55.9631 7.75157L56.2 4.55343L57.1381 4.45875L56.5666 12.1737L55.8554 12.2455L55.836 11.155C55.7948 11.2623 55.7321 11.3888 55.6476 11.5348C55.5636 11.6772 55.4499 11.821 55.3052 11.9661C55.1611 12.1077 54.9804 12.2307 54.762 12.3352C54.5475 12.4393 54.2874 12.5068 53.981 12.5377ZM54.2021 11.7837C54.7301 11.7304 55.1191 11.528 55.369 11.1764C55.6221 10.8211 55.7766 10.2679 55.8323 9.51677C55.8598 9.09834 55.834 8.74711 55.7553 8.46302C55.6796 8.17868 55.541 7.97112 55.3405 7.84015C55.1437 7.70543 54.8722 7.65553 54.5254 7.69053C54.0949 7.73398 53.7335 7.92678 53.4414 8.26886C53.1486 8.61105 52.9771 9.12474 52.9263 9.81005C52.8766 10.4815 52.9591 10.9902 53.174 11.3361C53.3918 11.6817 53.7347 11.8309 54.2021 11.7837Z" fill="#637381"/>
<path d="M59.9516 11.9352C59.5886 11.9718 59.2549 11.9488 58.9501 11.8662C58.6496 11.7798 58.4059 11.624 58.2188 11.399C58.0323 11.1704 57.9261 10.8668 57.901 10.488L58.7481 10.4025C58.7798 10.6089 58.8509 10.7769 58.9615 10.9066C59.0754 11.0325 59.2223 11.1225 59.4021 11.1765C59.5817 11.227 59.7811 11.2413 59.9997 11.2192C60.3494 11.184 60.6372 11.0879 60.8624 10.9312C61.0875 10.7745 61.2103 10.556 61.2311 10.2756C61.2457 10.0783 61.2003 9.9266 61.0947 9.82046C60.9928 9.71051 60.8261 9.63973 60.5947 9.60814L59.5355 9.44192C59.123 9.38049 58.7986 9.25176 58.5629 9.05568C58.3267 8.85967 58.2235 8.56262 58.253 8.1646C58.2728 7.85 58.3659 7.5658 58.5318 7.31198C58.6972 7.05825 58.9333 6.8472 59.2395 6.6789C59.5459 6.51056 59.9189 6.40419 60.3597 6.35971C60.9246 6.30269 61.3709 6.38821 61.6977 6.61632C62.0282 6.84061 62.1816 7.20471 62.1574 7.70871L61.3354 7.79167C61.3205 7.53897 61.2226 7.34792 61.0421 7.21839C60.8653 7.0851 60.6166 7.03458 60.2975 7.06679C59.9647 7.10038 59.6886 7.19696 59.4695 7.35649C59.2511 7.51248 59.1311 7.73418 59.1098 8.02144C59.0957 8.21181 59.159 8.35486 59.2985 8.45069C59.4388 8.54305 59.6504 8.61102 59.9345 8.65447L60.9587 8.81908C61.1962 8.86035 61.3882 8.92687 61.5349 9.01858C61.6851 9.10989 61.8004 9.21679 61.8818 9.3391C61.966 9.46115 62.0213 9.59299 62.0475 9.73464C62.0774 9.87247 62.0875 10.0071 62.0777 10.1387C62.0534 10.4674 61.9515 10.7594 61.7723 11.0145C61.5967 11.2659 61.3547 11.4724 61.0455 11.6341C60.7399 11.7921 60.3755 11.8924 59.9516 11.9352Z" fill="#637381"/>
</g>
<defs>
<linearGradient id="paint0_linear_418_20803" x1="12.0198" y1="7.64101" x2="-1.2522" y2="10.8204" gradientUnits="userSpaceOnUse">
<stop stop-color="#00543A"/>
<stop offset="1" stop-color="#048845"/>
</linearGradient>
<clipPath id="clip0_418_20803">
<rect width="62.0176" height="15.7505" fill="white" transform="matrix(0.994946 -0.100414 -0.0738825 0.997267 1.1637 6.22754)"/>
</clipPath>
</defs>
</svg>
