<svg width="129" height="48" viewBox="0 0 129 48" fill="none" xmlns="http://www.w3.org/2000/svg">
<path d="M62.1936 13.5649C59.3926 13.5649 56.9674 15.4249 55.9856 18.0403C55.9281 18.1855 55.7548 18.7379 55.7548 18.7379L51.8281 35.8258H60.8363C63.9258 35.8258 66.5532 33.5883 67.275 30.5657L71.2017 13.5649H62.1936Z" fill="#16B14B"/>
<path d="M47.3326 8C44.4505 8 42.0116 10.0559 41.2358 12.8363C41.1802 13.0388 41.1247 13.2704 41.0973 13.4732L35.2219 40H43.8683C46.8338 40 49.3004 37.8573 50.0211 34.9612L55.9794 8H47.3326Z" fill="#F27227"/>
<path d="M30.3517 13.5649C27.4315 13.5649 24.9448 15.5726 24.0484 18.3373C24.0195 18.3953 24.0195 18.4534 23.9905 18.5119L23.846 19.0938L20 35.8258H29.2243C31.971 35.8258 34.3422 33.9923 35.2676 31.4027L35.6436 29.8023L39.3736 13.5649H30.3517Z" fill="#1169B0"/>
<path d="M28.1235 19.1304L27.9688 19.159C27.2875 19.159 26.6376 19.3906 26.0494 19.853C25.4922 20.2867 25.0897 20.8071 24.9656 21.2695L22.7678 30.2608H22.8915C23.5728 30.2608 24.2537 30.0296 24.8419 29.5669C25.4302 29.1045 25.8327 28.555 25.9874 27.9192L26.4825 25.9822H30.8785C31.5598 25.9822 32.2407 25.7506 32.8289 25.2883C33.4172 24.8255 33.8197 24.2764 33.9744 23.6402L34.0054 23.5248H27.1018L27.5663 21.6745H33.5413C34.2222 21.6745 34.8724 21.443 35.4607 21.0093C36.0489 20.5469 36.4204 19.9974 36.5751 19.3616L36.6061 19.2458L28.1235 19.1304Z" fill="white"/>
<path d="M51.2738 19.6823C50.9238 19.3336 50.4573 19.1304 49.8739 19.1304H41.9111L39.3735 30.2316V30.2608H39.4901C40.1612 30.2608 40.7735 30.028 41.3277 29.5633C41.8819 29.0981 42.2611 28.5461 42.4069 27.9066L42.8738 25.9307H48.3862C49.0281 25.9307 49.6112 25.8435 50.1654 25.4075C50.7196 24.9716 51.128 24.2448 51.2738 23.5765L51.7695 21.5134C51.7988 21.339 51.828 21.1934 51.828 21.019C51.828 20.4963 51.653 20.0311 51.2738 19.6823ZM48.7947 23.4605H43.428L43.8653 21.6006H49.2319L48.7947 23.4605Z" fill="white"/>
<path d="M67.8742 19.6809C67.5011 19.333 67.0033 19.1304 66.4124 19.1304H62.6811H62.4322H57.4568L57.4256 19.2173C57.3944 19.3913 57.3633 19.5652 57.3633 19.71C57.3633 20.2606 57.5503 20.6954 57.9234 21.0724C58.2965 21.4203 58.7939 21.623 59.416 21.623H61.2816L59.1359 30.2608H59.2605C59.9445 30.2608 60.6288 30.029 61.2193 29.5651C61.8102 29.1015 62.2145 28.5505 62.3699 27.913L63.9247 21.623H68.3404L68.3716 21.536C68.4028 21.362 68.4339 21.1881 68.4339 21.0433C68.4339 20.4928 68.2473 20.0288 67.8742 19.6809Z" fill="white"/>
<path d="M68.4338 33.7391C68.4338 32.6005 69.3773 31.6521 70.5098 31.6521C71.6419 31.6521 72.5853 32.6005 72.5853 33.7391C72.5853 34.8776 71.6419 35.826 70.5098 35.826C69.3462 35.826 68.4338 34.909 68.4338 33.7391ZM72.0819 33.7391C72.0819 32.7589 71.3902 32.063 70.5098 32.063C69.629 32.063 68.9373 32.7589 68.9373 33.7391C68.9373 34.7192 69.629 35.4152 70.5098 35.4152C71.3587 35.4152 72.0819 34.7192 72.0819 33.7391ZM69.692 32.5691H70.5724C71.1385 32.5691 71.4532 32.7589 71.4532 33.2646C71.4532 33.6759 71.233 33.8657 70.8241 33.897L71.4532 34.9407H71.0128L70.4152 33.9288H70.1635V34.9407H69.7235V32.5691H69.692ZM70.1324 33.5811H70.5098C70.7611 33.5811 70.9813 33.5493 70.9813 33.2329C70.9813 32.9482 70.7296 32.9169 70.5098 32.9169H70.1324V33.5811Z" fill="#1169B0"/>
<path d="M82.8067 28.8515C82.1996 29.8122 81.3197 30.2611 80.1968 30.2611C79.074 30.2611 78.2241 29.7805 77.587 28.8515C77.0104 27.9864 76.7371 26.8329 76.7371 25.3915C76.7371 23.9497 77.0104 22.7963 77.587 21.9316C78.1936 21.0026 79.074 20.522 80.1968 20.522C81.3197 20.522 82.1692 21.0026 82.8067 21.9316C83.3833 22.7963 83.6562 23.9497 83.6562 25.3915C83.6562 26.8329 83.3833 27.9542 82.8067 28.8515ZM81.7447 22.8284C81.3801 22.1556 80.8643 21.8355 80.2273 21.8355C79.5898 21.8355 79.074 22.1556 78.6794 22.8284C78.3457 23.4691 78.1636 24.3342 78.1636 25.3915C78.1636 26.4484 78.3457 27.3135 78.6794 27.9542C79.0436 28.627 79.5594 28.9476 80.2273 28.9476C80.8643 28.9476 81.3801 28.627 81.7447 27.9542C82.0784 27.3135 82.2605 26.4484 82.2605 25.3915C82.2605 24.3342 82.1088 23.4691 81.7447 22.8284Z" fill="#1268B1"/>
<path d="M89.5867 30.2295V25.6956C89.5867 24.8258 89.1125 24.3911 88.132 24.3911C87.6257 24.3911 87.1832 24.4535 86.8666 24.6086V30.2607H85.4749V23.7701C86.2656 23.4598 87.1515 23.3042 88.132 23.3042C90.0614 23.3042 91.0102 24.0496 91.0102 25.5712V30.2607H89.5867V30.2295Z" fill="#1268B1"/>
<path d="M92.394 30.2611V20.522H93.7779V30.2611H92.394Z" fill="#1268B1"/>
<path d="M96.3407 21.8772C96.2123 22.0346 96.0585 22.0979 95.8537 22.0979C95.6743 22.0979 95.4948 22.0346 95.3668 21.8772C95.2383 21.7197 95.1616 21.5305 95.1616 21.3097C95.1616 21.0894 95.2383 20.9002 95.3668 20.7423C95.4948 20.5849 95.6486 20.522 95.8537 20.522C96.0328 20.522 96.2123 20.5849 96.3407 20.7423C96.4688 20.9002 96.5455 21.0894 96.5455 21.3097C96.5455 21.5305 96.4688 21.7197 96.3407 21.8772ZM95.2897 30.2611V23.3269H96.4431V30.2611H95.2897Z" fill="#1268B1"/>
<path d="M101.013 30.2295V25.6956C101.013 24.8258 100.658 24.3911 99.9223 24.3911C99.5426 24.3911 99.2104 24.4535 98.9733 24.6086V30.2607H97.9294V23.7701C98.5225 23.4598 99.1869 23.3042 99.9223 23.3042C101.369 23.3042 102.081 24.0496 102.081 25.5712V30.2607H101.013V30.2295Z" fill="#1268B1"/>
<path d="M108.987 26.7825L104.744 27.393C104.889 28.6133 105.528 29.1928 106.691 29.1928C107.388 29.1928 107.97 29.0711 108.464 28.7964L108.842 29.8034C108.26 30.1083 107.534 30.2607 106.603 30.2607C105.615 30.2607 104.831 29.9559 104.278 29.315C103.726 28.7049 103.465 27.8503 103.465 26.7825C103.465 25.7452 103.726 24.9213 104.22 24.281C104.744 23.6401 105.441 23.3042 106.342 23.3042C107.156 23.3042 107.795 23.5788 108.289 24.0979C108.754 24.6165 108.987 25.3488 108.987 26.2336C109.016 26.4776 108.987 26.6607 108.987 26.7825ZM107.766 26.0505C107.766 24.8911 107.272 24.3112 106.342 24.3112C105.848 24.3112 105.441 24.4943 105.15 24.8911C104.831 25.2875 104.685 25.8061 104.685 26.5083L107.766 26.0505Z" fill="#1268B1"/>
</svg>
