<svg width="129" height="48" viewBox="0 0 129 48" fill="none" xmlns="http://www.w3.org/2000/svg">
<g clip-path="url(#clip0_2393_1218)">
<mask id="mask0_2393_1218" style="mask-type:luminance" maskUnits="userSpaceOnUse" x="25" y="7" width="79" height="34">
<path d="M103.327 7.86261H25.6731V40.1374H103.327V7.86261Z" fill="white"/>
</mask>
<g mask="url(#mask0_2393_1218)">
<path d="M86.1038 26.931C86.1562 25.3939 86.612 24.5467 86.612 24.5467H91.4406C91.4406 24.5467 91.8966 25.3939 91.949 26.931V27.0702C91.8966 28.6052 91.4406 29.4545 91.4406 29.4545H86.612C86.612 29.4545 86.1562 28.6073 86.1038 27.0702V26.931ZM85.2627 31.4636H93.2982C93.2982 31.4636 94.1051 29.9225 94.1978 27.1307V26.8765C94.107 24.0827 93.2982 22.5436 93.2982 22.5436H88.8489L84.0302 25.0449C84.0142 25.1458 83.998 25.2466 83.9839 25.3576L85.2627 31.4636Z" fill="url(#paint0_linear_2393_1218)"/>
<path d="M49.328 26.931C49.3805 25.3939 49.8363 24.5467 49.8363 24.5467H54.6649C54.6649 24.5467 55.1209 25.3939 55.1733 26.931V27.0702C55.1209 28.6052 54.6649 29.4545 54.6649 29.4545H49.8363C49.8363 29.4545 49.3805 28.6073 49.328 27.0702V26.931ZM47.0791 26.8745V27.1287C47.1719 29.9225 47.9787 31.4636 47.9787 31.4636H56.5206C56.5206 31.4636 57.3275 29.9225 57.4202 27.1307V26.8765C57.3275 24.0827 56.5206 22.5436 56.5206 22.5436H47.9787C47.9787 22.5436 47.1719 24.0827 47.0791 26.8765V26.8745Z" fill="url(#paint1_linear_2393_1218)"/>
<path d="M57.9204 22.5416L60.1634 21.4261V31.4636H57.9204V22.5416Z" fill="url(#paint2_linear_2393_1218)"/>
<path d="M33.4909 22.5416V28.4378L28.1459 22.5416H25.6731V31.4636H27.922V25.4685L33.3174 31.4636H35.7378V22.5416H33.4909Z" fill="url(#paint3_linear_2393_1218)"/>
<path d="M36.24 26.8745V27.1287C36.3307 29.9225 37.1396 31.4636 37.1396 31.4636H45.6815C45.6815 31.4636 46.4882 29.9225 46.581 27.1307V26.8765C46.5689 26.5275 46.5467 26.1988 46.5165 25.8881H42.3091L40.7358 28.1191H44.2292C44.1597 28.5787 44.0238 29.0258 43.8258 29.4464H38.9952C38.9952 29.4464 38.5393 28.5992 38.4869 27.0621V26.9209C38.5393 25.3838 38.9952 24.5366 38.9952 24.5366H46.3148C46.1906 23.8399 45.9778 23.162 45.6815 22.5194H37.1396C37.1396 22.5194 36.3307 24.0807 36.24 26.8745Z" fill="url(#paint4_linear_2393_1218)"/>
<path d="M68.6608 29.4464H61.7768C61.9011 30.143 62.1139 30.8209 62.4102 31.4636H67.3075L68.6608 29.4464ZM61.2927 26.8745V27.1287C61.3049 27.4776 61.3272 27.8064 61.3573 28.1171H69.5585L70.9703 25.8861H63.6488C63.7172 25.423 63.8531 24.9724 64.0521 24.5487H70.8533L68.9935 22.5315H62.1945C62.1945 22.5315 61.3857 24.0807 61.2927 26.8745Z" fill="url(#paint5_linear_2393_1218)"/>
<path d="M86.0693 40.1374L83.0236 24.6354L103.327 13.9626L80.9604 16.3832L79.4719 7.86263L74.5644 17.075L65.7905 18.0151L86.0693 40.1374Z" fill="url(#paint6_radial_2393_1218)"/>
<path d="M66.9202 19.2455L82.8161 36.5932L79.2176 16.7564C78.8606 14.6524 77.6948 16.248 77.6948 16.248L73.1286 22.3479L67.2912 19.298L66.9202 19.2455Z" fill="white"/>
<path d="M76.9347 22.0091V25.6521L75.2244 24.6738L76.9347 22.0091ZM68.3583 20.7564L72.5094 25.2386L68.3059 31.4918H70.8534L73.8992 26.7374L81.5636 35.0077L78.2072 17.1416L73.6067 23.5966L68.3583 20.7564Z" fill="url(#paint7_radial_2393_1218)"/>
<path d="M52.2207 20.1674C52.2207 20.1674 51.5972 21.1759 50.8933 21.4986C50.1895 21.8213 49.2334 22.1642 49.2334 22.1642H55.2077C55.2077 22.1642 54.2537 21.8274 53.5478 21.4986C52.8419 21.1698 52.2207 20.1674 52.2207 20.1674Z" fill="#9BC117"/>
<path d="M74.7324 35.2583L75.0064 35.2151C75.0219 35.3251 75.0644 35.4093 75.1343 35.4678C75.2051 35.5265 75.3037 35.5556 75.4301 35.5556C75.5575 35.5556 75.6519 35.5299 75.7135 35.4787C75.7752 35.4263 75.806 35.3651 75.806 35.2952C75.806 35.2326 75.7788 35.1833 75.7242 35.1474C75.6863 35.1229 75.5917 35.0914 75.4408 35.0535C75.2377 35.0021 75.0964 34.9579 75.0173 34.921C74.9392 34.8829 74.8797 34.8312 74.8385 34.7655C74.7984 34.6987 74.7785 34.6252 74.7785 34.5451C74.7785 34.4723 74.795 34.4051 74.8278 34.3435C74.8618 34.2806 74.9074 34.2289 74.9649 34.1877C75.0081 34.1559 75.0666 34.1292 75.1406 34.1076C75.2156 34.085 75.2957 34.0739 75.3808 34.0739C75.5092 34.0739 75.6216 34.0923 75.7181 34.1292C75.8157 34.1663 75.8875 34.2166 75.9339 34.2801C75.98 34.3427 76.0118 34.4269 76.0292 34.5328L75.7582 34.5699C75.7458 34.4857 75.7099 34.4199 75.6504 34.3726C75.5917 34.3255 75.5087 34.3017 75.4007 34.3017C75.2736 34.3017 75.1826 34.3228 75.1282 34.3648C75.0739 34.407 75.0464 34.4563 75.0464 34.5129C75.0464 34.5488 75.0578 34.581 75.0804 34.6099C75.103 34.6395 75.1384 34.6643 75.1867 34.6837C75.2144 34.6941 75.2961 34.7177 75.4315 34.7546C75.6279 34.807 75.7642 34.8502 75.8414 34.8841C75.9193 34.9169 75.9805 34.9652 76.0246 35.0288C76.0688 35.0926 76.0909 35.1717 76.0909 35.2661C76.0909 35.3586 76.0637 35.4457 76.0093 35.5279C75.956 35.609 75.8783 35.6723 75.7766 35.7175C75.6749 35.7616 75.5599 35.7837 75.4315 35.7837C75.219 35.7837 75.0569 35.7395 74.9448 35.6512C74.8339 35.5629 74.763 35.4318 74.7324 35.2583Z" fill="#626262"/>
<path d="M73.155 35.2583L73.429 35.2151C73.4445 35.3251 73.487 35.4093 73.5569 35.4678C73.6277 35.5265 73.7263 35.5556 73.8527 35.5556C73.9801 35.5556 74.0745 35.5299 74.1361 35.4787C74.1978 35.4263 74.2286 35.3651 74.2286 35.2952C74.2286 35.2326 74.2014 35.1833 74.1468 35.1474C74.109 35.1229 74.0143 35.0914 73.8634 35.0535C73.6603 35.0021 73.519 34.9579 73.4399 34.921C73.3618 34.8829 73.3023 34.8312 73.2611 34.7655C73.221 34.6987 73.2011 34.6252 73.2011 34.5451C73.2011 34.4723 73.2176 34.4051 73.2504 34.3435C73.2844 34.2806 73.33 34.2289 73.3875 34.1877C73.4307 34.1559 73.4892 34.1292 73.5632 34.1076C73.6382 34.085 73.7183 34.0739 73.8034 34.0739C73.9318 34.0739 74.0442 34.0923 74.1407 34.1292C74.2383 34.1663 74.3101 34.2166 74.3565 34.2801C74.4026 34.3427 74.4344 34.4269 74.4518 34.5328L74.1808 34.5699C74.1684 34.4857 74.1325 34.4199 74.073 34.3726C74.0143 34.3255 73.9313 34.3017 73.8233 34.3017C73.6962 34.3017 73.6052 34.3228 73.5508 34.3648C73.4965 34.407 73.469 34.4563 73.469 34.5129C73.469 34.5488 73.4804 34.581 73.503 34.6099C73.5256 34.6395 73.561 34.6643 73.6093 34.6837C73.637 34.6941 73.7187 34.7177 73.8542 34.7546C74.0505 34.807 74.1868 34.8502 74.264 34.8841C74.3419 34.9169 74.4031 34.9652 74.4472 35.0288C74.4914 35.0926 74.5135 35.1717 74.5135 35.2661C74.5135 35.3586 74.4863 35.4457 74.4319 35.5279C74.3786 35.609 74.3009 35.6723 74.1992 35.7175C74.0975 35.7616 73.9825 35.7837 73.8542 35.7837C73.6416 35.7837 73.4795 35.7395 73.3674 35.6512C73.2565 35.5629 73.1856 35.4318 73.155 35.2583Z" fill="#626262"/>
<path d="M72.6296 35.2197L72.9162 35.2552C72.8708 35.4226 72.7873 35.5527 72.665 35.6449C72.5427 35.7374 72.3867 35.7837 72.1967 35.7837C71.9574 35.7837 71.7674 35.7102 71.6269 35.5634C71.4871 35.4156 71.4172 35.2086 71.4172 34.9426C71.4172 34.6674 71.4881 34.4539 71.6298 34.3017C71.7715 34.1498 71.9555 34.0739 72.1814 34.0739C72.4 34.0739 72.5786 34.1484 72.7174 34.2971C72.856 34.4461 72.9254 34.6555 72.9254 34.9256C72.9254 34.9421 72.9249 34.9666 72.9237 34.9996H71.7038C71.714 35.1792 71.765 35.3168 71.8562 35.4124C71.9477 35.5078 72.0618 35.5556 72.1984 35.5556C72.3001 35.5556 72.3867 35.5289 72.4585 35.4755C72.5306 35.4221 72.5874 35.337 72.6296 35.2197ZM71.7191 34.7715H72.6328C72.6204 34.6339 72.5854 34.5308 72.5279 34.4619C72.4396 34.3551 72.3251 34.3017 72.1843 34.3017C72.0572 34.3017 71.9499 34.3444 71.8625 34.4296C71.7761 34.5148 71.7286 34.6288 71.7191 34.7715Z" fill="#626262"/>
<path d="M70.4561 35.7466V34.1108H70.7058V34.3588C70.7693 34.2428 70.8278 34.1663 70.8812 34.1292C70.9358 34.0923 70.9953 34.0739 71.0601 34.0739C71.1535 34.0739 71.2484 34.1035 71.3449 34.1632L71.2493 34.4204C71.1816 34.3804 71.1139 34.3602 71.0462 34.3602C70.9856 34.3602 70.9312 34.3789 70.8829 34.4158C70.8346 34.4517 70.8002 34.5019 70.7795 34.5667C70.7487 34.6652 70.7334 34.7732 70.7334 34.8902V35.7466H70.4561Z" fill="#626262"/>
<path d="M68.7034 36.3736V34.1108H68.956V34.3233C69.0154 34.2401 69.0827 34.178 69.1576 34.137C69.2326 34.095 69.3236 34.0739 69.4304 34.0739C69.5699 34.0739 69.6932 34.1098 69.8 34.1816C69.9068 34.2534 69.9876 34.3551 70.0419 34.4866C70.0963 34.617 70.1235 34.7604 70.1235 34.9164C70.1235 35.0839 70.0931 35.2348 70.0327 35.3692C69.973 35.5027 69.8859 35.6053 69.7709 35.6774C69.6568 35.7483 69.5367 35.7837 69.4103 35.7837C69.3178 35.7837 69.2348 35.764 69.1608 35.725C69.088 35.6862 69.0278 35.6369 68.9805 35.5772V36.3736H68.7034ZM68.9543 34.938C68.9543 35.1484 68.997 35.304 69.0822 35.4047C69.1676 35.5054 69.2707 35.5556 69.3918 35.5556C69.5151 35.5556 69.6204 35.5037 69.7075 35.4C69.7959 35.2952 69.84 35.1336 69.84 34.915C69.84 34.7065 69.7971 34.5502 69.7107 34.4466C69.6255 34.3427 69.5233 34.2911 69.4042 34.2911C69.286 34.2911 69.1814 34.3464 69.0899 34.4573C68.9997 34.5672 68.9543 34.7274 68.9543 34.938Z" fill="#626262"/>
<path d="M66.9412 35.7466L67.5389 34.8963L66.9858 34.1107H67.3323L67.5835 34.4944C67.6308 34.5672 67.6687 34.6284 67.6976 34.6776C67.7427 34.6099 67.7842 34.5497 67.8223 34.4973L68.098 34.1107H68.4292L67.8638 34.881L68.4724 35.7466H68.1319L67.7961 35.2384L67.7068 35.1013L67.277 35.7466H66.9412Z" fill="#626262"/>
<path d="M65.0635 35.7466V33.4885H66.6964V33.755H65.3624V34.4466H66.6117V34.7116H65.3624V35.4801H66.7488V35.7466H65.0635Z" fill="#626262"/>
<path d="M63.2659 35.7466V34.1108H63.5153V34.3435C63.6355 34.1637 63.809 34.0739 64.0359 34.0739C64.1346 34.0739 64.2249 34.0918 64.3072 34.1277C64.3901 34.1627 64.4523 34.2088 64.4935 34.2663C64.5345 34.3238 64.5632 34.3922 64.5797 34.4711C64.5899 34.5226 64.5952 34.6123 64.5952 34.7407V35.7466H64.3178V34.7516C64.3178 34.6386 64.3072 34.5543 64.2856 34.499C64.264 34.4425 64.2254 34.3978 64.1701 34.3648C64.1155 34.3311 64.0514 34.3141 63.9774 34.3141C63.8594 34.3141 63.757 34.3515 63.6709 34.4265C63.5857 34.5014 63.543 34.6437 63.543 34.8533V35.7466H63.2659Z" fill="#626262"/>
<path d="M61.8423 35.7466L60.9675 33.4885H61.291L61.8778 35.129C61.9251 35.2605 61.9647 35.3835 61.9964 35.4986C62.0314 35.3755 62.0719 35.2523 62.1183 35.129L62.7281 33.4885H63.0331L62.1488 35.7466H61.8423Z" fill="#626262"/>
<path d="M59.595 35.5449C59.4924 35.632 59.3933 35.6937 59.2977 35.7296C59.2033 35.7657 59.1017 35.7837 58.9927 35.7837C58.8131 35.7837 58.6748 35.74 58.5785 35.6527C58.4819 35.5643 58.4336 35.452 58.4336 35.3154C58.4336 35.2353 58.4516 35.1622 58.4875 35.0967C58.5244 35.03 58.5722 34.9763 58.6306 34.9363C58.6903 34.8963 58.7571 34.8662 58.8311 34.8456C58.8854 34.8312 58.9675 34.8174 59.0774 34.8041C59.3014 34.7774 59.4661 34.7453 59.5719 34.7084C59.5729 34.6703 59.5734 34.6463 59.5734 34.6361C59.5734 34.523 59.5472 34.4435 59.4948 34.3973C59.4239 34.3347 59.3188 34.3034 59.1791 34.3034C59.0488 34.3034 58.9522 34.3265 58.8896 34.3726C58.8279 34.4177 58.7823 34.4985 58.7525 34.6145L58.4814 34.5774C58.5059 34.4614 58.5464 34.368 58.603 34.2971C58.6595 34.2253 58.7411 34.1704 58.8478 34.1324C58.9548 34.0933 59.0786 34.0739 59.2191 34.0739C59.3589 34.0739 59.4722 34.0901 59.5596 34.1231C59.6469 34.1559 59.711 34.1976 59.7523 34.2479C59.7933 34.2971 59.8219 34.3597 59.8384 34.4357C59.8476 34.483 59.8522 34.5682 59.8522 34.6915V35.0613C59.8522 35.319 59.8578 35.4823 59.8692 35.551C59.8816 35.6187 59.9051 35.684 59.9401 35.7466H59.6506C59.6217 35.6891 59.6033 35.6218 59.595 35.5449ZM59.5719 34.9256C59.4712 34.9666 59.3203 35.0016 59.1191 35.0305C59.0051 35.0467 58.9245 35.0654 58.8772 35.0858C58.8299 35.1064 58.7935 35.1368 58.7677 35.1768C58.7423 35.2156 58.7294 35.2593 58.7294 35.3076C58.7294 35.3816 58.7571 35.4432 58.8124 35.4925C58.8689 35.5418 58.9512 35.5665 59.0589 35.5665C59.1657 35.5665 59.2608 35.5432 59.3438 35.4971C59.4271 35.4498 59.4882 35.3857 59.5273 35.3047C59.5571 35.2418 59.5719 35.1496 59.5719 35.0273V34.9256Z" fill="#626262"/>
<path d="M57.8438 35.7466V35.5063C57.7164 35.6912 57.5434 35.7837 57.3247 35.7837C57.2281 35.7837 57.1376 35.765 57.0534 35.7281C56.9704 35.6912 56.9083 35.6449 56.8671 35.5896C56.827 35.533 56.7989 35.4644 56.7824 35.3831C56.7712 35.3287 56.7654 35.2426 56.7654 35.1244V34.1108H57.0428V35.0181C57.0428 35.163 57.0483 35.2605 57.0597 35.3107C57.0772 35.3835 57.1141 35.4411 57.1706 35.4833C57.2272 35.5243 57.2968 35.5449 57.3801 35.5449C57.4633 35.5449 57.5414 35.5238 57.6142 35.4818C57.687 35.4386 57.7385 35.3806 57.7683 35.3076C57.7991 35.2338 57.8144 35.1268 57.8144 34.9873V34.1108H58.0918V35.7466H57.8438ZM57.3415 33.7225C57.4002 33.7164 57.4376 33.7108 57.4541 33.7057C57.5084 33.6871 57.5361 33.6584 57.5373 33.6193C57.5383 33.5958 57.524 33.5757 57.4941 33.5594C57.4509 33.5356 57.3827 33.524 57.2893 33.524C57.2573 33.524 57.2092 33.5259 57.1444 33.53L57.1274 33.373C57.1675 33.3648 57.2415 33.3612 57.3492 33.3621C57.4757 33.3631 57.5788 33.3837 57.6589 33.4238C57.7472 33.467 57.7923 33.5269 57.7945 33.6041C57.7987 33.7312 57.7052 33.8067 57.514 33.8305V33.9074H57.3415V33.7225Z" fill="#626262"/>
<path d="M56.2618 35.1474L56.5343 35.1829C56.5047 35.3707 56.428 35.5182 56.3048 35.625C56.1827 35.7308 56.0322 35.7837 55.8536 35.7837C55.6297 35.7837 55.4494 35.7107 55.313 35.5648C55.1773 35.418 55.1096 35.2081 55.1096 34.9349C55.1096 34.7582 55.1387 34.6036 55.1975 34.4711C55.2559 34.3389 55.3448 34.2396 55.4639 34.1738C55.584 34.1071 55.7143 34.0739 55.8551 34.0739C56.0327 34.0739 56.1781 34.119 56.2909 34.2093C56.404 34.2988 56.4763 34.426 56.5081 34.5915L56.2388 34.633C56.213 34.523 56.1672 34.4403 56.1016 34.385C56.0369 34.3294 55.9582 34.3017 55.8658 34.3017C55.7262 34.3017 55.6127 34.3522 55.5256 34.4527C55.4382 34.5524 55.3945 34.7104 55.3945 34.9271C55.3945 35.1469 55.4367 35.3066 55.5209 35.4061C55.6051 35.5058 55.7148 35.5556 55.8505 35.5556C55.9594 35.5556 56.0502 35.5224 56.123 35.4556C56.196 35.3889 56.2421 35.286 56.2618 35.1474Z" fill="#626262"/>
<path d="M53.5353 35.7466V34.1108H53.8127V35.7466H53.5353ZM53.5215 33.9074L53.7265 33.4762H54.0901L53.751 33.9074H53.5215Z" fill="#626262"/>
<path d="M52.3848 35.7466V34.1108H52.6342V34.3588C52.6978 34.2428 52.7565 34.1663 52.8099 34.1292C52.8643 34.0923 52.9237 34.0739 52.9885 34.0739C53.082 34.0739 53.1771 34.1035 53.2734 34.1632L53.178 34.4204C53.1101 34.3804 53.0424 34.3602 52.9747 34.3602C52.914 34.3602 52.8597 34.3789 52.8114 34.4158C52.7631 34.4517 52.7286 34.5019 52.7082 34.5667C52.6774 34.6652 52.6619 34.7732 52.6619 34.8902V35.7466H52.3848Z" fill="#626262"/>
<path d="M52.115 35.4986L52.1551 35.7437C52.0769 35.7599 52.0073 35.7682 51.9456 35.7682C51.8449 35.7682 51.7668 35.7524 51.7115 35.7204C51.6559 35.6886 51.6168 35.6471 51.5943 35.5956C51.5717 35.5432 51.5605 35.434 51.5605 35.2676V34.3265H51.3572V34.1108H51.5605V33.7057L51.8362 33.5393V34.1108H52.115V34.3265H51.8362V35.2831C51.8362 35.3622 51.8408 35.4129 51.85 35.4355C51.8602 35.458 51.8762 35.476 51.8978 35.4894C51.9204 35.5027 51.9522 35.5095 51.9932 35.5095C52.024 35.5095 52.0648 35.5059 52.115 35.4986Z" fill="#626262"/>
<path d="M49.9309 33.8074V33.4885H50.2081V33.8074H49.9309ZM49.9309 35.7466V34.1107H50.2081V35.7466H49.9309Z" fill="#626262"/>
<path d="M49.2408 35.5449C49.1381 35.632 49.039 35.6937 48.9435 35.7296C48.849 35.7657 48.7474 35.7837 48.6385 35.7837C48.4588 35.7837 48.3207 35.74 48.2241 35.6527C48.1276 35.5643 48.0793 35.452 48.0793 35.3154C48.0793 35.2353 48.0973 35.1622 48.1333 35.0967C48.1702 35.03 48.218 34.9763 48.2765 34.9363C48.3361 34.8963 48.4028 34.8662 48.4768 34.8455C48.5312 34.8312 48.6133 34.8174 48.7232 34.8041C48.9471 34.7774 49.1119 34.7453 49.2177 34.7084C49.2187 34.6703 49.2192 34.6463 49.2192 34.6361C49.2192 34.523 49.193 34.4434 49.1407 34.3973C49.0698 34.3347 48.9645 34.3034 48.8249 34.3034C48.6945 34.3034 48.598 34.3265 48.5353 34.3726C48.4737 34.4177 48.428 34.4985 48.3982 34.6145L48.1271 34.5774C48.1517 34.4614 48.1923 34.368 48.2488 34.2971C48.3053 34.2253 48.3869 34.1704 48.4937 34.1323C48.6005 34.0933 48.7243 34.0739 48.8649 34.0739C49.0046 34.0739 49.1181 34.0901 49.2053 34.1231C49.2926 34.1559 49.3568 34.1976 49.3979 34.2479C49.439 34.2971 49.4677 34.3597 49.4842 34.4357C49.4934 34.483 49.498 34.5682 49.498 34.6915V35.0613C49.498 35.319 49.5037 35.4823 49.515 35.551C49.5273 35.6187 49.5509 35.684 49.5858 35.7466H49.2963C49.2675 35.6891 49.249 35.6218 49.2408 35.5449ZM49.2177 34.9256C49.117 34.9666 48.9661 35.0016 48.7648 35.0305C48.6508 35.0467 48.5702 35.0654 48.523 35.0858C48.4757 35.1064 48.4393 35.1367 48.4136 35.1768C48.3879 35.2156 48.3751 35.2593 48.3751 35.3076C48.3751 35.3816 48.4028 35.4432 48.4583 35.4925C48.5148 35.5418 48.5969 35.5665 48.7047 35.5665C48.8115 35.5665 48.9065 35.5432 48.9897 35.4971C49.0729 35.4498 49.134 35.3857 49.173 35.3047C49.2028 35.2418 49.2177 35.1496 49.2177 35.0273V34.9256ZM48.7817 33.7225C48.8403 33.7164 48.8778 33.7108 48.8942 33.7057C48.9486 33.6871 48.9764 33.6584 48.9774 33.6193C48.9784 33.5958 48.964 33.5757 48.9343 33.5594C48.8911 33.5356 48.8228 33.524 48.7294 33.524C48.6975 33.524 48.6493 33.5259 48.5846 33.53L48.5676 33.373C48.6077 33.3648 48.6816 33.3612 48.7895 33.3621C48.9158 33.3631 49.019 33.3837 49.0991 33.4238C49.1874 33.467 49.2326 33.5269 49.2346 33.6041C49.2387 33.7312 49.1453 33.8067 48.9543 33.8305V33.9074H48.7817V33.7225Z" fill="#626262"/>
<path d="M47.4724 33.8074V33.4885H47.7497V33.8074H47.4724ZM47.4724 35.7466V34.1107H47.7497V35.7466H47.4724Z" fill="#626262"/>
<path d="M45.6638 35.8822L45.9334 35.9223C45.9447 36.0055 45.976 36.0659 46.0274 36.104C46.0962 36.1555 46.1901 36.181 46.3093 36.181C46.4376 36.181 46.5367 36.1555 46.6065 36.104C46.6764 36.0526 46.7236 35.9807 46.7483 35.8883C46.7626 35.832 46.7693 35.7133 46.7683 35.5325C46.6471 35.6752 46.4962 35.7466 46.3154 35.7466C46.0905 35.7466 45.9165 35.6655 45.7932 35.5032C45.67 35.3411 45.6084 35.1465 45.6084 34.9196C45.6084 34.7633 45.6366 34.6196 45.6931 34.4881C45.7496 34.3556 45.8312 34.2534 45.938 34.1816C46.0459 34.1098 46.1722 34.0739 46.317 34.0739C46.51 34.0739 46.6692 34.1518 46.7945 34.308V34.1108H47.0502V35.5248C47.0502 35.7796 47.024 35.9596 46.9716 36.0654C46.9203 36.1722 46.8381 36.2564 46.7252 36.3181C46.6132 36.3797 46.4751 36.4105 46.3108 36.4105C46.1157 36.4105 45.9581 36.3663 45.8379 36.278C45.7178 36.1909 45.6597 36.0589 45.6638 35.8822ZM45.8934 34.8994C45.8934 35.1142 45.936 35.2707 46.0212 35.3692C46.1065 35.4677 46.2132 35.5173 46.3416 35.5173C46.4689 35.5173 46.5757 35.4685 46.662 35.3707C46.7483 35.2722 46.7914 35.1181 46.7914 34.9086C46.7914 34.7084 46.7467 34.5575 46.6574 34.4558C46.5691 34.3541 46.4623 34.3034 46.337 34.3034C46.2138 34.3034 46.109 34.3537 46.0228 34.4544C45.9365 34.5539 45.8934 34.7024 45.8934 34.8994Z" fill="#626262"/>
<path d="M43.0298 35.8822L43.2994 35.9223C43.3107 36.0055 43.342 36.0659 43.3933 36.104C43.4622 36.1555 43.5561 36.181 43.6752 36.181C43.8036 36.181 43.9027 36.1555 43.9725 36.104C44.0423 36.0526 44.0896 35.9807 44.1142 35.8883C44.1286 35.832 44.1353 35.7133 44.1343 35.5325C44.0131 35.6752 43.8621 35.7466 43.6814 35.7466C43.4565 35.7466 43.2824 35.6655 43.1592 35.5032C43.036 35.3411 42.9744 35.1465 42.9744 34.9196C42.9744 34.7633 43.0026 34.6196 43.0591 34.4881C43.1156 34.3556 43.1972 34.2534 43.304 34.1816C43.4118 34.1098 43.5381 34.0739 43.6829 34.0739C43.876 34.0739 44.0352 34.1518 44.1605 34.308V34.1108H44.4161V35.5248C44.4161 35.7796 44.39 35.9596 44.3376 36.0654C44.2862 36.1722 44.2041 36.2564 44.0911 36.3181C43.9792 36.3797 43.8411 36.4105 43.6768 36.4105C43.4817 36.4105 43.324 36.3663 43.2039 36.278C43.0837 36.1909 43.0257 36.0589 43.0298 35.8822ZM43.2593 34.8994C43.2593 35.1142 43.3019 35.2707 43.3872 35.3692C43.4724 35.4677 43.5792 35.5173 43.7076 35.5173C43.8349 35.5173 43.9417 35.4685 44.028 35.3707C44.1142 35.2722 44.1574 35.1181 44.1574 34.9086C44.1574 34.7084 44.1127 34.5575 44.0233 34.4558C43.935 34.3541 43.8282 34.3034 43.703 34.3034C43.5797 34.3034 43.475 34.3537 43.3887 34.4544C43.3025 34.5539 43.2593 34.7024 43.2593 34.8994Z" fill="#626262"/>
<path d="M41.3247 35.7466V34.1108H41.5743V34.3435C41.6944 34.1637 41.8679 34.0739 42.0949 34.0739C42.1935 34.0739 42.2839 34.0918 42.366 34.1277C42.4492 34.1627 42.5113 34.2088 42.5524 34.2663C42.5935 34.3238 42.6222 34.3922 42.6387 34.4711C42.6489 34.5226 42.6541 34.6123 42.6541 34.7407V35.7466H42.3768V34.7516C42.3768 34.6386 42.366 34.5543 42.3444 34.499C42.3229 34.4425 42.2844 34.3978 42.2289 34.3648C42.1745 34.3311 42.1103 34.3141 42.0364 34.3141C41.9183 34.3141 41.8161 34.3515 41.7298 34.4265C41.6446 34.5014 41.602 34.6437 41.602 34.8533V35.7466H41.3247Z" fill="#626262"/>
<path d="M40.6363 35.5449C40.5336 35.632 40.4345 35.6937 40.339 35.7296C40.2445 35.7657 40.1429 35.7837 40.034 35.7837C39.8543 35.7837 39.7162 35.74 39.6197 35.6527C39.5231 35.5643 39.4749 35.452 39.4749 35.3154C39.4749 35.2353 39.4928 35.1622 39.5288 35.0967C39.5657 35.03 39.6135 34.9763 39.672 34.9363C39.7316 34.8963 39.7983 34.8662 39.8723 34.8456C39.9267 34.8312 40.0088 34.8174 40.1187 34.8041C40.3426 34.7774 40.5074 34.7453 40.6132 34.7084C40.6142 34.6703 40.6147 34.6463 40.6147 34.6361C40.6147 34.523 40.5886 34.4435 40.5362 34.3973C40.4653 34.3347 40.3601 34.3034 40.2204 34.3034C40.09 34.3034 39.9934 34.3265 39.9308 34.3726C39.8692 34.4177 39.8235 34.4985 39.7937 34.6145L39.5226 34.5774C39.5472 34.4614 39.5878 34.368 39.6443 34.2971C39.7008 34.2253 39.7824 34.1704 39.8892 34.1324C39.996 34.0933 40.1198 34.0739 40.2604 34.0739C40.4001 34.0739 40.5136 34.0901 40.6009 34.1231C40.6881 34.1559 40.7523 34.1976 40.7934 34.2479C40.8345 34.2971 40.8633 34.3597 40.8797 34.4357C40.8889 34.483 40.8935 34.5682 40.8935 34.6915V35.0613C40.8935 35.319 40.8992 35.4823 40.9105 35.551C40.9228 35.6187 40.9464 35.684 40.9813 35.7466H40.6917C40.663 35.6891 40.6445 35.6218 40.6363 35.5449ZM40.6132 34.9256C40.5125 34.9666 40.3616 35.0016 40.1603 35.0305C40.0463 35.0467 39.9657 35.0654 39.9185 35.0858C39.8713 35.1064 39.8348 35.1368 39.8091 35.1768C39.7834 35.2156 39.7706 35.2593 39.7706 35.3076C39.7706 35.3816 39.7983 35.4432 39.8538 35.4925C39.9103 35.5418 39.9924 35.5665 40.1002 35.5665C40.2071 35.5665 40.302 35.5432 40.3852 35.4971C40.4684 35.4498 40.5295 35.3857 40.5685 35.3047C40.5983 35.2418 40.6132 35.1496 40.6132 35.0273V34.9256Z" fill="#626262"/>
<path d="M38.5151 35.7466V34.1108H38.7647V34.3588C38.8283 34.2428 38.8869 34.1663 38.9403 34.1292C38.9947 34.0923 39.0543 34.0739 39.119 34.0739C39.2124 34.0739 39.3074 34.1035 39.4039 34.1632L39.3084 34.4204C39.2407 34.3804 39.1729 34.3602 39.1051 34.3602C39.0445 34.3602 38.9901 34.3789 38.9418 34.4158C38.8936 34.4517 38.8592 34.5019 38.8386 34.5667C38.8078 34.6652 38.7924 34.7732 38.7924 34.8902V35.7466H38.5151Z" fill="#626262"/>
<path d="M38.2457 35.4986L38.2857 35.7437C38.2077 35.7599 38.1378 35.7682 38.0762 35.7682C37.9756 35.7682 37.8975 35.7524 37.8421 35.7204C37.7866 35.6886 37.7476 35.6471 37.725 35.5956C37.7024 35.5432 37.6911 35.434 37.6911 35.2676V34.3265H37.4878V34.1108H37.6911V33.7057L37.9668 33.5393V34.1108H38.2457V34.3265H37.9668V35.2831C37.9668 35.3622 37.9715 35.4129 37.9807 35.4355C37.991 35.458 38.0069 35.476 38.0285 35.4894C38.051 35.5027 38.0829 35.5095 38.124 35.5095C38.1548 35.5095 38.1953 35.5059 38.2457 35.4986Z" fill="#626262"/>
<path d="M35.0061 35.7466V34.1108H35.2557V34.3435C35.3758 34.1637 35.5494 34.0739 35.7763 34.0739C35.8749 34.0739 35.9652 34.0918 36.0474 34.1277C36.1306 34.1627 36.1927 34.2088 36.2338 34.2663C36.2749 34.3238 36.3036 34.3922 36.3201 34.4711C36.3303 34.5226 36.3355 34.6123 36.3355 34.7407V35.7466H36.0582V34.7516C36.0582 34.6386 36.0474 34.5543 36.0258 34.499C36.0043 34.4425 35.9658 34.3978 35.9103 34.3648C35.8559 34.3311 35.7917 34.3141 35.7178 34.3141C35.5997 34.3141 35.4975 34.3515 35.4112 34.4265C35.326 34.5014 35.2834 34.6437 35.2834 34.8533V35.7466H35.0061Z" fill="#626262"/>
<path d="M34.37 35.2197L34.6565 35.2552C34.6113 35.4226 34.5276 35.5527 34.4054 35.6449C34.2832 35.7374 34.1271 35.7837 33.9371 35.7837C33.6979 35.7837 33.5079 35.7102 33.3672 35.5634C33.2275 35.4156 33.1577 35.2086 33.1577 34.9426C33.1577 34.6674 33.2286 34.4539 33.3703 34.3017C33.512 34.1498 33.6958 34.0739 33.9217 34.0739C34.1405 34.0739 34.3191 34.1484 34.4578 34.2971C34.5964 34.4461 34.6657 34.6555 34.6657 34.9256C34.6657 34.9421 34.6652 34.9666 34.6642 34.9996H33.4442C33.4545 35.1792 33.5053 35.3168 33.5967 35.4124C33.6881 35.5078 33.8021 35.5556 33.9387 35.5556C34.0403 35.5556 34.1271 35.5289 34.199 35.4755C34.2709 35.4221 34.3279 35.337 34.37 35.2197ZM33.4596 34.7715H34.3731C34.3607 34.6339 34.3258 34.5308 34.2683 34.4619C34.18 34.3551 34.0655 34.3017 33.9248 34.3017C33.7975 34.3017 33.6902 34.3444 33.6029 34.4296C33.5166 34.5148 33.4689 34.6289 33.4596 34.7715ZM33.9156 33.6456L33.7415 33.9074H33.4242L33.7569 33.4762H34.0526L34.3993 33.9074H34.085L33.9156 33.6456Z" fill="#626262"/>
<path d="M31.6604 36.3768L31.6296 36.1164C31.6902 36.1327 31.7431 36.1409 31.7883 36.1409C31.8499 36.1409 31.8992 36.1307 31.9361 36.1101C31.9731 36.0897 32.0034 36.0608 32.027 36.0239C32.0445 35.9963 32.0727 35.9274 32.1117 35.8174C32.1169 35.8021 32.1251 35.7796 32.1364 35.7497L31.5156 34.1107H31.8144L32.1549 35.0581C32.199 35.1782 32.2386 35.3047 32.2735 35.4369C32.3053 35.3098 32.3433 35.1855 32.3875 35.0642L32.7371 34.1107H33.0144L32.3921 35.7745C32.3253 35.9541 32.2735 36.0778 32.2365 36.1455C32.1872 36.237 32.1307 36.3037 32.0671 36.346C32.0034 36.3889 31.9274 36.4105 31.8391 36.4105C31.7857 36.4105 31.7261 36.3993 31.6604 36.3768Z" fill="#626262"/>
<path d="M30.9889 35.7466V35.5063C30.8616 35.6912 30.6885 35.7837 30.4698 35.7837C30.3733 35.7837 30.2829 35.765 30.1987 35.7281C30.1155 35.6912 30.0534 35.6449 30.0123 35.5896C29.9723 35.533 29.944 35.4643 29.9276 35.3831C29.9163 35.3287 29.9106 35.2426 29.9106 35.1244V34.1107H30.1879V35.0181C30.1879 35.163 30.1936 35.2605 30.2049 35.3107C30.2223 35.3835 30.2593 35.4411 30.3158 35.4833C30.3722 35.5243 30.4421 35.5449 30.5252 35.5449C30.6084 35.5449 30.6865 35.5238 30.7594 35.4818C30.8323 35.4386 30.8836 35.3806 30.9134 35.3076C30.9442 35.2338 30.9596 35.1268 30.9596 34.9873V34.1107H31.2369V35.7466H30.9889Z" fill="#626262"/>
<path d="M28.1609 35.7466V33.4885H28.4381V34.2988C28.5675 34.1488 28.7308 34.0739 28.928 34.0739C29.0491 34.0739 29.1544 34.0979 29.2438 34.1462C29.3331 34.1935 29.3968 34.2593 29.4348 34.3435C29.4738 34.4277 29.4933 34.5497 29.4933 34.7099V35.7466H29.216V34.7099C29.216 34.5713 29.1857 34.4706 29.1252 34.408C29.0656 34.3444 28.9809 34.3126 28.871 34.3126C28.7888 34.3126 28.7113 34.3342 28.6384 34.3772C28.5665 34.4194 28.5152 34.4769 28.4844 34.5497C28.4535 34.6228 28.4381 34.7232 28.4381 34.8516V35.7466H28.1609Z" fill="#626262"/>
<path d="M27.5276 34.955L27.8264 35.0305C27.7638 35.2758 27.6508 35.4631 27.4875 35.5927C27.3253 35.7211 27.1266 35.7852 26.8914 35.7852C26.648 35.7852 26.4498 35.7359 26.2968 35.6374C26.1448 35.5376 26.0288 35.394 25.9487 35.2059C25.8696 35.0181 25.8301 34.8162 25.8301 34.6007C25.8301 34.3656 25.8747 34.1605 25.9641 33.986C26.0545 33.8103 26.1823 33.6774 26.3476 33.5871C26.514 33.4956 26.6968 33.45 26.896 33.45C27.1219 33.45 27.3119 33.5075 27.466 33.6225C27.62 33.7375 27.7273 33.8992 27.7879 34.1076L27.4937 34.177C27.4413 34.0127 27.3653 33.8931 27.2657 33.8181C27.1661 33.7431 27.0408 33.7057 26.8899 33.7057C26.7163 33.7057 26.571 33.7472 26.4539 33.8305C26.3379 33.9137 26.2562 34.0256 26.209 34.1663C26.1618 34.3059 26.1382 34.4502 26.1382 34.599C26.1382 34.7912 26.1659 34.9591 26.2213 35.1028C26.2778 35.2455 26.3651 35.3522 26.4832 35.4231C26.6013 35.494 26.7291 35.5294 26.8667 35.5294C27.0341 35.5294 27.1758 35.4811 27.2919 35.3848C27.4079 35.2882 27.4865 35.1448 27.5276 34.955Z" fill="#626262"/>
</g>
</g>
<defs>
<linearGradient id="paint0_linear_2393_1218" x1="89.0889" y1="7.86264" x2="89.0889" y2="40.1374" gradientUnits="userSpaceOnUse">
<stop offset="0.45" stop-color="#9BC117"/>
<stop offset="0.51" stop-color="#AED71A"/>
<stop offset="0.55" stop-color="#BDE631"/>
</linearGradient>
<linearGradient id="paint1_linear_2393_1218" x1="52.2506" y1="7.86264" x2="52.2506" y2="40.1374" gradientUnits="userSpaceOnUse">
<stop offset="0.45" stop-color="#9BC117"/>
<stop offset="0.51" stop-color="#AED71A"/>
<stop offset="0.55" stop-color="#BDE631"/>
</linearGradient>
<linearGradient id="paint2_linear_2393_1218" x1="59.0459" y1="7.86262" x2="59.0459" y2="40.1374" gradientUnits="userSpaceOnUse">
<stop offset="0.44" stop-color="#9BC117"/>
<stop offset="0.51" stop-color="#AED71A"/>
<stop offset="0.56" stop-color="#BDE631"/>
</linearGradient>
<linearGradient id="paint3_linear_2393_1218" x1="30.7075" y1="7.86264" x2="30.7075" y2="40.1374" gradientUnits="userSpaceOnUse">
<stop offset="0.45" stop-color="#9BC117"/>
<stop offset="0.51" stop-color="#AED71A"/>
<stop offset="0.55" stop-color="#BDE631"/>
</linearGradient>
<linearGradient id="paint4_linear_2393_1218" x1="41.4095" y1="7.86264" x2="41.4095" y2="40.1374" gradientUnits="userSpaceOnUse">
<stop offset="0.45" stop-color="#9BC117"/>
<stop offset="0.51" stop-color="#AED71A"/>
<stop offset="0.55" stop-color="#BDE631"/>
</linearGradient>
<linearGradient id="paint5_linear_2393_1218" x1="66.1315" y1="7.86263" x2="66.1315" y2="40.1374" gradientUnits="userSpaceOnUse">
<stop offset="0.45" stop-color="#9BC117"/>
<stop offset="0.51" stop-color="#AED71A"/>
<stop offset="0.55" stop-color="#BDE631"/>
</linearGradient>
<radialGradient id="paint6_radial_2393_1218" cx="0" cy="0" r="1" gradientUnits="userSpaceOnUse" gradientTransform="translate(76.8698 20.5043) scale(38.8268 38.8307)">
<stop stop-color="#0296F8"/>
<stop offset="0.23" stop-color="#0032C8"/>
</radialGradient>
<radialGradient id="paint7_radial_2393_1218" cx="0" cy="0" r="1" gradientUnits="userSpaceOnUse" gradientTransform="translate(76.5353 22.6546) scale(28.744 28.7466)">
<stop stop-color="#0296F8"/>
<stop offset="0.23" stop-color="#0032C8"/>
</radialGradient>
<clipPath id="clip0_2393_1218">
<rect width="77.6536" height="32.2748" fill="white" transform="translate(25.6731 7.86261)"/>
</clipPath>
</defs>
</svg>
